G04TEST9 - Text*
%FSLAX26Y26*%
%MOMM*%
%TF.CreationDate,2025-02-14T19:23:43+08*%
G01*
G75*
%LMY*%
%LPD*%
G36*
X802464Y8333312D02*
X1604928D01*
Y2160512D01*
X802464D01*
Y8333312D01*
G37*
%LPD*%
G36*
X5370336Y8333312D02*
X6111072D01*
Y7469120D01*
X5370336D01*
Y8333312D01*
G37*
%LPD*%
G36*
X5370336Y6666656D02*
X6111072D01*
Y1234592D01*
X6049344Y1172864D01*
Y987680D01*
X5987616Y925952D01*
Y864224D01*
X5925888Y802496D01*
Y740768D01*
X5864160Y679040D01*
X5802432Y617312D01*
X5740704Y555584D01*
X5678976Y493856D01*
X5617248D01*
X5555520Y432128D01*
X5493792D01*
X5432064Y370400D01*
X4814784D01*
Y987680D01*
X4999968D01*
X5061696Y1049408D01*
X5123424D01*
X5185152Y1111136D01*
X5246880Y1172864D01*
X5308608Y1234592D01*
Y1296320D01*
X5370336Y1358048D01*
Y6666656D01*
G37*
%LPD*%
G36*
X7222176Y6666656D02*
X7962912D01*
Y3641984D01*
X8024640Y3580256D01*
Y3271616D01*
X8086368Y3209888D01*
Y3148160D01*
X8148096Y3086432D01*
X8209824Y3024704D01*
Y2962976D01*
X8271552Y2901248D01*
X8333280D01*
X8395008Y2839520D01*
X8456736Y2777792D01*
X8580192D01*
X8641920Y2716064D01*
X9074016D01*
X9135744Y2777792D01*
X9382656D01*
X9444384Y2839520D01*
X9506112D01*
X9567840Y2901248D01*
X9629568Y2962976D01*
X9691296D01*
X9753024Y3024704D01*
X9814752Y3086432D01*
X9876480Y3148160D01*
Y3209888D01*
X9938208Y3271616D01*
Y3333344D01*
X9999936Y3395072D01*
Y3518528D01*
X10061664Y3580256D01*
Y4197536D01*
X10123392Y4259264D01*
Y6666656D01*
X10864128D01*
Y2160512D01*
X10185120D01*
Y2716064D01*
X10123392Y2777792D01*
X10061664Y2716064D01*
X9999936Y2654336D01*
Y2592608D01*
X9938208Y2530880D01*
X9876480Y2469152D01*
X9814752Y2407424D01*
X9753024D01*
X9691296Y2345696D01*
X9629568D01*
X9567840Y2283968D01*
X9506112Y2222240D01*
X9444384D01*
X9382656Y2160512D01*
X9320928D01*
X9259200Y2098784D01*
X9012288D01*
X8950560Y2037056D01*
X8580192D01*
X8518464Y2098784D01*
X8333280D01*
X8271552Y2160512D01*
X8148096D01*
X8086368Y2222240D01*
X7962912D01*
X7901184Y2283968D01*
X7839456D01*
X7777728Y2345696D01*
X7716000Y2407424D01*
X7654272D01*
X7592544Y2469152D01*
X7530816Y2530880D01*
Y2592608D01*
X7469088Y2654336D01*
X7407360Y2716064D01*
X7345632Y2777792D01*
Y2962976D01*
X7283904Y3024704D01*
Y3209888D01*
X7222176Y3271616D01*
Y6666656D01*
G37*
%LPD*%
G36*
X13703616Y6728384D02*
X14506080D01*
X14567808Y6666656D01*
X14691264D01*
X14752992Y6604928D01*
X14814720Y6543200D01*
X14876448D01*
X14938176Y6481472D01*
X14999904D01*
X15061632Y6419744D01*
X15123360Y6358016D01*
X15185088Y6296288D01*
X15246816Y6234560D01*
Y6172832D01*
X15308544Y6111104D01*
X15370272Y6049376D01*
X15432000D01*
X15493728Y6111104D01*
Y6172832D01*
X15555456Y6234560D01*
X15617184Y6296288D01*
X15678912Y6358016D01*
X15740640Y6419744D01*
X15802368D01*
X15864096Y6481472D01*
X15925824D01*
X15987552Y6543200D01*
X16049280D01*
X16111008Y6604928D01*
X16172736D01*
X16234464Y6666656D01*
X16481376D01*
X16543104Y6728384D01*
X17160384D01*
X17222112Y6666656D01*
X17345568D01*
X17407296Y6604928D01*
X17469024D01*
X17530752Y6543200D01*
X17592480D01*
X17654208Y6481472D01*
X17715936Y6419744D01*
X17777664Y6358016D01*
X17839392Y6296288D01*
Y6234560D01*
X17901120Y6172832D01*
X17962848Y6111104D01*
Y6049376D01*
X18024576Y5987648D01*
Y5802464D01*
X18086304Y5740736D01*
Y5432096D01*
X18148032Y5370368D01*
Y2160512D01*
X17345568D01*
Y5555552D01*
X17283840Y5617280D01*
Y5679008D01*
X17222112Y5740736D01*
Y5802464D01*
X17160384Y5864192D01*
X17098656Y5925920D01*
X17036928D01*
X16975200Y5987648D01*
X16913472Y6049376D01*
X16666560D01*
X16604832Y6111104D01*
X16481376D01*
X16419648Y6049376D01*
X16296192D01*
X16234464Y5987648D01*
X16111008D01*
X16049280Y5925920D01*
X15987552D01*
X15925824Y5864192D01*
X15864096Y5802464D01*
X15802368D01*
X15740640Y5740736D01*
X15678912Y5679008D01*
Y5617280D01*
X15617184Y5555552D01*
Y5493824D01*
X15555456Y5432096D01*
Y5246912D01*
X15493728Y5185184D01*
Y2160512D01*
X14691264D01*
Y5493824D01*
X14629536Y5555552D01*
Y5679008D01*
X14567808Y5740736D01*
Y5802464D01*
X14506080Y5864192D01*
X14444352Y5925920D01*
X14382624Y5987648D01*
X14320896D01*
X14259168Y6049376D01*
X14073984D01*
X14012256Y6111104D01*
X13888800D01*
X13827072Y6049376D01*
X13580160D01*
X13518432Y5987648D01*
X13456704D01*
X13394976Y5925920D01*
X13333248D01*
X13271520Y5864192D01*
X13209792Y5802464D01*
X13148064Y5740736D01*
X13086336Y5679008D01*
X13024608Y5617280D01*
Y5555552D01*
X12962880Y5493824D01*
Y5432096D01*
X12901152Y5370368D01*
Y5246912D01*
X12839424Y5185184D01*
Y2160512D01*
X12036960D01*
Y6666656D01*
X12715968D01*
Y6111104D01*
X12777696Y6049376D01*
X12839424Y6111104D01*
Y6172832D01*
X12901152Y6234560D01*
X12962880Y6296288D01*
X13024608Y6358016D01*
X13086336Y6419744D01*
X13148064D01*
X13209792Y6481472D01*
X13271520Y6543200D01*
X13333248D01*
X13394976Y6604928D01*
X13456704D01*
X13518432Y6666656D01*
X13703616Y6728384D01*
G37*
%LPD*%
G36*
X20802336Y6728384D02*
X21604800D01*
X21666528Y6666656D01*
X21789984D01*
X21851712Y6604928D01*
X21975168D01*
X22036896Y6543200D01*
X22098624Y6481472D01*
X22160352D01*
X22222080Y6419744D01*
X22283808Y6358016D01*
X22345536D01*
X22407264Y6296288D01*
X22468992Y6234560D01*
X22530720Y6172832D01*
X22592448Y6111104D01*
X22654176Y6049376D01*
X22715904Y5987648D01*
Y5925920D01*
X22777632Y5864192D01*
X22839360Y5802464D01*
Y5740736D01*
X22901088Y5679008D01*
Y5493824D01*
X22962816Y5432096D01*
Y5246912D01*
X23024544Y5185184D01*
Y4938272D01*
X23086272Y4876544D01*
Y4012352D01*
X23024544Y3950624D01*
Y3641984D01*
X22962816Y3580256D01*
Y3456800D01*
X22901088Y3395072D01*
Y3333344D01*
X22839360Y3271616D01*
Y3148160D01*
X22777632Y3086432D01*
Y3024704D01*
X22715904Y2962976D01*
X22654176Y2901248D01*
X22592448Y2839520D01*
Y2777792D01*
X22530720Y2716064D01*
X22468992Y2654336D01*
X22407264Y2592608D01*
X22345536Y2530880D01*
X22283808Y2469152D01*
X22222080Y2407424D01*
X22160352Y2345696D01*
X22098624D01*
X22036896Y2283968D01*
X21975168D01*
X21913440Y2222240D01*
X21851712D01*
X21789984Y2160512D01*
X21666528D01*
X21604800Y2098784D01*
X21296160D01*
X21234432Y2037056D01*
X21110976D01*
X21049248Y2098784D01*
X20740608D01*
X20678880Y2160512D01*
X20617152D01*
X20555424Y2222240D01*
X20431968D01*
X20370240Y2283968D01*
X20308512Y2345696D01*
X20246784D01*
X20185056Y2407424D01*
X20123328Y2469152D01*
X20061600Y2530880D01*
X19999872Y2469152D01*
Y432128D01*
X19197408D01*
Y6666656D01*
X19876416D01*
Y6172832D01*
X19938144Y6111104D01*
X19999872Y6172832D01*
X20061600Y6234560D01*
X20123328Y6296288D01*
X20185056Y6358016D01*
X20246784Y6419744D01*
X20308512Y6481472D01*
X20370240Y6543200D01*
X20431968D01*
X20493696Y6604928D01*
X20555424Y6666656D01*
X20802336Y6728384D01*
G37*
%LPC*%
G36*
X21049248Y6172832D02*
X21234432D01*
X21296160Y6111104D01*
X21481344D01*
X21543072Y6049376D01*
X21604800D01*
X21666528Y5987648D01*
X21728256D01*
X21789984Y5925920D01*
X21851712Y5864192D01*
X21913440Y5802464D01*
X21975168Y5740736D01*
Y5679008D01*
X22036896Y5617280D01*
Y5555552D01*
X22098624Y5493824D01*
X22160352Y5432096D01*
Y5370368D01*
X22222080Y5308640D01*
Y5061728D01*
X22283808Y5000000D01*
Y4629632D01*
X22345536Y4567904D01*
Y4259264D01*
X22283808Y4197536D01*
Y3888896D01*
X22222080Y3827168D01*
Y3518528D01*
X22160352Y3456800D01*
Y3395072D01*
X22098624Y3333344D01*
X22036896Y3271616D01*
Y3209888D01*
X21975168Y3148160D01*
X21913440Y3086432D01*
X21851712Y3024704D01*
X21789984Y2962976D01*
X21728256Y2901248D01*
X21666528D01*
X21604800Y2839520D01*
X21543072Y2777792D01*
X21481344D01*
X21419616Y2716064D01*
X20802336D01*
X20740608Y2777792D01*
X20617152D01*
X20555424Y2839520D01*
X20493696D01*
X20431968Y2901248D01*
X20370240Y2962976D01*
X20308512Y3024704D01*
X20246784Y3086432D01*
X20185056Y3148160D01*
Y3209888D01*
X20123328Y3271616D01*
Y3395072D01*
X20061600Y3456800D01*
Y3518528D01*
X19999872Y3580256D01*
Y3765440D01*
X19938144Y3827168D01*
Y4135808D01*
X19876416Y4197536D01*
Y4567904D01*
X19938144Y4629632D01*
Y4938272D01*
X19999872Y5000000D01*
Y5246912D01*
X20061600Y5308640D01*
Y5370368D01*
X20123328Y5432096D01*
Y5493824D01*
X20185056Y5555552D01*
Y5617280D01*
X20246784Y5679008D01*
X20308512Y5740736D01*
X20370240Y5802464D01*
X20431968Y5864192D01*
X20493696Y5925920D01*
X20555424D01*
X20617152Y5987648D01*
X20678880Y6049376D01*
X20740608D01*
X20802336Y6111104D01*
X21049248Y6172832D01*
G37*
%LPD*%
G36*
X27283776Y8209856D02*
X27345504D01*
Y6728384D01*
X27407232Y6666656D01*
X28086240D01*
Y6049376D01*
X27407232D01*
X27345504Y5987648D01*
Y3024704D01*
X27407232Y2962976D01*
X27468960Y2901248D01*
X27530688Y2839520D01*
X28086240D01*
Y2716064D01*
X28147968Y2654336D01*
Y2407424D01*
X28209696Y2345696D01*
Y2222240D01*
X28147968Y2160512D01*
X28024512D01*
X27962784Y2098784D01*
X27407232D01*
X27345504Y2160512D01*
X27098592D01*
X27036864Y2222240D01*
X26975136D01*
X26913408Y2283968D01*
X26851680Y2345696D01*
X26789952Y2407424D01*
X26728224Y2469152D01*
X26666496Y2530880D01*
Y2654336D01*
X26604768Y2716064D01*
Y3271616D01*
X26543040Y3333344D01*
Y5987648D01*
X26481312Y6049376D01*
X25987488D01*
Y6666656D01*
X26481312D01*
X26543040Y6728384D01*
Y7777760D01*
X26604768D01*
X26666496Y7839488D01*
X26728224D01*
X26789952Y7901216D01*
X26851680Y7962944D01*
X26913408D01*
X26975136Y8024672D01*
X27036864D01*
X27098592Y8086400D01*
X27160320Y8148128D01*
X27283776Y8209856D01*
G37*
%LPD*%
G36*
X30184992Y6728384D02*
X31172640D01*
X31234368Y6666656D01*
X31357824D01*
X31419552Y6604928D01*
X31481280D01*
X31543008Y6543200D01*
X31604736D01*
X31666464Y6481472D01*
X31728192D01*
X31789920Y6419744D01*
X31851648D01*
X31913376Y6358016D01*
X31975104Y6296288D01*
X32036832Y6234560D01*
X32098560D01*
X32160288Y6172832D01*
Y6111104D01*
X32222016Y6049376D01*
X32283744Y5987648D01*
Y5925920D01*
X32345472Y5864192D01*
X32407200Y5802464D01*
X32468928Y5740736D01*
Y5679008D01*
X32530656Y5617280D01*
Y5555552D01*
X32592384Y5493824D01*
Y5308640D01*
X32654112Y5246912D01*
Y5123456D01*
X32715840Y5061728D01*
Y4753088D01*
X32777568Y4691360D01*
Y4320992D01*
X32715840Y4259264D01*
Y3703712D01*
X32654112Y3641984D01*
Y3580256D01*
X32592384Y3518528D01*
Y3271616D01*
X32530656Y3209888D01*
Y3148160D01*
X32468928Y3086432D01*
X32407200Y3024704D01*
Y2962976D01*
X32345472Y2901248D01*
Y2839520D01*
X32283744Y2777792D01*
X32222016Y2716064D01*
X32160288Y2654336D01*
X32098560Y2592608D01*
X32036832Y2530880D01*
X31975104Y2469152D01*
X31913376Y2407424D01*
X31851648D01*
X31789920Y2345696D01*
X31728192D01*
X31666464Y2283968D01*
X31604736D01*
X31543008Y2222240D01*
X31419552D01*
X31357824Y2160512D01*
X31234368D01*
X31172640Y2098784D01*
X30864000D01*
X30802272Y2037056D01*
X30493632D01*
X30431904Y2098784D01*
X30123264D01*
X30061536Y2160512D01*
X29938080D01*
X29876352Y2222240D01*
X29752896D01*
X29691168Y2283968D01*
X29629440D01*
X29567712Y2345696D01*
X29505984D01*
X29444256Y2407424D01*
X29382528Y2469152D01*
X29320800Y2530880D01*
X29259072D01*
X29197344Y2592608D01*
X29135616Y2654336D01*
X29073888Y2716064D01*
X29012160Y2777792D01*
Y2839520D01*
X28950432Y2901248D01*
X28888704Y2962976D01*
Y3024704D01*
X28826976Y3086432D01*
Y3148160D01*
X28765248Y3209888D01*
Y3271616D01*
X28703520Y3333344D01*
Y3456800D01*
X28641792Y3518528D01*
Y3703712D01*
X28580064Y3765440D01*
Y5061728D01*
X28641792Y5123456D01*
Y5308640D01*
X28703520Y5370368D01*
Y5432096D01*
X28765248Y5493824D01*
X28826976Y5555552D01*
Y5617280D01*
X28888704Y5679008D01*
Y5740736D01*
X28950432Y5802464D01*
Y5925920D01*
X29012160Y5987648D01*
X29073888Y6049376D01*
X29135616Y6111104D01*
X29197344Y6172832D01*
X29259072Y6234560D01*
X29320800Y6296288D01*
X29382528Y6358016D01*
X29444256D01*
X29505984Y6419744D01*
X29567712Y6481472D01*
X29629440D01*
X29691168Y6543200D01*
X29752896D01*
X29814624Y6604928D01*
X29999808D01*
X30061536Y6666656D01*
X30184992Y6728384D01*
G37*
%LPC*%
G36*
X30308448Y6111104D02*
X30925728D01*
X30987456Y6049376D01*
X31049184D01*
X31110912Y5987648D01*
X31296096D01*
X31357824Y5925920D01*
X31419552Y5864192D01*
X31481280Y5802464D01*
X31543008Y5740736D01*
X31604736Y5679008D01*
X31666464Y5617280D01*
Y5555552D01*
X31728192Y5493824D01*
X31789920Y5432096D01*
Y5308640D01*
X31851648Y5246912D01*
Y5185184D01*
X31913376Y5123456D01*
Y4876544D01*
X31975104Y4814816D01*
Y3888896D01*
X31913376Y3827168D01*
Y3703712D01*
X31851648Y3641984D01*
Y3518528D01*
X31789920Y3456800D01*
Y3395072D01*
X31728192Y3333344D01*
X31666464Y3271616D01*
Y3209888D01*
X31604736Y3148160D01*
X31543008Y3086432D01*
X31481280Y3024704D01*
X31419552Y2962976D01*
X31357824Y2901248D01*
X31296096D01*
X31234368Y2839520D01*
X31172640Y2777792D01*
X31049184D01*
X30987456Y2716064D01*
X30308448D01*
X30246720Y2777792D01*
X30123264D01*
X30061536Y2839520D01*
X29999808D01*
X29938080Y2901248D01*
X29876352Y2962976D01*
X29814624Y3024704D01*
X29752896Y3086432D01*
X29691168Y3148160D01*
X29629440Y3209888D01*
Y3271616D01*
X29567712Y3333344D01*
X29505984Y3395072D01*
Y3518528D01*
X29444256Y3580256D01*
Y3827168D01*
X29382528Y3888896D01*
Y4197536D01*
X29320800Y4259264D01*
Y4567904D01*
X29382528Y4629632D01*
Y4938272D01*
X29444256Y5000000D01*
Y5246912D01*
X29505984Y5308640D01*
Y5370368D01*
X29567712Y5432096D01*
Y5493824D01*
X29629440Y5555552D01*
Y5617280D01*
X29691168Y5679008D01*
X29752896Y5740736D01*
X29814624Y5802464D01*
X29876352Y5864192D01*
X29938080D01*
X29999808Y5925920D01*
X30061536D01*
X30123264Y5987648D01*
X30184992Y6049376D01*
X30308448Y6111104D01*
G37*
%LPD*%
G36*
X38209632Y8395040D02*
X38703456D01*
Y2160512D01*
X37962720D01*
Y6913568D01*
X37900992Y6975296D01*
X37839264Y6913568D01*
X37777536Y6851840D01*
X37715808Y6790112D01*
X37654080Y6728384D01*
X37592352D01*
X37530624Y6666656D01*
X37468896Y6604928D01*
X37407168Y6543200D01*
X37345440D01*
X37283712Y6481472D01*
X37221984D01*
X37160256Y6419744D01*
X37098528D01*
X37036800Y6358016D01*
X36975072D01*
X36913344Y6296288D01*
X36851616D01*
X36789888Y6234560D01*
X36728160Y6172832D01*
X36604704D01*
X36542976Y6111104D01*
X36419520D01*
Y6790112D01*
X36481248Y6851840D01*
X36542976Y6913568D01*
X36604704D01*
X36666432Y6975296D01*
X36789888D01*
X36851616Y7037024D01*
X36913344D01*
X36975072Y7098752D01*
X37036800Y7160480D01*
X37098528Y7222208D01*
X37160256Y7283936D01*
X37221984D01*
X37283712Y7345664D01*
X37345440Y7407392D01*
X37407168Y7469120D01*
X37468896D01*
X37530624Y7530848D01*
X37592352Y7592576D01*
X37654080Y7654304D01*
X37715808Y7716032D01*
X37777536Y7777760D01*
X37839264Y7839488D01*
X37900992Y7901216D01*
X37962720Y7962944D01*
X38024448Y8024672D01*
Y8086400D01*
X38086176Y8148128D01*
X38147904Y8209856D01*
X38209632Y8271584D01*
Y8395040D01*
G37*
%LPD*%
G36*
X42530592Y8395040D02*
X42900960D01*
X42962688Y8333312D01*
X43271328D01*
X43333056Y8271584D01*
X43518240D01*
X43579968Y8209856D01*
X43641696Y8148128D01*
X43703424D01*
X43765152Y8086400D01*
X43888608D01*
X43950336Y8024672D01*
X44012064Y7962944D01*
X44073792Y7901216D01*
X44135520D01*
X44197248Y7839488D01*
X44258976Y7777760D01*
Y7716032D01*
X44320704Y7654304D01*
X44382432Y7592576D01*
X44444160Y7530848D01*
Y7469120D01*
X44505888Y7407392D01*
Y7283936D01*
X44567616Y7222208D01*
Y7160480D01*
X44629344Y7098752D01*
Y6234560D01*
X44567616Y6172832D01*
Y6049376D01*
X44505888Y5987648D01*
Y5925920D01*
X44444160Y5864192D01*
Y5802464D01*
X44382432Y5740736D01*
X44320704Y5679008D01*
Y5555552D01*
X44258976Y5493824D01*
X44197248Y5432096D01*
X44135520Y5370368D01*
Y5308640D01*
X44073792Y5246912D01*
X44012064Y5185184D01*
X43950336Y5123456D01*
X43888608Y5061728D01*
X43826880Y5000000D01*
X43765152Y4938272D01*
X43703424Y4876544D01*
X43641696Y4814816D01*
X43579968Y4753088D01*
X43518240Y4691360D01*
X43456512Y4629632D01*
X43394784Y4567904D01*
X43333056Y4506176D01*
X43271328Y4444448D01*
X43209600Y4382720D01*
X43147872D01*
X43086144Y4320992D01*
X43024416Y4259264D01*
X42962688Y4197536D01*
X42900960Y4135808D01*
X42839232Y4074080D01*
X42777504Y4012352D01*
X42715776Y3950624D01*
X42654048D01*
X42592320Y3888896D01*
X42530592Y3827168D01*
X42468864Y3765440D01*
X42407136Y3703712D01*
X42345408D01*
X42283680Y3641984D01*
X42221952Y3580256D01*
X42160224Y3518528D01*
X42098496Y3456800D01*
X42036768Y3395072D01*
X41975040Y3333344D01*
X41913312Y3271616D01*
X41851584Y3209888D01*
X41789856Y3148160D01*
Y3086432D01*
X41728128Y3024704D01*
X41666400Y2962976D01*
X41728128Y2901248D01*
X44629344D01*
Y2160512D01*
X40555296D01*
Y2407424D01*
X40617024Y2469152D01*
Y2654336D01*
X40678752Y2716064D01*
Y2777792D01*
X40740480Y2839520D01*
Y2901248D01*
X40802208Y2962976D01*
Y3024704D01*
X40863936Y3086432D01*
X40925664Y3148160D01*
Y3209888D01*
X40987392Y3271616D01*
X41049120Y3333344D01*
X41110848Y3395072D01*
Y3456800D01*
X41172576Y3518528D01*
X41234304Y3580256D01*
X41296032Y3641984D01*
X41357760Y3703712D01*
X41419488Y3765440D01*
X41481216Y3827168D01*
X41542944Y3888896D01*
X41604672Y3950624D01*
X41666400Y4012352D01*
X41728128Y4074080D01*
X41789856Y4135808D01*
X41851584Y4197536D01*
X41913312Y4259264D01*
X41975040Y4320992D01*
X42036768D01*
X42098496Y4382720D01*
X42160224Y4444448D01*
X42221952Y4506176D01*
X42283680Y4567904D01*
X42345408Y4629632D01*
X42407136D01*
X42468864Y4691360D01*
X42530592Y4753088D01*
X42592320Y4814816D01*
X42654048Y4876544D01*
X42715776Y4938272D01*
X42777504Y5000000D01*
X42839232Y5061728D01*
X42900960D01*
X42962688Y5123456D01*
X43024416Y5185184D01*
Y5246912D01*
X43086144Y5308640D01*
X43147872Y5370368D01*
X43209600Y5432096D01*
X43271328Y5493824D01*
X43333056Y5555552D01*
X43394784Y5617280D01*
X43456512Y5679008D01*
X43518240Y5740736D01*
X43579968Y5802464D01*
Y5864192D01*
X43641696Y5925920D01*
Y5987648D01*
X43703424Y6049376D01*
X43765152Y6111104D01*
Y6296288D01*
X43826880Y6358016D01*
Y6543200D01*
X43888608Y6604928D01*
Y6728384D01*
X43826880Y6790112D01*
Y7037024D01*
X43765152Y7098752D01*
X43703424Y7160480D01*
Y7283936D01*
X43641696Y7345664D01*
X43579968Y7407392D01*
X43518240Y7469120D01*
X43456512Y7530848D01*
X43394784D01*
X43333056Y7592576D01*
X43271328Y7654304D01*
X43086144D01*
X43024416Y7716032D01*
X42345408D01*
X42283680Y7654304D01*
X42160224D01*
X42098496Y7592576D01*
X42036768D01*
X41975040Y7530848D01*
X41913312Y7469120D01*
X41851584Y7407392D01*
X41789856Y7345664D01*
X41728128Y7283936D01*
X41666400Y7222208D01*
Y7160480D01*
X41604672Y7098752D01*
Y7037024D01*
X41542944Y6975296D01*
Y6666656D01*
X41481216Y6604928D01*
Y6481472D01*
X41357760D01*
X41296032Y6543200D01*
X40987392D01*
X40925664Y6604928D01*
X40740480D01*
Y6728384D01*
X40802208Y6790112D01*
Y7098752D01*
X40863936Y7160480D01*
Y7222208D01*
X40925664Y7283936D01*
Y7407392D01*
X40987392Y7469120D01*
Y7530848D01*
X41049120Y7592576D01*
Y7654304D01*
X41110848Y7716032D01*
X41172576Y7777760D01*
X41234304Y7839488D01*
X41296032Y7901216D01*
X41357760Y7962944D01*
X41419488Y8024672D01*
X41481216D01*
X41542944Y8086400D01*
X41604672D01*
X41666400Y8148128D01*
X41728128D01*
X41789856Y8209856D01*
X41851584D01*
X41913312Y8271584D01*
X42098496D01*
X42160224Y8333312D01*
X42530592Y8395040D01*
G37*
%LPD*%
G36*
X47283648Y8395040D02*
X47530560D01*
X47592288Y8333312D01*
X47900928D01*
X47962656Y8271584D01*
X48147840D01*
X48209568Y8209856D01*
X48271296D01*
X48333024Y8148128D01*
X48394752D01*
X48456480Y8086400D01*
X48518208D01*
X48579936Y8024672D01*
X48641664Y7962944D01*
X48703392Y7901216D01*
X48765120Y7839488D01*
X48826848Y7777760D01*
X48888576Y7716032D01*
X48950304Y7654304D01*
X49012032Y7592576D01*
Y7530848D01*
X49073760Y7469120D01*
Y7407392D01*
X49135488Y7345664D01*
Y7222208D01*
X49197216Y7160480D01*
Y6913568D01*
X49258944Y6851840D01*
Y6728384D01*
X49197216Y6666656D01*
Y6358016D01*
X49135488Y6296288D01*
Y6234560D01*
X49073760Y6172832D01*
X49012032Y6111104D01*
Y6049376D01*
X48950304Y5987648D01*
Y5925920D01*
X48888576Y5864192D01*
X48826848Y5802464D01*
X48765120Y5740736D01*
X48703392Y5679008D01*
X48641664Y5617280D01*
X48579936D01*
X48518208Y5555552D01*
X48456480Y5493824D01*
X48518208Y5432096D01*
X48641664D01*
X48703392Y5370368D01*
X48765120D01*
X48826848Y5308640D01*
X48888576D01*
X48950304Y5246912D01*
X49012032D01*
X49073760Y5185184D01*
X49135488Y5123456D01*
Y5061728D01*
X49197216Y5000000D01*
X49258944Y4938272D01*
X49320672Y4876544D01*
Y4814816D01*
X49382400Y4753088D01*
Y4691360D01*
X49444128Y4629632D01*
Y4444448D01*
X49505856Y4382720D01*
Y3518528D01*
X49444128Y3456800D01*
Y3395072D01*
X49382400Y3333344D01*
Y3209888D01*
X49320672Y3148160D01*
Y3086432D01*
X49258944Y3024704D01*
Y2962976D01*
X49197216Y2901248D01*
X49135488Y2839520D01*
X49073760Y2777792D01*
Y2716064D01*
X49012032Y2654336D01*
X48950304Y2592608D01*
X48888576D01*
X48826848Y2530880D01*
X48765120Y2469152D01*
X48703392Y2407424D01*
X48641664Y2345696D01*
X48579936D01*
X48518208Y2283968D01*
X48456480D01*
X48394752Y2222240D01*
X48333024D01*
X48271296Y2160512D01*
X48147840D01*
X48086112Y2098784D01*
X47715744D01*
X47654016Y2037056D01*
X47283648D01*
X47221920Y2098784D01*
X46913280D01*
X46851552Y2160512D01*
X46666368D01*
X46604640Y2222240D01*
X46542912D01*
X46481184Y2283968D01*
X46419456D01*
X46357728Y2345696D01*
X46296000Y2407424D01*
X46234272Y2469152D01*
X46172544D01*
X46110816Y2530880D01*
X46049088Y2592608D01*
X45987360Y2654336D01*
X45925632Y2716064D01*
X45863904Y2777792D01*
Y2839520D01*
X45802176Y2901248D01*
X45740448Y2962976D01*
Y3024704D01*
X45678720Y3086432D01*
Y3148160D01*
X45616992Y3209888D01*
Y3271616D01*
X45555264Y3333344D01*
Y3580256D01*
X45493536Y3641984D01*
Y3765440D01*
X45616992D01*
X45678720Y3827168D01*
X45987360D01*
X46049088Y3888896D01*
X46234272D01*
Y3827168D01*
X46296000Y3765440D01*
Y3641984D01*
X46357728Y3580256D01*
Y3518528D01*
X46419456Y3456800D01*
Y3333344D01*
X46481184Y3271616D01*
Y3209888D01*
X46542912Y3148160D01*
X46604640Y3086432D01*
X46666368Y3024704D01*
Y2962976D01*
X46728096Y2901248D01*
X46789824D01*
X46851552Y2839520D01*
X46913280D01*
X46975008Y2777792D01*
X47036736D01*
X47098464Y2716064D01*
X47283648D01*
X47345376Y2654336D01*
X47530560D01*
X47592288Y2716064D01*
X47777472D01*
X47839200Y2777792D01*
X47962656D01*
X48024384Y2839520D01*
X48086112D01*
X48147840Y2901248D01*
X48209568D01*
X48271296Y2962976D01*
X48333024Y3024704D01*
X48394752Y3086432D01*
X48456480Y3148160D01*
Y3209888D01*
X48518208Y3271616D01*
X48579936Y3333344D01*
Y3395072D01*
X48641664Y3456800D01*
Y3518528D01*
X48703392Y3580256D01*
Y4320992D01*
X48641664Y4382720D01*
Y4506176D01*
X48579936Y4567904D01*
Y4629632D01*
X48518208Y4691360D01*
X48456480Y4753088D01*
X48394752Y4814816D01*
X48333024Y4876544D01*
X48271296Y4938272D01*
X48209568Y5000000D01*
X48147840D01*
X48086112Y5061728D01*
X48024384D01*
X47962656Y5123456D01*
X47777472D01*
X47715744Y5185184D01*
X47345376D01*
X47283648Y5123456D01*
X46975008D01*
Y5370368D01*
X47036736Y5432096D01*
Y5740736D01*
X47407104D01*
X47468832Y5802464D01*
X47715744D01*
X47777472Y5864192D01*
X47839200D01*
X47900928Y5925920D01*
X47962656Y5987648D01*
X48024384D01*
X48086112Y6049376D01*
X48147840Y6111104D01*
X48209568D01*
X48271296Y6172832D01*
X48333024Y6234560D01*
Y6296288D01*
X48394752Y6358016D01*
Y6481472D01*
X48456480Y6543200D01*
Y6975296D01*
X48394752Y7037024D01*
Y7160480D01*
X48333024Y7222208D01*
Y7283936D01*
X48271296Y7345664D01*
X48209568Y7407392D01*
X48147840Y7469120D01*
X48086112Y7530848D01*
X48024384Y7592576D01*
X47962656D01*
X47900928Y7654304D01*
X47777472D01*
X47715744Y7716032D01*
X47160192D01*
X47098464Y7654304D01*
X46975008D01*
X46913280Y7592576D01*
X46851552D01*
X46789824Y7530848D01*
X46728096Y7469120D01*
X46666368Y7407392D01*
X46604640Y7345664D01*
X46542912Y7283936D01*
X46481184Y7222208D01*
Y7098752D01*
X46419456Y7037024D01*
Y6975296D01*
X46357728Y6913568D01*
Y6666656D01*
X45987360D01*
X45925632Y6728384D01*
X45616992D01*
X45555264Y6790112D01*
Y6913568D01*
X45616992Y6975296D01*
Y7098752D01*
X45678720Y7160480D01*
X45740448Y7222208D01*
Y7283936D01*
X45802176Y7345664D01*
Y7469120D01*
X45863904Y7530848D01*
X45925632Y7592576D01*
Y7654304D01*
X45987360Y7716032D01*
X46049088Y7777760D01*
X46110816Y7839488D01*
X46172544Y7901216D01*
X46234272Y7962944D01*
X46296000Y8024672D01*
X46357728D01*
X46419456Y8086400D01*
X46481184Y8148128D01*
X46542912Y8209856D01*
X46604640D01*
X46666368Y8271584D01*
X46851552D01*
X46913280Y8333312D01*
X47283648Y8395040D01*
G37*
%LPD*%
G36*
X50740416Y3024704D02*
X51604608D01*
Y2160512D01*
X50740416D01*
Y3024704D01*
G37*
%LPD*%
G36*
X56542848Y6728384D02*
X57345312D01*
X57407040Y6666656D01*
X57468768D01*
X57530496Y6604928D01*
X57653952D01*
X57715680Y6543200D01*
X57777408Y6481472D01*
X57839136D01*
X57900864Y6419744D01*
X57962592D01*
X58024320Y6358016D01*
X58086048Y6296288D01*
X58147776Y6234560D01*
X58209504Y6172832D01*
X58271232Y6234560D01*
Y6666656D01*
X59011968D01*
Y2777792D01*
X58950240Y2716064D01*
Y1728416D01*
X58888512Y1666688D01*
Y1543232D01*
X58826784Y1481504D01*
Y1419776D01*
X58765056Y1358048D01*
Y1296320D01*
X58703328Y1234592D01*
Y1172864D01*
X58641600Y1111136D01*
Y1049408D01*
X58579872Y987680D01*
X58518144Y925952D01*
X58456416Y864224D01*
X58394688Y802496D01*
X58332960Y740768D01*
X58271232Y679040D01*
X58209504Y617312D01*
X58086048D01*
X58024320Y555584D01*
X57962592D01*
X57900864Y493856D01*
X57777408D01*
X57715680Y432128D01*
X57592224D01*
X57530496Y370400D01*
X56419392D01*
X56357664Y432128D01*
X56172480D01*
X56110752Y493856D01*
X55987296D01*
X55925568Y555584D01*
X55863840Y617312D01*
X55802112D01*
X55740384Y679040D01*
X55678656D01*
X55616928Y740768D01*
X55555200Y802496D01*
X55493472Y864224D01*
X55431744Y925952D01*
X55370016Y987680D01*
Y1049408D01*
X55308288Y1111136D01*
Y1234592D01*
X55246560Y1296320D01*
Y1358048D01*
X55184832Y1419776D01*
Y1790144D01*
X55308288D01*
X55370016Y1728416D01*
X55678656D01*
X55740384Y1666688D01*
X55925568D01*
Y1543232D01*
X55987296Y1481504D01*
Y1419776D01*
X56049024Y1358048D01*
Y1296320D01*
X56110752Y1234592D01*
X56172480Y1172864D01*
X56234208Y1111136D01*
X56295936D01*
X56357664Y1049408D01*
X56481120D01*
X56542848Y987680D01*
X57283584D01*
X57345312Y1049408D01*
X57468768D01*
X57530496Y1111136D01*
X57653952D01*
X57715680Y1172864D01*
X57777408D01*
X57839136Y1234592D01*
X57900864Y1296320D01*
X57962592Y1358048D01*
X58024320Y1419776D01*
Y1481504D01*
X58086048Y1543232D01*
Y1604960D01*
X58147776Y1666688D01*
Y1913600D01*
X58209504Y1975328D01*
Y2654336D01*
X58147776Y2716064D01*
X58086048Y2654336D01*
X58024320Y2592608D01*
X57962592Y2530880D01*
X57900864Y2469152D01*
X57839136Y2407424D01*
X57777408Y2345696D01*
X57715680D01*
X57653952Y2283968D01*
X57530496D01*
X57468768Y2222240D01*
X57160128D01*
X57098400Y2160512D01*
X56789760D01*
X56728032Y2222240D01*
X56419392D01*
X56357664Y2283968D01*
X56295936D01*
X56234208Y2345696D01*
X56110752D01*
X56049024Y2407424D01*
X55987296D01*
X55925568Y2469152D01*
X55863840D01*
X55802112Y2530880D01*
X55740384Y2592608D01*
X55678656Y2654336D01*
Y2716064D01*
X55616928Y2777792D01*
X55555200Y2839520D01*
X55493472Y2901248D01*
X55431744Y2962976D01*
Y3024704D01*
X55370016Y3086432D01*
X55308288Y3148160D01*
Y3271616D01*
X55246560Y3333344D01*
Y3395072D01*
X55184832Y3456800D01*
Y3518528D01*
X55123104Y3580256D01*
Y3703712D01*
X55061376Y3765440D01*
Y5000000D01*
X55123104Y5061728D01*
Y5123456D01*
X55184832Y5185184D01*
Y5432096D01*
X55246560Y5493824D01*
Y5617280D01*
X55308288Y5679008D01*
Y5740736D01*
X55370016Y5802464D01*
Y5864192D01*
X55431744Y5925920D01*
X55493472Y5987648D01*
Y6049376D01*
X55555200Y6111104D01*
X55616928Y6172832D01*
X55678656Y6234560D01*
X55740384Y6296288D01*
X55802112Y6358016D01*
X55863840D01*
X55925568Y6419744D01*
X55987296Y6481472D01*
X56049024Y6543200D01*
X56110752D01*
X56172480Y6604928D01*
X56234208D01*
X56295936Y6666656D01*
X56542848Y6728384D01*
G37*
%LPC*%
G36*
X56789760Y6111104D02*
X57345312D01*
X57407040Y6049376D01*
X57468768D01*
X57530496Y5987648D01*
X57592224D01*
X57653952Y5925920D01*
X57715680Y5864192D01*
X57777408Y5802464D01*
X57839136Y5740736D01*
X57900864Y5679008D01*
X57962592Y5617280D01*
Y5555552D01*
X58024320Y5493824D01*
X58086048Y5432096D01*
Y5308640D01*
X58147776Y5246912D01*
Y5185184D01*
X58209504Y5123456D01*
Y5000000D01*
X58271232Y4938272D01*
Y3888896D01*
X58209504Y3827168D01*
Y3641984D01*
X58147776Y3580256D01*
Y3518528D01*
X58086048Y3456800D01*
X58024320Y3395072D01*
X57962592Y3333344D01*
Y3271616D01*
X57900864Y3209888D01*
Y3148160D01*
X57839136Y3086432D01*
X57777408D01*
X57715680Y3024704D01*
X57653952Y2962976D01*
X57592224D01*
X57530496Y2901248D01*
X57407040D01*
X57345312Y2839520D01*
X57221856D01*
X57160128Y2777792D01*
X56913216D01*
X56851488Y2839520D01*
X56666304D01*
X56604576Y2901248D01*
X56542848D01*
X56481120Y2962976D01*
X56419392D01*
X56357664Y3024704D01*
X56295936Y3086432D01*
X56234208Y3148160D01*
X56172480Y3209888D01*
X56110752Y3271616D01*
Y3333344D01*
X56049024Y3395072D01*
X55987296Y3456800D01*
Y3580256D01*
X55925568Y3641984D01*
Y3703712D01*
X55863840Y3765440D01*
Y4259264D01*
X55802112Y4320992D01*
Y4814816D01*
X55863840Y4876544D01*
Y5000000D01*
X55925568Y5061728D01*
Y5308640D01*
X55987296Y5370368D01*
Y5432096D01*
X56049024Y5493824D01*
X56110752Y5555552D01*
Y5617280D01*
X56172480Y5679008D01*
X56234208Y5740736D01*
X56295936Y5802464D01*
X56357664Y5864192D01*
X56419392Y5925920D01*
X56481120D01*
X56542848Y5987648D01*
X56604576Y6049376D01*
X56789760Y6111104D01*
G37*
%LPD*%
G36*
X61542816Y6728384D02*
X62036640D01*
X62098368Y6666656D01*
X62221824D01*
X62283552Y6604928D01*
X62407008D01*
Y6049376D01*
X62345280Y5987648D01*
Y5925920D01*
X62283552Y5864192D01*
Y5802464D01*
X62221824Y5864192D01*
X62160096D01*
X62098368Y5925920D01*
X61789728D01*
X61728000Y5987648D01*
X61666272Y5925920D01*
X61481088D01*
X61419360Y5864192D01*
X61357632D01*
X61295904Y5802464D01*
X61234176Y5740736D01*
X61172448Y5679008D01*
X61110720Y5617280D01*
Y5555552D01*
X61048992Y5493824D01*
Y5432096D01*
X60987264Y5370368D01*
Y5123456D01*
X60925536Y5061728D01*
Y4753088D01*
X60863808Y4691360D01*
Y2160512D01*
X60123072D01*
Y6666656D01*
X60802080D01*
Y6172832D01*
X60863808Y6111104D01*
X60925536Y6172832D01*
X60987264Y6234560D01*
X61048992Y6296288D01*
Y6358016D01*
X61110720Y6419744D01*
X61172448Y6481472D01*
X61234176Y6543200D01*
X61295904Y6604928D01*
X61357632D01*
X61419360Y6666656D01*
X61542816Y6728384D01*
G37*
%LPD*%
G36*
X64444032Y6728384D02*
X65369952D01*
X65431680Y6666656D01*
X65555136D01*
X65616864Y6604928D01*
X65678592D01*
X65740320Y6543200D01*
X65802048Y6481472D01*
X65863776D01*
X65925504Y6419744D01*
X66048960D01*
X66110688Y6358016D01*
X66172416Y6296288D01*
X66234144Y6234560D01*
X66295872Y6172832D01*
X66357600Y6111104D01*
X66419328Y6049376D01*
X66481056Y5987648D01*
Y5925920D01*
X66542784Y5864192D01*
X66604512Y5802464D01*
Y5740736D01*
X66666240Y5679008D01*
Y5555552D01*
X66727968Y5493824D01*
Y5432096D01*
X66789696Y5370368D01*
Y5185184D01*
X66851424Y5123456D01*
Y4938272D01*
X66913152Y4876544D01*
Y4197536D01*
X63641568D01*
X63579840Y4135808D01*
Y3888896D01*
X63641568Y3827168D01*
Y3765440D01*
X63703296Y3703712D01*
Y3518528D01*
X63765024Y3456800D01*
Y3395072D01*
X63826752Y3333344D01*
Y3271616D01*
X63888480Y3209888D01*
Y3148160D01*
X63950208Y3086432D01*
X64011936Y3024704D01*
X64073664Y2962976D01*
X64135392D01*
X64197120Y2901248D01*
X64258848Y2839520D01*
X64320576D01*
X64382304Y2777792D01*
X64505760D01*
X64567488Y2716064D01*
X64876128D01*
X64937856Y2654336D01*
X64999584D01*
X65061312Y2716064D01*
X65308224D01*
X65369952Y2777792D01*
X65431680D01*
X65493408Y2839520D01*
X65555136Y2901248D01*
X65616864D01*
X65678592Y2962976D01*
X65740320Y3024704D01*
X65802048Y3086432D01*
X65863776Y3148160D01*
X65925504Y3209888D01*
X65987232Y3271616D01*
Y3333344D01*
X66048960Y3395072D01*
Y3456800D01*
X66110688Y3518528D01*
Y3580256D01*
X66419328D01*
X66481056Y3518528D01*
X66851424D01*
Y3395072D01*
X66789696Y3333344D01*
Y3148160D01*
X66727968Y3086432D01*
X66666240Y3024704D01*
Y2962976D01*
X66604512Y2901248D01*
Y2839520D01*
X66542784Y2777792D01*
X66481056Y2716064D01*
X66419328Y2654336D01*
X66357600Y2592608D01*
X66295872Y2530880D01*
X66234144Y2469152D01*
X66172416Y2407424D01*
X66110688Y2345696D01*
X66048960D01*
X65987232Y2283968D01*
X65863776D01*
X65802048Y2222240D01*
X65740320D01*
X65678592Y2160512D01*
X65493408D01*
X65431680Y2098784D01*
X65123040D01*
X65061312Y2037056D01*
X64752672D01*
X64690944Y2098784D01*
X64382304D01*
X64320576Y2160512D01*
X64197120D01*
X64135392Y2222240D01*
X64011936D01*
X63950208Y2283968D01*
X63888480D01*
X63826752Y2345696D01*
X63765024D01*
X63703296Y2407424D01*
X63641568D01*
X63579840Y2469152D01*
X63518112Y2530880D01*
X63456384Y2592608D01*
X63394656Y2654336D01*
X63332928Y2716064D01*
X63271200Y2777792D01*
X63209472Y2839520D01*
Y2901248D01*
X63147744Y2962976D01*
X63086016Y3024704D01*
Y3086432D01*
X63024288Y3148160D01*
Y3209888D01*
X62962560Y3271616D01*
Y3333344D01*
X62900832Y3395072D01*
Y3580256D01*
X62839104Y3641984D01*
Y4074080D01*
X62777376Y4135808D01*
Y4567904D01*
X62839104Y4629632D01*
Y5061728D01*
X62900832Y5123456D01*
Y5308640D01*
X62962560Y5370368D01*
Y5432096D01*
X63024288Y5493824D01*
Y5617280D01*
X63086016Y5679008D01*
Y5740736D01*
X63147744Y5802464D01*
X63209472Y5864192D01*
Y5925920D01*
X63271200Y5987648D01*
Y6049376D01*
X63332928Y6111104D01*
X63394656D01*
X63456384Y6172832D01*
X63518112Y6234560D01*
X63579840Y6296288D01*
X63641568Y6358016D01*
X63703296Y6419744D01*
X63765024D01*
X63826752Y6481472D01*
X63888480D01*
X63950208Y6543200D01*
X64011936D01*
X64073664Y6604928D01*
X64197120D01*
X64258848Y6666656D01*
X64444032Y6728384D01*
G37*
%LPC*%
G36*
X64567488Y6111104D02*
X65246496D01*
X65308224Y6049376D01*
X65369952D01*
X65431680Y5987648D01*
X65493408Y5925920D01*
X65555136D01*
X65616864Y5864192D01*
X65678592Y5802464D01*
X65740320Y5740736D01*
X65802048Y5679008D01*
X65863776Y5617280D01*
X65925504Y5555552D01*
Y5432096D01*
X65987232Y5370368D01*
X66048960Y5308640D01*
Y5123456D01*
X66110688Y5061728D01*
Y4814816D01*
X63641568D01*
Y5185184D01*
X63703296Y5246912D01*
Y5308640D01*
X63765024Y5370368D01*
Y5432096D01*
X63826752Y5493824D01*
Y5555552D01*
X63888480Y5617280D01*
X63950208Y5679008D01*
X64011936Y5740736D01*
Y5802464D01*
X64073664D01*
X64135392Y5864192D01*
X64197120Y5925920D01*
X64258848Y5987648D01*
X64320576D01*
X64382304Y6049376D01*
X64567488Y6111104D01*
G37*
%LPD*%
G36*
X69135360Y6728384D02*
X70308192D01*
X70369920Y6666656D01*
X70555104D01*
X70616832Y6604928D01*
X70678560D01*
X70740288Y6543200D01*
X70863744D01*
X70925472Y6481472D01*
X70987200D01*
X71048928Y6419744D01*
X71110656Y6358016D01*
X71172384Y6296288D01*
X71234112Y6234560D01*
X71295840Y6172832D01*
Y6111104D01*
X71357568Y6049376D01*
X71419296Y5987648D01*
Y5740736D01*
X71481024Y5679008D01*
Y2901248D01*
X71542752Y2839520D01*
Y2530880D01*
X71604480Y2469152D01*
Y2345696D01*
X71666208Y2283968D01*
X71727936Y2222240D01*
Y2160512D01*
X70925472D01*
Y2222240D01*
X70863744Y2283968D01*
Y2407424D01*
X70802016Y2469152D01*
Y2592608D01*
X70740288Y2654336D01*
X70678560Y2592608D01*
X70616832D01*
X70555104Y2530880D01*
X70493376Y2469152D01*
X70431648D01*
X70369920Y2407424D01*
X70308192Y2345696D01*
X70246464Y2283968D01*
X70123008D01*
X70061280Y2222240D01*
X69937824D01*
X69876096Y2160512D01*
X69690912D01*
X69629184Y2098784D01*
X69382272D01*
X69320544Y2037056D01*
X69011904D01*
X68950176Y2098784D01*
X68703264D01*
X68641536Y2160512D01*
X68394624D01*
X68332896Y2222240D01*
X68271168D01*
X68209440Y2283968D01*
X68147712Y2345696D01*
X68085984D01*
X68024256Y2407424D01*
X67962528Y2469152D01*
X67900800Y2530880D01*
X67839072Y2592608D01*
X67777344Y2654336D01*
X67715616Y2716064D01*
Y2901248D01*
X67653888Y2962976D01*
Y3024704D01*
X67592160Y3086432D01*
Y3518528D01*
X67653888Y3580256D01*
Y3765440D01*
X67715616Y3827168D01*
Y3888896D01*
X67777344Y3950624D01*
Y4012352D01*
X67839072Y4074080D01*
X67900800Y4135808D01*
Y4197536D01*
X67962528Y4259264D01*
X68024256Y4320992D01*
X68085984D01*
X68147712Y4382720D01*
X68209440Y4444448D01*
X68271168D01*
X68332896Y4506176D01*
X68394624D01*
X68456352Y4567904D01*
X68579808D01*
X68641536Y4629632D01*
X68764992D01*
X68826720Y4691360D01*
X69197088D01*
X69258816Y4753088D01*
X69505728D01*
X69567456Y4814816D01*
X69937824D01*
X69999552Y4876544D01*
X70246464D01*
X70308192Y4938272D01*
X70555104D01*
X70616832Y5000000D01*
X70678560D01*
X70740288Y5061728D01*
Y5246912D01*
X70678560Y5308640D01*
Y5617280D01*
X70616832Y5679008D01*
Y5740736D01*
X70555104Y5802464D01*
X70493376Y5864192D01*
X70431648Y5925920D01*
X70369920D01*
X70308192Y5987648D01*
X70246464D01*
X70184736Y6049376D01*
X70061280D01*
X69999552Y6111104D01*
X69320544D01*
X69258816Y6049376D01*
X69135360D01*
X69073632Y5987648D01*
X68950176D01*
X68888448Y5925920D01*
X68826720D01*
X68764992Y5864192D01*
X68703264Y5802464D01*
X68641536Y5740736D01*
Y5679008D01*
X68579808Y5617280D01*
X68518080Y5555552D01*
Y5432096D01*
X68456352Y5370368D01*
Y5246912D01*
X68332896D01*
X68271168Y5308640D01*
X67962528D01*
X67900800Y5370368D01*
X67715616D01*
Y5432096D01*
X67777344Y5493824D01*
Y5617280D01*
X67839072Y5679008D01*
Y5802464D01*
X67900800Y5864192D01*
Y5925920D01*
X67962528Y5987648D01*
X68024256Y6049376D01*
Y6111104D01*
X68085984Y6172832D01*
X68147712Y6234560D01*
X68209440Y6296288D01*
X68271168Y6358016D01*
X68332896D01*
X68394624Y6419744D01*
X68456352Y6481472D01*
X68518080D01*
X68579808Y6543200D01*
X68703264D01*
X68764992Y6604928D01*
X68826720D01*
X68888448Y6666656D01*
X69135360Y6728384D01*
G37*
%LPC*%
G36*
X70616832Y4382720D02*
X70740288D01*
Y4012352D01*
X70678560Y3950624D01*
Y3580256D01*
X70616832Y3518528D01*
Y3395072D01*
X70555104Y3333344D01*
Y3271616D01*
X70493376Y3209888D01*
X70431648Y3148160D01*
X70369920Y3086432D01*
X70308192Y3024704D01*
X70246464Y2962976D01*
X70184736Y2901248D01*
X70123008Y2839520D01*
X69999552D01*
X69937824Y2777792D01*
X69814368D01*
X69752640Y2716064D01*
X69629184D01*
X69567456Y2654336D01*
X69011904D01*
X68950176Y2716064D01*
X68826720D01*
X68764992Y2777792D01*
X68703264D01*
X68641536Y2839520D01*
X68579808Y2901248D01*
X68518080Y2962976D01*
Y3024704D01*
X68456352Y3086432D01*
Y3148160D01*
X68394624Y3209888D01*
Y3518528D01*
X68456352Y3580256D01*
Y3641984D01*
X68518080Y3703712D01*
Y3765440D01*
X68579808Y3827168D01*
X68641536Y3888896D01*
X68703264D01*
X68764992Y3950624D01*
X68826720D01*
X68888448Y4012352D01*
X69011904D01*
X69073632Y4074080D01*
X69320544D01*
X69382272Y4135808D01*
X69629184D01*
X69690912Y4197536D01*
X69999552D01*
X70061280Y4259264D01*
X70308192D01*
X70369920Y4320992D01*
X70616832Y4382720D01*
G37*
%LPD*%
G36*
X73518048Y8209856D02*
X73579776D01*
Y6728384D01*
X73641504Y6666656D01*
X74320512D01*
Y6049376D01*
X73641504D01*
X73579776Y5987648D01*
Y3024704D01*
X73641504Y2962976D01*
X73703232Y2901248D01*
X73764960Y2839520D01*
X74320512D01*
Y2716064D01*
X74382240Y2654336D01*
Y2407424D01*
X74443968Y2345696D01*
Y2222240D01*
X74382240Y2160512D01*
X74258784D01*
X74197056Y2098784D01*
X73641504D01*
X73579776Y2160512D01*
X73332864D01*
X73271136Y2222240D01*
X73209408D01*
X73147680Y2283968D01*
X73085952Y2345696D01*
X73024224Y2407424D01*
X72962496Y2469152D01*
X72900768Y2530880D01*
Y2654336D01*
X72839040Y2716064D01*
Y3271616D01*
X72777312Y3333344D01*
Y5987648D01*
X72715584Y6049376D01*
X72221760D01*
Y6666656D01*
X72715584D01*
X72777312Y6728384D01*
Y7777760D01*
X72839040D01*
X72900768Y7839488D01*
X72962496D01*
X73024224Y7901216D01*
X73085952Y7962944D01*
X73147680D01*
X73209408Y8024672D01*
X73271136D01*
X73332864Y8086400D01*
X73394592Y8148128D01*
X73518048Y8209856D01*
G37*
M02*
