G04TEST9 - Text*
%FSLAX26Y26*%
%MOMM*%
%TF.CreationDate,2025-01-24T11:32:54+08*%
G01*
G75*
%LPD*%
G36*
X1876516Y16678915D02*
X2617246D01*
Y16629533D01*
X2666628Y16580151D01*
Y16530769D01*
X2716010Y16481387D01*
Y16382623D01*
X2765392Y16333241D01*
Y16283859D01*
X2814774Y16234477D01*
Y16135713D01*
X2864156Y16086331D01*
Y16036949D01*
X2913538Y15987567D01*
Y15888803D01*
X2962920Y15839421D01*
Y15790039D01*
X3012302Y15740657D01*
Y15641893D01*
X3061684Y15592511D01*
Y15543129D01*
X3111066Y15493747D01*
Y15394983D01*
X3160448Y15345601D01*
Y15296219D01*
X3209830Y15246837D01*
Y15148073D01*
X3259212Y15098691D01*
Y15049309D01*
X3308594Y14999927D01*
Y14901163D01*
X3357976Y14851781D01*
Y14802399D01*
X3407358Y14753017D01*
Y14654253D01*
X3456740Y14604871D01*
Y14555489D01*
X3506122Y14506107D01*
Y14407343D01*
X3555504Y14357961D01*
Y14308579D01*
X3604886Y14259197D01*
Y14209815D01*
X3654268Y14160433D01*
Y14061669D01*
X3703650Y14012287D01*
Y13962905D01*
X3753032Y13913523D01*
Y13814759D01*
X3802414Y13765377D01*
Y13715995D01*
X3851796Y13666613D01*
Y13567849D01*
X3901178Y13518467D01*
Y13469085D01*
X3950560Y13419703D01*
Y13320939D01*
X3999942Y13271557D01*
Y13222175D01*
X4049324Y13172793D01*
Y13074029D01*
X4098706Y13024647D01*
Y12975265D01*
X4148088Y12925883D01*
Y12827119D01*
X4197470Y12777737D01*
Y12728355D01*
X4246852Y12678973D01*
Y12580209D01*
X4296234Y12530827D01*
Y12481445D01*
X4345616Y12432063D01*
Y12333299D01*
X4394998Y12283917D01*
Y12234535D01*
X4444380Y12185153D01*
Y12086389D01*
X4493762Y12037007D01*
Y11987625D01*
X4543144Y11938243D01*
Y11740715D01*
X3851796D01*
Y11790097D01*
X3802414Y11839479D01*
Y11938243D01*
X3753032Y11987625D01*
Y12037007D01*
X3703650Y12086389D01*
Y12185153D01*
X3654268Y12234535D01*
Y12333299D01*
X3604886Y12382681D01*
Y12432063D01*
X3555504Y12481445D01*
Y12580209D01*
X3506122Y12629591D01*
Y12728355D01*
X3456740Y12777737D01*
Y12876501D01*
X3407358Y12925883D01*
Y12975265D01*
X3357976Y13024647D01*
Y13123411D01*
X3308594Y13172793D01*
X3259212Y13222175D01*
X1283932D01*
X1234550Y13172793D01*
X1185168Y13123411D01*
Y13024647D01*
X1135786Y12975265D01*
Y12925883D01*
X1086404Y12876501D01*
Y12777737D01*
X1037022Y12728355D01*
Y12629591D01*
X987640Y12580209D01*
Y12530827D01*
X938258Y12481445D01*
Y12382681D01*
X888876Y12333299D01*
Y12234535D01*
X839494Y12185153D01*
Y12086389D01*
X790112Y12037007D01*
Y11987625D01*
X740730Y11938243D01*
Y11839479D01*
X691348Y11790097D01*
Y11740715D01*
X0D01*
Y11790097D01*
X49382Y11839479D01*
Y11888861D01*
X98764Y11938243D01*
Y12037007D01*
X148146Y12086389D01*
Y12185153D01*
X197528Y12234535D01*
Y12283917D01*
X246910Y12333299D01*
Y12432063D01*
X296292Y12481445D01*
Y12580209D01*
X345674Y12629591D01*
Y12678973D01*
X395056Y12728355D01*
Y12827119D01*
X444438Y12876501D01*
Y12925883D01*
X493820Y12975265D01*
Y13074029D01*
X543202Y13123411D01*
Y13222175D01*
X592584Y13271557D01*
Y13320939D01*
X641966Y13370321D01*
Y13469085D01*
X691348Y13518467D01*
Y13617231D01*
X740730Y13666613D01*
Y13715995D01*
X790112Y13765377D01*
Y13864141D01*
X839494Y13913523D01*
Y14012287D01*
X888876Y14061669D01*
Y14111051D01*
X938258Y14160433D01*
Y14259197D01*
X987640Y14308579D01*
Y14357961D01*
X1037022Y14407343D01*
Y14506107D01*
X1086404Y14555489D01*
Y14654253D01*
X1135786Y14703635D01*
Y14753017D01*
X1185168Y14802399D01*
Y14901163D01*
X1234550Y14950545D01*
Y15049309D01*
X1283932Y15098691D01*
Y15148073D01*
X1333314Y15197455D01*
Y15296219D01*
X1382696Y15345601D01*
Y15394983D01*
X1432078Y15444365D01*
Y15543129D01*
X1481460Y15592511D01*
Y15691275D01*
X1530842Y15740657D01*
Y15790039D01*
X1580224Y15839421D01*
Y15938185D01*
X1629606Y15987567D01*
Y16086331D01*
X1678988Y16135713D01*
Y16185095D01*
X1728370Y16234477D01*
Y16333241D01*
X1777752Y16382623D01*
Y16481387D01*
X1827134Y16530769D01*
Y16580151D01*
X1876516Y16629533D01*
Y16678915D01*
G37*
%LPC*%
G36*
X2222190Y16135713D02*
Y16086331D01*
X2271572Y16036949D01*
Y15987567D01*
X2320954Y15938185D01*
Y15839421D01*
X2370336Y15790039D01*
Y15641893D01*
X2419718Y15592511D01*
Y15543129D01*
X2469100Y15493747D01*
Y15394983D01*
X2518482Y15345601D01*
Y15246837D01*
X2567864Y15197455D01*
Y15148073D01*
X2617246Y15098691D01*
Y15049309D01*
X2666628Y14999927D01*
Y14901163D01*
X2716010Y14851781D01*
Y14753017D01*
X2765392Y14703635D01*
Y14604871D01*
X2814774Y14555489D01*
Y14456725D01*
X2864156Y14407343D01*
Y14357961D01*
X2913538Y14308579D01*
Y14209815D01*
X2962920Y14160433D01*
Y14061669D01*
X3012302Y14012287D01*
Y13913523D01*
X3061684Y13864141D01*
Y13814759D01*
X3111066Y13765377D01*
X1432078D01*
Y13864141D01*
X1481460Y13913523D01*
Y13962905D01*
X1530842Y14012287D01*
Y14111051D01*
X1580224Y14160433D01*
Y14209815D01*
X1629606Y14259197D01*
Y14357961D01*
X1678988Y14407343D01*
Y14506107D01*
X1728370Y14555489D01*
Y14604871D01*
X1777752Y14654253D01*
Y14753017D01*
X1827134Y14802399D01*
Y14851781D01*
X1876516Y14901163D01*
Y14999927D01*
X1925898Y15049309D01*
Y15098691D01*
X1975280Y15148073D01*
Y15345601D01*
X2024662Y15394983D01*
Y15444365D01*
X2074044Y15493747D01*
Y15592511D01*
X2123426Y15641893D01*
Y15839421D01*
X2172808Y15888803D01*
X2222190Y16135713D01*
G37*
%LPD*%
G36*
X5086346Y16678915D02*
X7308536D01*
X7357918Y16629533D01*
X7654210D01*
X7703592Y16580151D01*
X7752974D01*
X7802356Y16530769D01*
X7901120D01*
X7950502Y16481387D01*
X7999884D01*
X8049266Y16432005D01*
X8098648Y16382623D01*
X8148030D01*
X8197412Y16333241D01*
X8246794Y16283859D01*
X8296176Y16234477D01*
X8345558Y16185095D01*
Y16135713D01*
X8394940Y16086331D01*
X8444322Y16036949D01*
X8493704Y15987567D01*
Y15888803D01*
X8543086Y15839421D01*
Y15691275D01*
X8592468Y15641893D01*
Y15246837D01*
X8543086Y15197455D01*
Y15098691D01*
X8493704Y15049309D01*
Y14950545D01*
X8444322Y14901163D01*
Y14851781D01*
X8394940Y14802399D01*
X8345558Y14753017D01*
Y14703635D01*
X8296176Y14654253D01*
X8246794Y14604871D01*
X8197412Y14555489D01*
X8148030Y14506107D01*
X8098648D01*
X8049266Y14456725D01*
X7999884Y14407343D01*
Y14357961D01*
X8049266Y14308579D01*
X8098648D01*
X8148030Y14259197D01*
X8197412D01*
X8246794Y14209815D01*
X8296176D01*
X8345558Y14160433D01*
X8394940Y14111051D01*
X8444322Y14061669D01*
X8493704D01*
X8543086Y14012287D01*
Y13962905D01*
X8592468Y13913523D01*
X8641850Y13864141D01*
Y13814759D01*
X8691232Y13765377D01*
X8740614Y13715995D01*
Y13617231D01*
X8789996Y13567849D01*
Y13419703D01*
X8839378Y13370321D01*
Y12975265D01*
X8789996Y12925883D01*
Y12728355D01*
X8740614Y12678973D01*
Y12629591D01*
X8691232Y12580209D01*
Y12530827D01*
X8641850Y12481445D01*
Y12432063D01*
X8592468Y12382681D01*
X8543086Y12333299D01*
Y12283917D01*
X8493704Y12234535D01*
X8444322Y12185153D01*
X8394940Y12135771D01*
X8345558Y12086389D01*
X8296176Y12037007D01*
X8246794D01*
X8197412Y11987625D01*
X8148030Y11938243D01*
X8098648D01*
X8049266Y11888861D01*
X7950502D01*
X7901120Y11839479D01*
X7703592D01*
X7654210Y11790097D01*
X7456682D01*
X7407300Y11740715D01*
X5086346D01*
Y16678915D01*
G37*
%LPC*%
G36*
X5777694Y16086331D02*
X7357918D01*
X7407300Y16036949D01*
X7506064D01*
X7555446Y15987567D01*
X7654210D01*
X7703592Y15938185D01*
X7752974Y15888803D01*
X7802356Y15839421D01*
Y15790039D01*
X7851738Y15740657D01*
X7901120Y15691275D01*
Y15592511D01*
X7950502Y15543129D01*
Y15148073D01*
X7901120Y15098691D01*
Y14999927D01*
X7851738Y14950545D01*
X7802356Y14901163D01*
X7752974Y14851781D01*
X7703592Y14802399D01*
X7654210Y14753017D01*
X7604828D01*
X7555446Y14703635D01*
X7506064D01*
X7456682Y14654253D01*
X7259154D01*
X7209772Y14604871D01*
X5777694D01*
Y16086331D01*
G37*
%LPC*%
G36*
X5777694Y14012287D02*
X7407300D01*
X7456682Y13962905D01*
X7604828D01*
X7654210Y13913523D01*
X7703592D01*
X7752974Y13864141D01*
X7802356D01*
X7851738Y13814759D01*
X7901120Y13765377D01*
X7950502Y13715995D01*
X7999884Y13666613D01*
X8049266Y13617231D01*
Y13567849D01*
X8098648Y13518467D01*
Y13469085D01*
X8148030Y13419703D01*
Y12925883D01*
X8098648Y12876501D01*
Y12827119D01*
X8049266Y12777737D01*
Y12728355D01*
X7999884Y12678973D01*
Y12629591D01*
X7950502Y12580209D01*
X7901120Y12530827D01*
X7851738D01*
X7802356Y12481445D01*
X7752974Y12432063D01*
X7654210D01*
X7604828Y12382681D01*
X7506064D01*
X7456682Y12333299D01*
X5777694D01*
Y14012287D01*
G37*
%LPD*%
G36*
X11555388Y16777679D02*
X11999826D01*
X12049208Y16728297D01*
X12345500D01*
X12394882Y16678915D01*
X12592410D01*
X12641792Y16629533D01*
X12740556D01*
X12789938Y16580151D01*
X12839320D01*
X12888702Y16530769D01*
X12938084Y16481387D01*
X12987466D01*
X13036848Y16432005D01*
X13086230D01*
X13135612Y16382623D01*
X13184994Y16333241D01*
X13234376Y16283859D01*
X13283758Y16234477D01*
X13333140Y16185095D01*
X13382522Y16135713D01*
X13431904Y16086331D01*
Y16036949D01*
X13481286Y15987567D01*
X13530668Y15938185D01*
X13580050Y15888803D01*
Y15839421D01*
X13629432Y15790039D01*
Y15740657D01*
X13678814Y15691275D01*
X13728196Y15641893D01*
Y15592511D01*
X13777578Y15543129D01*
Y15444365D01*
X13826960Y15394983D01*
Y15345601D01*
X13728196D01*
X13678814Y15296219D01*
X13530668D01*
X13481286Y15246837D01*
X13333140D01*
X13283758Y15197455D01*
X13184994D01*
X13135612Y15246837D01*
Y15296219D01*
X13086230Y15345601D01*
Y15444365D01*
X13036848Y15493747D01*
Y15543129D01*
X12987466Y15592511D01*
Y15641893D01*
X12938084Y15691275D01*
X12888702Y15740657D01*
X12839320Y15790039D01*
X12789938Y15839421D01*
X12740556Y15888803D01*
X12691174Y15938185D01*
X12641792Y15987567D01*
X12592410Y16036949D01*
X12543028D01*
X12493646Y16086331D01*
X12444264D01*
X12394882Y16135713D01*
X12246736D01*
X12197354Y16185095D01*
X11999826D01*
X11950444Y16234477D01*
X11752916D01*
X11703534Y16185095D01*
X11506006D01*
X11456624Y16135713D01*
X11259096D01*
X11209714Y16086331D01*
X11110950D01*
X11061568Y16036949D01*
X11012186Y15987567D01*
X10962804D01*
X10913422Y15938185D01*
X10864040Y15888803D01*
X10814658D01*
X10765276Y15839421D01*
X10715894Y15790039D01*
X10666512Y15740657D01*
X10617130Y15691275D01*
X10567748Y15641893D01*
Y15592511D01*
X10518366Y15543129D01*
Y15493747D01*
X10468984Y15444365D01*
X10419602Y15394983D01*
Y15345601D01*
X10370220Y15296219D01*
Y15148073D01*
X10320838Y15098691D01*
Y14999927D01*
X10271456Y14950545D01*
Y14901163D01*
X10222074Y14851781D01*
Y13814759D01*
X10271456Y13765377D01*
Y13567849D01*
X10320838Y13518467D01*
Y13320939D01*
X10370220Y13271557D01*
Y13172793D01*
X10419602Y13123411D01*
Y13074029D01*
X10468984Y13024647D01*
Y12975265D01*
X10518366Y12925883D01*
X10567748Y12876501D01*
Y12827119D01*
X10617130Y12777737D01*
Y12728355D01*
X10666512Y12678973D01*
X10715894Y12629591D01*
X10765276Y12580209D01*
X10814658Y12530827D01*
X10864040D01*
X10913422Y12481445D01*
X10962804Y12432063D01*
X11012186D01*
X11061568Y12382681D01*
X11110950D01*
X11160332Y12333299D01*
X11209714D01*
X11259096Y12283917D01*
X11456624D01*
X11506006Y12234535D01*
X12147972D01*
X12197354Y12283917D01*
X12296118D01*
X12345500Y12333299D01*
X12394882D01*
X12444264Y12382681D01*
X12543028D01*
X12592410Y12432063D01*
X12641792Y12481445D01*
X12691174D01*
X12740556Y12530827D01*
X12789938Y12580209D01*
X12839320Y12629591D01*
X12888702Y12678973D01*
X12938084Y12728355D01*
X12987466Y12777737D01*
Y12827119D01*
X13036848Y12876501D01*
Y12925883D01*
X13086230Y12975265D01*
X13135612Y13024647D01*
Y13074029D01*
X13184994Y13123411D01*
Y13320939D01*
X13234376Y13370321D01*
Y13469085D01*
X13333140D01*
X13382522Y13419703D01*
X13530668D01*
X13580050Y13370321D01*
X13728196D01*
X13777578Y13320939D01*
X13876342D01*
Y13222175D01*
X13826960Y13172793D01*
Y13074029D01*
X13777578Y13024647D01*
Y12925883D01*
X13728196Y12876501D01*
Y12827119D01*
X13678814Y12777737D01*
Y12728355D01*
X13629432Y12678973D01*
Y12629591D01*
X13580050Y12580209D01*
X13530668Y12530827D01*
Y12481445D01*
X13481286Y12432063D01*
Y12382681D01*
X13431904Y12333299D01*
X13382522Y12283917D01*
X13333140Y12234535D01*
X13283758Y12185153D01*
X13234376Y12135771D01*
X13184994Y12086389D01*
X13135612D01*
X13086230Y12037007D01*
X13036848Y11987625D01*
X12987466D01*
X12938084Y11938243D01*
X12888702Y11888861D01*
X12839320D01*
X12789938Y11839479D01*
X12691174D01*
X12641792Y11790097D01*
X12592410D01*
X12543028Y11740715D01*
X12444264D01*
X12394882Y11691333D01*
X12098590D01*
X12049208Y11641951D01*
X11703534D01*
X11654152Y11691333D01*
X11357860D01*
X11308478Y11740715D01*
X11061568D01*
X11012186Y11790097D01*
X10913422D01*
X10864040Y11839479D01*
X10814658D01*
X10765276Y11888861D01*
X10715894D01*
X10666512Y11938243D01*
X10617130D01*
X10567748Y11987625D01*
X10518366Y12037007D01*
X10468984Y12086389D01*
X10419602D01*
X10370220Y12135771D01*
X10320838Y12185153D01*
X10271456Y12234535D01*
X10222074Y12283917D01*
X10172692Y12333299D01*
X10123310Y12382681D01*
X10073928Y12432063D01*
X10024546Y12481445D01*
Y12530827D01*
X9975164Y12580209D01*
X9925782Y12629591D01*
Y12678973D01*
X9876400Y12728355D01*
Y12777737D01*
X9827018Y12827119D01*
Y12876501D01*
X9777636Y12925883D01*
Y12975265D01*
X9728254Y13024647D01*
Y13123411D01*
X9678872Y13172793D01*
Y13370321D01*
X9629490Y13419703D01*
Y13518467D01*
X9580108Y13567849D01*
Y13666613D01*
X9530726Y13715995D01*
Y14753017D01*
X9580108Y14802399D01*
Y14950545D01*
X9629490Y14999927D01*
Y15098691D01*
X9678872Y15148073D01*
Y15296219D01*
X9728254Y15345601D01*
Y15394983D01*
X9777636Y15444365D01*
Y15493747D01*
X9827018Y15543129D01*
Y15592511D01*
X9876400Y15641893D01*
Y15691275D01*
X9925782Y15740657D01*
Y15790039D01*
X9975164Y15839421D01*
X10024546Y15888803D01*
X10073928Y15938185D01*
X10123310Y15987567D01*
Y16036949D01*
X10172692Y16086331D01*
X10222074Y16135713D01*
X10271456Y16185095D01*
X10320838Y16234477D01*
X10370220Y16283859D01*
X10419602Y16333241D01*
X10468984Y16382623D01*
X10518366D01*
X10567748Y16432005D01*
X10617130D01*
X10666512Y16481387D01*
X10715894D01*
X10765276Y16530769D01*
X10814658D01*
X10864040Y16580151D01*
X10913422D01*
X10962804Y16629533D01*
X11061568D01*
X11110950Y16678915D01*
X11357860D01*
X11407242Y16728297D01*
X11555388Y16777679D01*
G37*
%LPD*%
G36*
X14715836Y16678915D02*
X16987408D01*
X17036790Y16629533D01*
X17382464D01*
X17431846Y16580151D01*
X17481228D01*
X17530610Y16530769D01*
X17579992D01*
X17629374Y16481387D01*
X17728138D01*
X17777520Y16432005D01*
X17826902Y16382623D01*
X17876284D01*
X17925666Y16333241D01*
X17975048Y16283859D01*
X18024430Y16234477D01*
X18073812Y16185095D01*
X18123194D01*
X18172576Y16135713D01*
X18221958Y16086331D01*
X18271340Y16036949D01*
X18320722Y15987567D01*
Y15938185D01*
X18370104Y15888803D01*
X18419486Y15839421D01*
Y15790039D01*
X18468868Y15740657D01*
Y15691275D01*
X18518250Y15641893D01*
Y15592511D01*
X18567632Y15543129D01*
Y15444365D01*
X18617014Y15394983D01*
Y15345601D01*
X18666396Y15296219D01*
Y15098691D01*
X18715778Y15049309D01*
Y14999927D01*
X18765160Y14950545D01*
Y14456725D01*
X18814542Y14407343D01*
Y14012287D01*
X18765160Y13962905D01*
Y13617231D01*
X18715778Y13567849D01*
Y13370321D01*
X18666396Y13320939D01*
Y13172793D01*
X18617014Y13123411D01*
Y13074029D01*
X18567632Y13024647D01*
Y12975265D01*
X18518250Y12925883D01*
Y12827119D01*
X18468868Y12777737D01*
Y12728355D01*
X18419486Y12678973D01*
X18370104Y12629591D01*
Y12580209D01*
X18320722Y12530827D01*
X18271340Y12481445D01*
Y12432063D01*
X18221958Y12382681D01*
X18172576Y12333299D01*
X18123194Y12283917D01*
X18073812Y12234535D01*
X18024430Y12185153D01*
X17975048Y12135771D01*
X17925666Y12086389D01*
X17876284D01*
X17826902Y12037007D01*
X17777520D01*
X17728138Y11987625D01*
X17678756Y11938243D01*
X17579992D01*
X17530610Y11888861D01*
X17431846D01*
X17382464Y11839479D01*
X17234318D01*
X17184936Y11790097D01*
X17036790D01*
X16987408Y11740715D01*
X14715836D01*
Y16678915D01*
G37*
%LPC*%
G36*
X15357802Y16086331D02*
X16987408D01*
X17036790Y16036949D01*
X17184936D01*
X17234318Y15987567D01*
X17333082D01*
X17382464Y15938185D01*
X17431846Y15888803D01*
X17481228Y15839421D01*
X17530610D01*
X17579992Y15790039D01*
X17629374Y15740657D01*
X17678756Y15691275D01*
X17728138Y15641893D01*
X17777520Y15592511D01*
Y15543129D01*
X17826902Y15493747D01*
X17876284Y15444365D01*
Y15394983D01*
X17925666Y15345601D01*
Y15296219D01*
X17975048Y15246837D01*
Y15148073D01*
X18024430Y15098691D01*
Y15049309D01*
X18073812Y14999927D01*
Y14802399D01*
X18123194Y14753017D01*
Y13864141D01*
X18073812Y13814759D01*
Y13518467D01*
X18024430Y13469085D01*
Y13419703D01*
X17975048Y13370321D01*
Y13222175D01*
X17925666Y13172793D01*
Y13024647D01*
X17876284Y12975265D01*
X17826902Y12925883D01*
Y12876501D01*
X17777520Y12827119D01*
X17728138Y12777737D01*
X17678756Y12728355D01*
X17629374Y12678973D01*
X17579992Y12629591D01*
X17530610Y12580209D01*
X17481228D01*
X17431846Y12530827D01*
X17382464D01*
X17333082Y12481445D01*
X17283700Y12432063D01*
X17135554D01*
X17086172Y12382681D01*
X16938026D01*
X16888644Y12333299D01*
X15357802D01*
Y16086331D01*
G37*
%LPD*%
G36*
X19703418Y16678915D02*
X23308304D01*
Y16086331D01*
X20394766D01*
X20345384Y16036949D01*
Y14654253D01*
X20394766Y14604871D01*
X23110776D01*
Y14012287D01*
X20394766D01*
X20345384Y13962905D01*
Y12382681D01*
X20394766Y12333299D01*
X23407068D01*
Y11740715D01*
X19703418D01*
Y16678915D01*
G37*
%LPD*%
G36*
X24295944Y16678915D02*
X27653920D01*
Y16086331D01*
X25036674D01*
X24987292Y16036949D01*
Y14604871D01*
X25036674Y14555489D01*
X27308246D01*
Y14012287D01*
X25036674D01*
X24987292Y13962905D01*
Y11740715D01*
X24295944D01*
Y16678915D01*
G37*
%LPD*%
G36*
X30518076Y16777679D02*
X31160042D01*
X31209424Y16728297D01*
X31456334D01*
X31505716Y16678915D01*
X31653862D01*
X31703244Y16629533D01*
X31802008D01*
X31851390Y16580151D01*
X31900772D01*
X31950154Y16530769D01*
X31999536D01*
X32048918Y16481387D01*
X32098300Y16432005D01*
X32147682D01*
X32197064Y16382623D01*
X32246446Y16333241D01*
X32295828D01*
X32345210Y16283859D01*
X32394592Y16234477D01*
X32443974Y16185095D01*
X32493356Y16135713D01*
Y16086331D01*
X32542738Y16036949D01*
X32592120Y15987567D01*
X32641502Y15938185D01*
Y15888803D01*
X32690884Y15839421D01*
Y15790039D01*
X32740266Y15740657D01*
Y15691275D01*
X32789648Y15641893D01*
Y15493747D01*
X32839030Y15444365D01*
Y15296219D01*
X32789648D01*
X32740266Y15246837D01*
X32592120D01*
X32542738Y15197455D01*
X32394592D01*
X32345210Y15148073D01*
X32295828D01*
Y15197455D01*
X32246446Y15246837D01*
Y15296219D01*
X32197064Y15345601D01*
X32147682Y15394983D01*
Y15493747D01*
X32098300Y15543129D01*
Y15592511D01*
X32048918Y15641893D01*
Y15691275D01*
X31999536Y15740657D01*
X31950154Y15790039D01*
X31900772Y15839421D01*
X31851390Y15888803D01*
X31802008Y15938185D01*
X31752626Y15987567D01*
X31703244D01*
X31653862Y16036949D01*
X31604480Y16086331D01*
X31505716D01*
X31456334Y16135713D01*
X31308188D01*
X31258806Y16185095D01*
X30962514D01*
X30913132Y16234477D01*
X30764986D01*
X30715604Y16185095D01*
X30369930D01*
X30320548Y16135713D01*
X30172402D01*
X30123020Y16086331D01*
X30073638D01*
X30024256Y16036949D01*
X29974874Y15987567D01*
X29876110D01*
X29826728Y15938185D01*
X29777346D01*
X29727964Y15888803D01*
X29678582Y15839421D01*
X29629200Y15790039D01*
X29579818Y15740657D01*
X29530436Y15691275D01*
X29481054Y15641893D01*
X29431672Y15592511D01*
X29382290Y15543129D01*
Y15493747D01*
X29332908Y15444365D01*
Y15394983D01*
X29283526Y15345601D01*
X29234144Y15296219D01*
Y15197455D01*
X29184762Y15148073D01*
Y15098691D01*
X29135380Y15049309D01*
Y14901163D01*
X29085998Y14851781D01*
Y14654253D01*
X29036616Y14604871D01*
Y13814759D01*
X29085998Y13765377D01*
Y13567849D01*
X29135380Y13518467D01*
Y13469085D01*
X29184762Y13419703D01*
Y13271557D01*
X29234144Y13222175D01*
Y13172793D01*
X29283526Y13123411D01*
X29332908Y13074029D01*
Y13024647D01*
X29382290Y12975265D01*
Y12925883D01*
X29431672Y12876501D01*
X29481054Y12827119D01*
X29530436Y12777737D01*
X29579818Y12728355D01*
X29629200Y12678973D01*
X29678582Y12629591D01*
X29727964Y12580209D01*
X29777346Y12530827D01*
X29826728D01*
X29876110Y12481445D01*
X29925492D01*
X29974874Y12432063D01*
X30024256D01*
X30073638Y12382681D01*
X30172402D01*
X30221784Y12333299D01*
X30271166D01*
X30320548Y12283917D01*
X30616840D01*
X30666222Y12234535D01*
X31061278D01*
X31110660Y12283917D01*
X31357570D01*
X31406952Y12333299D01*
X31555098D01*
X31604480Y12382681D01*
X31653862D01*
X31703244Y12432063D01*
X31752626D01*
X31802008Y12481445D01*
X31900772D01*
X31950154Y12530827D01*
X31999536Y12580209D01*
X32048918D01*
X32098300Y12629591D01*
X32147682D01*
X32197064Y12678973D01*
X32246446Y12728355D01*
X32295828Y12777737D01*
Y13617231D01*
X32246446Y13666613D01*
X30863750D01*
Y14259197D01*
X32937794D01*
Y12432063D01*
X32888412Y12382681D01*
X32839030Y12333299D01*
X32789648D01*
X32740266Y12283917D01*
X32690884Y12234535D01*
X32641502Y12185153D01*
X32592120D01*
X32542738Y12135771D01*
X32493356D01*
X32443974Y12086389D01*
X32394592Y12037007D01*
X32345210D01*
X32295828Y11987625D01*
X32246446D01*
X32197064Y11938243D01*
X32147682D01*
X32098300Y11888861D01*
X32048918D01*
X31999536Y11839479D01*
X31851390D01*
X31802008Y11790097D01*
X31703244D01*
X31653862Y11740715D01*
X31604480D01*
X31555098Y11691333D01*
X31061278D01*
X31011896Y11641951D01*
X30764986D01*
X30715604Y11691333D01*
X30419312D01*
X30369930Y11740715D01*
X30123020D01*
X30073638Y11790097D01*
X30024256D01*
X29974874Y11839479D01*
X29876110D01*
X29826728Y11888861D01*
X29777346D01*
X29727964Y11938243D01*
X29678582D01*
X29629200Y11987625D01*
X29530436D01*
X29481054Y12037007D01*
X29431672D01*
X29382290Y12086389D01*
X29332908D01*
X29283526Y12135771D01*
X29234144Y12185153D01*
X29184762Y12234535D01*
X29135380Y12283917D01*
X29085998Y12333299D01*
X29036616Y12382681D01*
X28987234Y12432063D01*
X28937852Y12481445D01*
X28888470Y12530827D01*
X28839088Y12580209D01*
X28789706Y12629591D01*
Y12678973D01*
X28740324Y12728355D01*
Y12777737D01*
X28690942Y12827119D01*
Y12876501D01*
X28641560Y12925883D01*
Y12975265D01*
X28592178Y13024647D01*
Y13074029D01*
X28542796Y13123411D01*
Y13271557D01*
X28493414Y13320939D01*
Y13419703D01*
X28444032Y13469085D01*
Y13617231D01*
X28394650Y13666613D01*
Y13962905D01*
X28345268Y14012287D01*
Y14308579D01*
X28394650Y14357961D01*
Y14654253D01*
X28444032Y14703635D01*
Y14950545D01*
X28493414Y14999927D01*
Y15098691D01*
X28542796Y15148073D01*
Y15296219D01*
X28592178Y15345601D01*
Y15394983D01*
X28641560Y15444365D01*
Y15493747D01*
X28690942Y15543129D01*
Y15592511D01*
X28740324Y15641893D01*
Y15691275D01*
X28789706Y15740657D01*
Y15790039D01*
X28839088Y15839421D01*
X28888470Y15888803D01*
X28937852Y15938185D01*
Y15987567D01*
X28987234Y16036949D01*
X29036616Y16086331D01*
X29085998Y16135713D01*
X29135380Y16185095D01*
X29184762Y16234477D01*
X29234144Y16283859D01*
X29283526D01*
X29332908Y16333241D01*
X29382290Y16382623D01*
X29431672D01*
X29481054Y16432005D01*
X29530436Y16481387D01*
X29629200D01*
X29678582Y16530769D01*
X29727964D01*
X29777346Y16580151D01*
X29826728D01*
X29876110Y16629533D01*
X29974874D01*
X30024256Y16678915D01*
X30271166D01*
X30320548Y16728297D01*
X30518076Y16777679D01*
G37*
%LPD*%
G36*
X2172808Y6728297D02*
X2567864D01*
Y1740715D01*
X1975280D01*
Y5543129D01*
X1925898Y5592511D01*
X1876516Y5543129D01*
X1827134Y5493747D01*
X1777752Y5444365D01*
X1728370Y5394983D01*
X1678988D01*
X1629606Y5345601D01*
X1580224Y5296219D01*
X1530842Y5246837D01*
X1481460D01*
X1432078Y5197455D01*
X1382696D01*
X1333314Y5148073D01*
X1283932D01*
X1234550Y5098691D01*
X1185168D01*
X1135786Y5049309D01*
X1086404D01*
X1037022Y4999927D01*
X987640Y4950545D01*
X888876D01*
X839494Y4901163D01*
X740730D01*
Y5444365D01*
X790112Y5493747D01*
X839494Y5543129D01*
X888876D01*
X938258Y5592511D01*
X1037022D01*
X1086404Y5641893D01*
X1135786D01*
X1185168Y5691275D01*
X1234550Y5740657D01*
X1283932Y5790039D01*
X1333314Y5839421D01*
X1382696D01*
X1432078Y5888803D01*
X1481460Y5938185D01*
X1530842Y5987567D01*
X1580224D01*
X1629606Y6036949D01*
X1678988Y6086331D01*
X1728370Y6135713D01*
X1777752Y6185095D01*
X1827134Y6234477D01*
X1876516Y6283859D01*
X1925898Y6333241D01*
X1975280Y6382623D01*
X2024662Y6432005D01*
Y6481387D01*
X2074044Y6530769D01*
X2123426Y6580151D01*
X2172808Y6629533D01*
Y6728297D01*
G37*
%LPD*%
G36*
X5629548Y6728297D02*
X5925840D01*
X5975222Y6678915D01*
X6222132D01*
X6271514Y6629533D01*
X6419660D01*
X6469042Y6580151D01*
X6518424Y6530769D01*
X6567806D01*
X6617188Y6481387D01*
X6715952D01*
X6765334Y6432005D01*
X6814716Y6382623D01*
X6864098Y6333241D01*
X6913480D01*
X6962862Y6283859D01*
X7012244Y6234477D01*
Y6185095D01*
X7061626Y6135713D01*
X7111008Y6086331D01*
X7160390Y6036949D01*
Y5987567D01*
X7209772Y5938185D01*
Y5839421D01*
X7259154Y5790039D01*
Y5740657D01*
X7308536Y5691275D01*
Y4999927D01*
X7259154Y4950545D01*
Y4851781D01*
X7209772Y4802399D01*
Y4753017D01*
X7160390Y4703635D01*
Y4654253D01*
X7111008Y4604871D01*
X7061626Y4555489D01*
Y4456725D01*
X7012244Y4407343D01*
X6962862Y4357961D01*
X6913480Y4308579D01*
Y4259197D01*
X6864098Y4209815D01*
X6814716Y4160433D01*
X6765334Y4111051D01*
X6715952Y4061669D01*
X6666570Y4012287D01*
X6617188Y3962905D01*
X6567806Y3913523D01*
X6518424Y3864141D01*
X6469042Y3814759D01*
X6419660Y3765377D01*
X6370278Y3715995D01*
X6320896Y3666613D01*
X6271514Y3617231D01*
X6222132Y3567849D01*
X6172750Y3518467D01*
X6123368D01*
X6073986Y3469085D01*
X6024604Y3419703D01*
X5975222Y3370321D01*
X5925840Y3320939D01*
X5876458Y3271557D01*
X5827076Y3222175D01*
X5777694Y3172793D01*
X5728312D01*
X5678930Y3123411D01*
X5629548Y3074029D01*
X5580166Y3024647D01*
X5530784Y2975265D01*
X5481402D01*
X5432020Y2925883D01*
X5382638Y2876501D01*
X5333256Y2827119D01*
X5283874Y2777737D01*
X5234492Y2728355D01*
X5185110Y2678973D01*
X5135728Y2629591D01*
X5086346Y2580209D01*
X5036964Y2530827D01*
Y2481445D01*
X4987582Y2432063D01*
X4938200Y2382681D01*
X4987582Y2333299D01*
X7308536D01*
Y1740715D01*
X4049324D01*
Y1938243D01*
X4098706Y1987625D01*
Y2135771D01*
X4148088Y2185153D01*
Y2234535D01*
X4197470Y2283917D01*
Y2333299D01*
X4246852Y2382681D01*
Y2432063D01*
X4296234Y2481445D01*
X4345616Y2530827D01*
Y2580209D01*
X4394998Y2629591D01*
X4444380Y2678973D01*
X4493762Y2728355D01*
Y2777737D01*
X4543144Y2827119D01*
X4592526Y2876501D01*
X4641908Y2925883D01*
X4691290Y2975265D01*
X4740672Y3024647D01*
X4790054Y3074029D01*
X4839436Y3123411D01*
X4888818Y3172793D01*
X4938200Y3222175D01*
X4987582Y3271557D01*
X5036964Y3320939D01*
X5086346Y3370321D01*
X5135728Y3419703D01*
X5185110Y3469085D01*
X5234492D01*
X5283874Y3518467D01*
X5333256Y3567849D01*
X5382638Y3617231D01*
X5432020Y3666613D01*
X5481402Y3715995D01*
X5530784D01*
X5580166Y3765377D01*
X5629548Y3814759D01*
X5678930Y3864141D01*
X5728312Y3913523D01*
X5777694Y3962905D01*
X5827076Y4012287D01*
X5876458Y4061669D01*
X5925840D01*
X5975222Y4111051D01*
X6024604Y4160433D01*
Y4209815D01*
X6073986Y4259197D01*
X6123368Y4308579D01*
X6172750Y4357961D01*
X6222132Y4407343D01*
X6271514Y4456725D01*
X6320896Y4506107D01*
X6370278Y4555489D01*
X6419660Y4604871D01*
X6469042Y4654253D01*
Y4703635D01*
X6518424Y4753017D01*
Y4802399D01*
X6567806Y4851781D01*
X6617188Y4901163D01*
Y5049309D01*
X6666570Y5098691D01*
Y5246837D01*
X6715952Y5296219D01*
Y5394983D01*
X6666570Y5444365D01*
Y5641893D01*
X6617188Y5691275D01*
X6567806Y5740657D01*
Y5839421D01*
X6518424Y5888803D01*
X6469042Y5938185D01*
X6419660Y5987567D01*
X6370278Y6036949D01*
X6320896D01*
X6271514Y6086331D01*
X6222132Y6135713D01*
X6073986D01*
X6024604Y6185095D01*
X5481402D01*
X5432020Y6135713D01*
X5333256D01*
X5283874Y6086331D01*
X5234492D01*
X5185110Y6036949D01*
X5135728Y5987567D01*
X5086346Y5938185D01*
X5036964Y5888803D01*
X4987582Y5839421D01*
X4938200Y5790039D01*
Y5740657D01*
X4888818Y5691275D01*
Y5641893D01*
X4839436Y5592511D01*
Y5345601D01*
X4790054Y5296219D01*
Y5197455D01*
X4691290D01*
X4641908Y5246837D01*
X4394998D01*
X4345616Y5296219D01*
X4197470D01*
Y5394983D01*
X4246852Y5444365D01*
Y5691275D01*
X4296234Y5740657D01*
Y5790039D01*
X4345616Y5839421D01*
Y5938185D01*
X4394998Y5987567D01*
Y6036949D01*
X4444380Y6086331D01*
Y6135713D01*
X4493762Y6185095D01*
X4543144Y6234477D01*
X4592526Y6283859D01*
X4641908Y6333241D01*
X4691290Y6382623D01*
X4740672Y6432005D01*
X4790054D01*
X4839436Y6481387D01*
X4888818D01*
X4938200Y6530769D01*
X4987582D01*
X5036964Y6580151D01*
X5086346D01*
X5135728Y6629533D01*
X5283874D01*
X5333256Y6678915D01*
X5629548Y6728297D01*
G37*
%LPD*%
G36*
X9431962Y6728297D02*
X9629490D01*
X9678872Y6678915D01*
X9925782D01*
X9975164Y6629533D01*
X10123310D01*
X10172692Y6580151D01*
X10222074D01*
X10271456Y6530769D01*
X10320838D01*
X10370220Y6481387D01*
X10419602D01*
X10468984Y6432005D01*
X10518366Y6382623D01*
X10567748Y6333241D01*
X10617130Y6283859D01*
X10666512Y6234477D01*
X10715894Y6185095D01*
X10765276Y6135713D01*
X10814658Y6086331D01*
Y6036949D01*
X10864040Y5987567D01*
Y5938185D01*
X10913422Y5888803D01*
Y5790039D01*
X10962804Y5740657D01*
Y5543129D01*
X11012186Y5493747D01*
Y5394983D01*
X10962804Y5345601D01*
Y5098691D01*
X10913422Y5049309D01*
Y4999927D01*
X10864040Y4950545D01*
X10814658Y4901163D01*
Y4851781D01*
X10765276Y4802399D01*
Y4753017D01*
X10715894Y4703635D01*
X10666512Y4654253D01*
X10617130Y4604871D01*
X10567748Y4555489D01*
X10518366Y4506107D01*
X10468984D01*
X10419602Y4456725D01*
X10370220Y4407343D01*
X10419602Y4357961D01*
X10518366D01*
X10567748Y4308579D01*
X10617130D01*
X10666512Y4259197D01*
X10715894D01*
X10765276Y4209815D01*
X10814658D01*
X10864040Y4160433D01*
X10913422Y4111051D01*
Y4061669D01*
X10962804Y4012287D01*
X11012186Y3962905D01*
X11061568Y3913523D01*
Y3864141D01*
X11110950Y3814759D01*
Y3765377D01*
X11160332Y3715995D01*
Y3567849D01*
X11209714Y3518467D01*
Y2827119D01*
X11160332Y2777737D01*
Y2728355D01*
X11110950Y2678973D01*
Y2580209D01*
X11061568Y2530827D01*
Y2481445D01*
X11012186Y2432063D01*
Y2382681D01*
X10962804Y2333299D01*
X10913422Y2283917D01*
X10864040Y2234535D01*
Y2185153D01*
X10814658Y2135771D01*
X10765276Y2086389D01*
X10715894D01*
X10666512Y2037007D01*
X10617130Y1987625D01*
X10567748Y1938243D01*
X10518366Y1888861D01*
X10468984D01*
X10419602Y1839479D01*
X10370220D01*
X10320838Y1790097D01*
X10271456D01*
X10222074Y1740715D01*
X10123310D01*
X10073928Y1691333D01*
X9777636D01*
X9728254Y1641951D01*
X9431962D01*
X9382580Y1691333D01*
X9135670D01*
X9086288Y1740715D01*
X8938142D01*
X8888760Y1790097D01*
X8839378D01*
X8789996Y1839479D01*
X8740614D01*
X8691232Y1888861D01*
X8641850Y1938243D01*
X8592468Y1987625D01*
X8543086D01*
X8493704Y2037007D01*
X8444322Y2086389D01*
X8394940Y2135771D01*
X8345558Y2185153D01*
X8296176Y2234535D01*
Y2283917D01*
X8246794Y2333299D01*
X8197412Y2382681D01*
Y2432063D01*
X8148030Y2481445D01*
Y2530827D01*
X8098648Y2580209D01*
Y2629591D01*
X8049266Y2678973D01*
Y2876501D01*
X7999884Y2925883D01*
Y3024647D01*
X8098648D01*
X8148030Y3074029D01*
X8394940D01*
X8444322Y3123411D01*
X8592468D01*
Y3074029D01*
X8641850Y3024647D01*
Y2925883D01*
X8691232Y2876501D01*
Y2827119D01*
X8740614Y2777737D01*
Y2678973D01*
X8789996Y2629591D01*
Y2580209D01*
X8839378Y2530827D01*
X8888760Y2481445D01*
X8938142Y2432063D01*
Y2382681D01*
X8987524Y2333299D01*
X9036906D01*
X9086288Y2283917D01*
X9135670D01*
X9185052Y2234535D01*
X9234434D01*
X9283816Y2185153D01*
X9431962D01*
X9481344Y2135771D01*
X9629490D01*
X9678872Y2185153D01*
X9827018D01*
X9876400Y2234535D01*
X9975164D01*
X10024546Y2283917D01*
X10073928D01*
X10123310Y2333299D01*
X10172692D01*
X10222074Y2382681D01*
X10271456Y2432063D01*
X10320838Y2481445D01*
X10370220Y2530827D01*
Y2580209D01*
X10419602Y2629591D01*
X10468984Y2678973D01*
Y2728355D01*
X10518366Y2777737D01*
Y2827119D01*
X10567748Y2876501D01*
Y3469085D01*
X10518366Y3518467D01*
Y3617231D01*
X10468984Y3666613D01*
Y3715995D01*
X10419602Y3765377D01*
X10370220Y3814759D01*
X10320838Y3864141D01*
X10271456Y3913523D01*
X10222074Y3962905D01*
X10172692Y4012287D01*
X10123310D01*
X10073928Y4061669D01*
X10024546D01*
X9975164Y4111051D01*
X9827018D01*
X9777636Y4160433D01*
X9481344D01*
X9431962Y4111051D01*
X9185052D01*
Y4308579D01*
X9234434Y4357961D01*
Y4604871D01*
X9530726D01*
X9580108Y4654253D01*
X9777636D01*
X9827018Y4703635D01*
X9876400D01*
X9925782Y4753017D01*
X9975164Y4802399D01*
X10024546D01*
X10073928Y4851781D01*
X10123310Y4901163D01*
X10172692D01*
X10222074Y4950545D01*
X10271456Y4999927D01*
Y5049309D01*
X10320838Y5098691D01*
Y5197455D01*
X10370220Y5246837D01*
Y5592511D01*
X10320838Y5641893D01*
Y5740657D01*
X10271456Y5790039D01*
Y5839421D01*
X10222074Y5888803D01*
X10172692Y5938185D01*
X10123310Y5987567D01*
X10073928Y6036949D01*
X10024546Y6086331D01*
X9975164D01*
X9925782Y6135713D01*
X9827018D01*
X9777636Y6185095D01*
X9333198D01*
X9283816Y6135713D01*
X9185052D01*
X9135670Y6086331D01*
X9086288D01*
X9036906Y6036949D01*
X8987524Y5987567D01*
X8938142Y5938185D01*
X8888760Y5888803D01*
X8839378Y5839421D01*
X8789996Y5790039D01*
Y5691275D01*
X8740614Y5641893D01*
Y5592511D01*
X8691232Y5543129D01*
Y5345601D01*
X8394940D01*
X8345558Y5394983D01*
X8098648D01*
X8049266Y5444365D01*
Y5543129D01*
X8098648Y5592511D01*
Y5691275D01*
X8148030Y5740657D01*
X8197412Y5790039D01*
Y5839421D01*
X8246794Y5888803D01*
Y5987567D01*
X8296176Y6036949D01*
X8345558Y6086331D01*
Y6135713D01*
X8394940Y6185095D01*
X8444322Y6234477D01*
X8493704Y6283859D01*
X8543086Y6333241D01*
X8592468Y6382623D01*
X8641850Y6432005D01*
X8691232D01*
X8740614Y6481387D01*
X8789996Y6530769D01*
X8839378Y6580151D01*
X8888760D01*
X8938142Y6629533D01*
X9086288D01*
X9135670Y6678915D01*
X9431962Y6728297D01*
G37*
%LPD*%
G36*
X13876342Y6678915D02*
X14419544D01*
Y3518467D01*
X14468926Y3469085D01*
X15061510D01*
Y2925883D01*
X14468926D01*
X14419544Y2876501D01*
Y1740715D01*
X13777578D01*
Y2876501D01*
X13728196Y2925883D01*
X11654152D01*
Y3518467D01*
X11703534Y3567849D01*
Y3617231D01*
X11752916Y3666613D01*
X11802298Y3715995D01*
X11851680Y3765377D01*
Y3814759D01*
X11901062Y3864141D01*
X11950444Y3913523D01*
Y3962905D01*
X11999826Y4012287D01*
X12049208Y4061669D01*
Y4111051D01*
X12098590Y4160433D01*
X12147972Y4209815D01*
X12197354Y4259197D01*
Y4308579D01*
X12246736Y4357961D01*
X12296118Y4407343D01*
Y4456725D01*
X12345500Y4506107D01*
X12394882Y4555489D01*
Y4604871D01*
X12444264Y4654253D01*
X12493646Y4703635D01*
X12543028Y4753017D01*
Y4802399D01*
X12592410Y4851781D01*
X12641792Y4901163D01*
Y4950545D01*
X12691174Y4999927D01*
X12740556Y5049309D01*
X12789938Y5098691D01*
Y5148073D01*
X12839320Y5197455D01*
X12888702Y5246837D01*
Y5296219D01*
X12938084Y5345601D01*
X12987466Y5394983D01*
Y5444365D01*
X13036848Y5493747D01*
X13086230Y5543129D01*
X13135612Y5592511D01*
Y5641893D01*
X13184994Y5691275D01*
X13234376Y5740657D01*
Y5790039D01*
X13283758Y5839421D01*
X13333140Y5888803D01*
Y5938185D01*
X13382522Y5987567D01*
X13431904Y6036949D01*
X13481286Y6086331D01*
Y6135713D01*
X13530668Y6185095D01*
X13580050Y6234477D01*
Y6283859D01*
X13629432Y6333241D01*
X13678814Y6382623D01*
Y6432005D01*
X13728196Y6481387D01*
X13777578Y6530769D01*
X13826960Y6580151D01*
X13876342Y6678915D01*
G37*
%LPC*%
G36*
X13777578Y5691275D02*
Y3469085D01*
X12246736D01*
X12296118Y3518467D01*
Y3567849D01*
X12345500Y3617231D01*
X12394882Y3666613D01*
Y3715995D01*
X12444264Y3765377D01*
X12493646Y3814759D01*
X12543028Y3864141D01*
Y3913523D01*
X12592410Y3962905D01*
X12641792Y4012287D01*
Y4061669D01*
X12691174Y4111051D01*
X12740556Y4160433D01*
Y4209815D01*
X12789938Y4259197D01*
X12839320Y4308579D01*
Y4357961D01*
X12888702Y4407343D01*
X12938084Y4456725D01*
Y4506107D01*
X12987466Y4555489D01*
X13036848Y4604871D01*
X13086230Y4654253D01*
Y4703635D01*
X13135612Y4753017D01*
X13184994Y4802399D01*
Y4851781D01*
X13234376Y4901163D01*
X13283758Y4950545D01*
Y4999927D01*
X13333140Y5049309D01*
X13382522Y5098691D01*
Y5148073D01*
X13431904Y5197455D01*
X13481286Y5246837D01*
Y5296219D01*
X13530668Y5345601D01*
X13580050Y5394983D01*
X13629432Y5444365D01*
Y5493747D01*
X13678814Y5543129D01*
X13728196Y5592511D01*
X13777578Y5691275D01*
G37*
%LPD*%
G36*
X16296060Y6629533D02*
X18765160D01*
Y6036949D01*
X16839262D01*
X16789880Y5987567D01*
Y5938185D01*
X16740498Y5888803D01*
Y5740657D01*
X16691116Y5691275D01*
Y5543129D01*
X16641734Y5493747D01*
Y5296219D01*
X16592352Y5246837D01*
Y5098691D01*
X16542970Y5049309D01*
Y4901163D01*
X16493588Y4851781D01*
Y4802399D01*
X16542970Y4753017D01*
X16592352D01*
X16641734Y4802399D01*
X16691116D01*
X16740498Y4851781D01*
X16789880Y4901163D01*
X16839262D01*
X16888644Y4950545D01*
X17036790D01*
X17086172Y4999927D01*
X17826902D01*
X17876284Y4950545D01*
X17925666D01*
X17975048Y4901163D01*
X18073812D01*
X18123194Y4851781D01*
X18172576D01*
X18221958Y4802399D01*
X18271340D01*
X18320722Y4753017D01*
X18370104Y4703635D01*
X18419486Y4654253D01*
X18468868D01*
X18518250Y4604871D01*
X18567632Y4555489D01*
X18617014Y4506107D01*
X18666396Y4456725D01*
Y4407343D01*
X18715778Y4357961D01*
Y4308579D01*
X18765160Y4259197D01*
Y4209815D01*
X18814542Y4160433D01*
Y4111051D01*
X18863924Y4061669D01*
Y4012287D01*
X18913306Y3962905D01*
Y3864141D01*
X18962688Y3814759D01*
Y3024647D01*
X18913306Y2975265D01*
Y2925883D01*
X18863924Y2876501D01*
Y2728355D01*
X18814542Y2678973D01*
Y2629591D01*
X18765160Y2580209D01*
Y2530827D01*
X18715778Y2481445D01*
X18666396Y2432063D01*
Y2382681D01*
X18617014Y2333299D01*
Y2283917D01*
X18567632Y2234535D01*
X18518250Y2185153D01*
X18468868Y2135771D01*
X18419486Y2086389D01*
X18370104Y2037007D01*
X18320722Y1987625D01*
X18271340Y1938243D01*
X18221958D01*
X18172576Y1888861D01*
X18123194Y1839479D01*
X18073812D01*
X18024430Y1790097D01*
X17925666D01*
X17876284Y1740715D01*
X17777520D01*
X17728138Y1691333D01*
X17530610D01*
X17481228Y1641951D01*
X17184936D01*
X17135554Y1691333D01*
X16839262D01*
X16789880Y1740715D01*
X16641734D01*
X16592352Y1790097D01*
X16542970D01*
X16493588Y1839479D01*
X16444206D01*
X16394824Y1888861D01*
X16345442Y1938243D01*
X16296060Y1987625D01*
X16246678D01*
X16197296Y2037007D01*
X16147914Y2086389D01*
X16098532Y2135771D01*
X16049150Y2185153D01*
X15999768Y2234535D01*
X15950386Y2283917D01*
X15901004Y2333299D01*
Y2382681D01*
X15851622Y2432063D01*
Y2530827D01*
X15802240Y2580209D01*
Y2629591D01*
X15752858Y2678973D01*
Y2876501D01*
X15703476Y2925883D01*
Y3024647D01*
X15950386D01*
X15999768Y3074029D01*
X16345442D01*
Y3024647D01*
X16394824Y2975265D01*
Y2777737D01*
X16444206Y2728355D01*
Y2678973D01*
X16493588Y2629591D01*
Y2580209D01*
X16542970Y2530827D01*
X16592352Y2481445D01*
X16641734Y2432063D01*
X16691116Y2382681D01*
X16740498Y2333299D01*
X16789880Y2283917D01*
X16839262D01*
X16888644Y2234535D01*
X16938026D01*
X16987408Y2185153D01*
X17184936D01*
X17234318Y2135771D01*
X17283700D01*
X17333082Y2185153D01*
X17579992D01*
X17629374Y2234535D01*
X17678756D01*
X17728138Y2283917D01*
X17777520Y2333299D01*
X17876284D01*
X17925666Y2382681D01*
X17975048Y2432063D01*
X18024430Y2481445D01*
X18073812Y2530827D01*
X18123194Y2580209D01*
Y2629591D01*
X18172576Y2678973D01*
Y2728355D01*
X18221958Y2777737D01*
Y2827119D01*
X18271340Y2876501D01*
Y2925883D01*
X18320722Y2975265D01*
Y3666613D01*
X18271340Y3715995D01*
Y3814759D01*
X18221958Y3864141D01*
Y3913523D01*
X18172576Y3962905D01*
Y4012287D01*
X18123194Y4061669D01*
X18073812Y4111051D01*
Y4160433D01*
X18024430Y4209815D01*
X17975048Y4259197D01*
X17925666D01*
X17876284Y4308579D01*
X17826902Y4357961D01*
X17777520D01*
X17728138Y4407343D01*
X17629374D01*
X17579992Y4456725D01*
X17431846D01*
X17382464Y4506107D01*
X17234318D01*
X17184936Y4456725D01*
X16987408D01*
X16938026Y4407343D01*
X16839262D01*
X16789880Y4357961D01*
X16740498D01*
X16691116Y4308579D01*
X16641734D01*
X16592352Y4259197D01*
X16542970Y4209815D01*
X16493588Y4160433D01*
X16444206Y4111051D01*
X16394824Y4061669D01*
Y4012287D01*
X16098532D01*
X16049150Y4061669D01*
X15802240D01*
Y4160433D01*
X15851622Y4209815D01*
Y4407343D01*
X15901004Y4456725D01*
Y4654253D01*
X15950386Y4703635D01*
Y4901163D01*
X15999768Y4950545D01*
Y5148073D01*
X16049150Y5197455D01*
Y5444365D01*
X16098532Y5493747D01*
Y5691275D01*
X16147914Y5740657D01*
Y5938185D01*
X16197296Y5987567D01*
Y6185095D01*
X16246678Y6234477D01*
Y6432005D01*
X16296060Y6481387D01*
Y6629533D01*
G37*
%LPD*%
G36*
X21135496Y6728297D02*
X21382406D01*
X21431788Y6678915D01*
X21678698D01*
X21728080Y6629533D01*
X21826844D01*
X21876226Y6580151D01*
X21925608D01*
X21974990Y6530769D01*
X22073754D01*
X22123136Y6481387D01*
X22172518Y6432005D01*
X22221900D01*
X22271282Y6382623D01*
X22320664Y6333241D01*
Y6283859D01*
X22370046Y6234477D01*
X22419428Y6185095D01*
X22468810Y6135713D01*
Y6086331D01*
X22518192Y6036949D01*
X22567574Y5987567D01*
Y5938185D01*
X22616956Y5888803D01*
Y5790039D01*
X22666338Y5740657D01*
Y5641893D01*
X22715720Y5592511D01*
Y5493747D01*
X22419428D01*
X22370046Y5444365D01*
X22073754D01*
Y5592511D01*
X22024372Y5641893D01*
Y5691275D01*
X21974990Y5740657D01*
X21925608Y5790039D01*
Y5888803D01*
X21876226Y5938185D01*
X21826844Y5987567D01*
X21777462Y6036949D01*
X21728080Y6086331D01*
X21678698Y6135713D01*
X21530552D01*
X21481170Y6185095D01*
X20987350D01*
X20937968Y6135713D01*
X20888586D01*
X20839204Y6086331D01*
X20789822D01*
X20740440Y6036949D01*
X20691058Y5987567D01*
X20641676Y5938185D01*
X20592294Y5888803D01*
X20542912Y5839421D01*
X20493530Y5790039D01*
X20444148Y5740657D01*
Y5691275D01*
X20394766Y5641893D01*
X20345384Y5592511D01*
Y5543129D01*
X20296002Y5493747D01*
Y5345601D01*
X20246620Y5296219D01*
Y5246837D01*
X20197238Y5197455D01*
Y5098691D01*
X20147856Y5049309D01*
Y4456725D01*
X20197238Y4407343D01*
X20246620Y4456725D01*
X20296002Y4506107D01*
X20345384Y4555489D01*
X20394766Y4604871D01*
X20444148Y4654253D01*
X20493530Y4703635D01*
X20542912Y4753017D01*
X20592294D01*
X20641676Y4802399D01*
X20691058D01*
X20740440Y4851781D01*
X20839204D01*
X20888586Y4901163D01*
X21036732D01*
X21086114Y4950545D01*
X21579934D01*
X21629316Y4901163D01*
X21728080D01*
X21777462Y4851781D01*
X21876226D01*
X21925608Y4802399D01*
X21974990Y4753017D01*
X22024372D01*
X22073754Y4703635D01*
X22123136D01*
X22172518Y4654253D01*
X22221900Y4604871D01*
X22271282Y4555489D01*
X22320664D01*
X22370046Y4506107D01*
X22419428Y4456725D01*
X22468810Y4407343D01*
Y4357961D01*
X22518192Y4308579D01*
X22567574Y4259197D01*
Y4209815D01*
X22616956Y4160433D01*
Y4111051D01*
X22666338Y4061669D01*
Y3913523D01*
X22715720Y3864141D01*
Y3814759D01*
X22765102Y3765377D01*
Y2925883D01*
X22715720Y2876501D01*
Y2827119D01*
X22666338Y2777737D01*
Y2678973D01*
X22616956Y2629591D01*
Y2580209D01*
X22567574Y2530827D01*
Y2432063D01*
X22518192Y2382681D01*
Y2333299D01*
X22468810Y2283917D01*
X22419428Y2234535D01*
Y2185153D01*
X22370046Y2135771D01*
X22320664Y2086389D01*
X22271282Y2037007D01*
X22221900Y1987625D01*
X22172518D01*
X22123136Y1938243D01*
X22073754Y1888861D01*
X22024372Y1839479D01*
X21974990D01*
X21925608Y1790097D01*
X21777462D01*
X21728080Y1740715D01*
X21678698D01*
X21629316Y1691333D01*
X21382406D01*
X21333024Y1641951D01*
X21086114D01*
X21036732Y1691333D01*
X20789822D01*
X20740440Y1740715D01*
X20641676D01*
X20592294Y1790097D01*
X20542912D01*
X20493530Y1839479D01*
X20444148D01*
X20394766Y1888861D01*
X20345384D01*
X20296002Y1938243D01*
X20246620Y1987625D01*
X20197238Y2037007D01*
X20147856Y2086389D01*
X20098474Y2135771D01*
X20049092Y2185153D01*
X19999710Y2234535D01*
X19950328Y2283917D01*
Y2333299D01*
X19900946Y2382681D01*
X19851564Y2432063D01*
Y2481445D01*
X19802182Y2530827D01*
X19752800Y2580209D01*
Y2629591D01*
X19703418Y2678973D01*
Y2827119D01*
X19654036Y2876501D01*
Y3074029D01*
X19604654Y3123411D01*
Y3271557D01*
X19555272Y3320939D01*
Y3715995D01*
X19505890Y3765377D01*
Y4357961D01*
X19555272Y4407343D01*
Y4851781D01*
X19604654Y4901163D01*
Y5098691D01*
X19654036Y5148073D01*
Y5345601D01*
X19703418Y5394983D01*
Y5493747D01*
X19752800Y5543129D01*
Y5641893D01*
X19802182Y5691275D01*
Y5740657D01*
X19851564Y5790039D01*
X19900946Y5839421D01*
Y5888803D01*
X19950328Y5938185D01*
Y5987567D01*
X19999710Y6036949D01*
Y6086331D01*
X20049092Y6135713D01*
X20098474Y6185095D01*
X20147856Y6234477D01*
X20197238Y6283859D01*
X20246620Y6333241D01*
X20296002Y6382623D01*
X20345384Y6432005D01*
X20394766Y6481387D01*
X20444148D01*
X20493530Y6530769D01*
X20542912D01*
X20592294Y6580151D01*
X20641676D01*
X20691058Y6629533D01*
X20789822D01*
X20839204Y6678915D01*
X21135496Y6728297D01*
G37*
%LPC*%
G36*
X20937968Y4407343D02*
X21481170D01*
X21530552Y4357961D01*
X21579934D01*
X21629316Y4308579D01*
X21678698D01*
X21728080Y4259197D01*
X21777462Y4209815D01*
X21826844Y4160433D01*
X21876226Y4111051D01*
X21925608Y4061669D01*
X21974990Y4012287D01*
X22024372Y3962905D01*
Y3864141D01*
X22073754Y3814759D01*
Y3666613D01*
X22123136Y3617231D01*
Y3567849D01*
X22172518Y3518467D01*
Y3074029D01*
X22123136Y3024647D01*
Y2876501D01*
X22073754Y2827119D01*
Y2777737D01*
X22024372Y2728355D01*
Y2629591D01*
X21974990Y2580209D01*
X21925608Y2530827D01*
X21876226Y2481445D01*
Y2432063D01*
X21826844Y2382681D01*
X21777462D01*
X21728080Y2333299D01*
X21678698Y2283917D01*
X21629316D01*
X21579934Y2234535D01*
X21530552D01*
X21481170Y2185153D01*
X21333024D01*
X21283642Y2135771D01*
X21184878D01*
X21135496Y2185153D01*
X20888586D01*
X20839204Y2234535D01*
X20789822D01*
X20740440Y2283917D01*
X20691058Y2333299D01*
X20641676Y2382681D01*
X20592294Y2432063D01*
X20542912Y2481445D01*
X20493530Y2530827D01*
X20444148Y2580209D01*
X20394766Y2629591D01*
Y2678973D01*
X20345384Y2728355D01*
Y2827119D01*
X20296002Y2876501D01*
Y2975265D01*
X20246620Y3024647D01*
Y3271557D01*
X20197238Y3320939D01*
Y3469085D01*
X20246620Y3518467D01*
Y3666613D01*
X20296002Y3715995D01*
Y3864141D01*
X20345384Y3913523D01*
X20394766Y3962905D01*
X20444148Y4012287D01*
Y4061669D01*
X20493530Y4111051D01*
X20542912Y4160433D01*
X20592294Y4209815D01*
X20641676Y4259197D01*
X20740440D01*
X20789822Y4308579D01*
X20839204Y4357961D01*
X20937968Y4407343D01*
G37*
%LPD*%
G36*
X23456450Y6629533D02*
X26666280D01*
Y6135713D01*
X26616898D01*
X26567516Y6086331D01*
X26518134Y6036949D01*
Y5987567D01*
X26468752Y5938185D01*
X26419370Y5888803D01*
X26369988Y5839421D01*
X26320606Y5790039D01*
X26271224Y5740657D01*
Y5691275D01*
X26221842Y5641893D01*
X26172460Y5592511D01*
Y5543129D01*
X26123078Y5493747D01*
Y5444365D01*
X26073696Y5394983D01*
X26024314Y5345601D01*
Y5296219D01*
X25974932Y5246837D01*
X25925550Y5197455D01*
X25876168Y5148073D01*
Y5098691D01*
X25826786Y5049309D01*
Y4999927D01*
X25777404Y4950545D01*
Y4901163D01*
X25728022Y4851781D01*
X25678640Y4802399D01*
X25629258Y4753017D01*
Y4703635D01*
X25579876Y4654253D01*
Y4604871D01*
X25530494Y4555489D01*
Y4506107D01*
X25481112Y4456725D01*
Y4357961D01*
X25431730Y4308579D01*
Y4259197D01*
X25382348Y4209815D01*
Y4111051D01*
X25332966Y4061669D01*
Y4012287D01*
X25283584Y3962905D01*
Y3913523D01*
X25234202Y3864141D01*
Y3814759D01*
X25184820Y3765377D01*
Y3666613D01*
X25135438Y3617231D01*
Y3469085D01*
X25086056Y3419703D01*
Y3370321D01*
X25036674Y3320939D01*
Y3222175D01*
X24987292Y3172793D01*
Y2975265D01*
X24937910Y2925883D01*
Y2827119D01*
X24888528Y2777737D01*
Y2629591D01*
X24839146Y2580209D01*
Y2333299D01*
X24789764Y2283917D01*
Y1938243D01*
X24740382Y1888861D01*
Y1740715D01*
X24147798D01*
Y2185153D01*
X24197180Y2234535D01*
Y2530827D01*
X24246562Y2580209D01*
Y2827119D01*
X24295944Y2876501D01*
Y3024647D01*
X24345326Y3074029D01*
Y3222175D01*
X24394708Y3271557D01*
Y3419703D01*
X24444090Y3469085D01*
Y3518467D01*
X24493472Y3567849D01*
Y3617231D01*
X24542854Y3666613D01*
Y3715995D01*
X24592236Y3765377D01*
Y3864141D01*
X24641618Y3913523D01*
Y4061669D01*
X24691000Y4111051D01*
Y4160433D01*
X24740382Y4209815D01*
Y4259197D01*
X24789764Y4308579D01*
Y4357961D01*
X24839146Y4407343D01*
Y4456725D01*
X24888528Y4506107D01*
Y4555489D01*
X24937910Y4604871D01*
Y4654253D01*
X24987292Y4703635D01*
Y4753017D01*
X25036674Y4802399D01*
Y4851781D01*
X25086056Y4901163D01*
Y4950545D01*
X25135438Y4999927D01*
Y5049309D01*
X25184820Y5098691D01*
X25234202Y5148073D01*
X25283584Y5197455D01*
Y5246837D01*
X25332966Y5296219D01*
Y5345601D01*
X25382348Y5394983D01*
Y5444365D01*
X25431730Y5493747D01*
X25481112Y5543129D01*
X25530494Y5592511D01*
Y5641893D01*
X25579876Y5691275D01*
X25629258Y5740657D01*
X25678640Y5790039D01*
X25728022Y5839421D01*
X25777404Y5888803D01*
Y5938185D01*
X25826786Y5987567D01*
X25777404Y6036949D01*
X23456450D01*
Y6629533D01*
G37*
%LPD*%
G36*
X28740324Y6728297D02*
X28987234D01*
X29036616Y6678915D01*
X29283526D01*
X29332908Y6629533D01*
X29431672D01*
X29481054Y6580151D01*
X29530436Y6530769D01*
X29579818D01*
X29629200Y6481387D01*
X29727964D01*
X29777346Y6432005D01*
X29826728Y6382623D01*
X29876110D01*
X29925492Y6333241D01*
X29974874Y6283859D01*
X30024256Y6234477D01*
Y6185095D01*
X30073638Y6135713D01*
X30123020Y6086331D01*
Y6036949D01*
X30172402Y5987567D01*
Y5938185D01*
X30221784Y5888803D01*
Y5839421D01*
X30271166Y5790039D01*
Y5592511D01*
X30320548Y5543129D01*
Y5394983D01*
X30271166Y5345601D01*
Y5098691D01*
X30221784Y5049309D01*
Y4950545D01*
X30172402Y4901163D01*
Y4851781D01*
X30123020Y4802399D01*
X30073638Y4753017D01*
X30024256Y4703635D01*
X29974874Y4654253D01*
X29925492Y4604871D01*
X29876110D01*
X29826728Y4555489D01*
X29777346Y4506107D01*
X29727964D01*
X29678582Y4456725D01*
X29629200Y4407343D01*
X29678582Y4357961D01*
X29777346D01*
X29826728Y4308579D01*
X29876110Y4259197D01*
X29925492D01*
X29974874Y4209815D01*
X30024256Y4160433D01*
X30073638D01*
X30123020Y4111051D01*
X30172402Y4061669D01*
X30221784Y4012287D01*
X30271166Y3962905D01*
Y3913523D01*
X30320548Y3864141D01*
Y3814759D01*
X30369930Y3765377D01*
Y3715995D01*
X30419312Y3666613D01*
Y3617231D01*
X30468694Y3567849D01*
Y3320939D01*
X30518076Y3271557D01*
Y3024647D01*
X30468694Y2975265D01*
Y2777737D01*
X30419312Y2728355D01*
Y2678973D01*
X30369930Y2629591D01*
Y2530827D01*
X30320548Y2481445D01*
Y2432063D01*
X30271166Y2382681D01*
Y2333299D01*
X30221784Y2283917D01*
X30172402Y2234535D01*
X30123020Y2185153D01*
X30073638Y2135771D01*
Y2086389D01*
X30024256Y2037007D01*
X29974874Y1987625D01*
X29925492D01*
X29876110Y1938243D01*
X29826728Y1888861D01*
X29777346D01*
X29727964Y1839479D01*
X29678582D01*
X29629200Y1790097D01*
X29579818D01*
X29530436Y1740715D01*
X29431672D01*
X29382290Y1691333D01*
X29085998D01*
X29036616Y1641951D01*
X28740324D01*
X28690942Y1691333D01*
X28394650D01*
X28345268Y1740715D01*
X28246504D01*
X28197122Y1790097D01*
X28147740D01*
X28098358Y1839479D01*
X28048976D01*
X27999594Y1888861D01*
X27950212D01*
X27900830Y1938243D01*
X27851448Y1987625D01*
X27802066Y2037007D01*
X27752684D01*
X27703302Y2086389D01*
X27653920Y2135771D01*
X27604538Y2185153D01*
X27555156Y2234535D01*
X27505774Y2283917D01*
Y2333299D01*
X27456392Y2382681D01*
Y2432063D01*
X27407010Y2481445D01*
Y2530827D01*
X27357628Y2580209D01*
Y2629591D01*
X27308246Y2678973D01*
Y2728355D01*
X27258864Y2777737D01*
Y3469085D01*
X27308246Y3518467D01*
Y3666613D01*
X27357628Y3715995D01*
Y3765377D01*
X27407010Y3814759D01*
Y3864141D01*
X27456392Y3913523D01*
Y3962905D01*
X27505774Y4012287D01*
X27555156Y4061669D01*
X27604538Y4111051D01*
X27653920Y4160433D01*
X27703302Y4209815D01*
X27752684D01*
X27802066Y4259197D01*
X27851448Y4308579D01*
X27900830D01*
X27950212Y4357961D01*
X28048976D01*
X28098358Y4407343D01*
X28147740Y4456725D01*
X28098358Y4506107D01*
X27999594D01*
X27950212Y4555489D01*
X27900830D01*
X27851448Y4604871D01*
X27802066Y4654253D01*
X27752684D01*
X27703302Y4703635D01*
X27653920Y4753017D01*
Y4802399D01*
X27604538Y4851781D01*
X27555156Y4901163D01*
Y4950545D01*
X27505774Y4999927D01*
Y5098691D01*
X27456392Y5148073D01*
Y5790039D01*
X27505774Y5839421D01*
Y5888803D01*
X27555156Y5938185D01*
X27604538Y5987567D01*
Y6036949D01*
X27653920Y6086331D01*
Y6135713D01*
X27703302Y6185095D01*
X27752684Y6234477D01*
Y6283859D01*
X27802066Y6333241D01*
X27851448Y6382623D01*
X27900830Y6432005D01*
X27950212D01*
X27999594Y6481387D01*
X28048976Y6530769D01*
X28098358D01*
X28147740Y6580151D01*
X28246504D01*
X28295886Y6629533D01*
X28394650D01*
X28444032Y6678915D01*
X28740324Y6728297D01*
G37*
%LPC*%
G36*
X28592178Y6185095D02*
X29085998D01*
X29135380Y6135713D01*
X29283526D01*
X29332908Y6086331D01*
X29382290Y6036949D01*
X29431672Y5987567D01*
X29481054Y5938185D01*
X29530436Y5888803D01*
X29579818Y5839421D01*
Y5790039D01*
X29629200Y5740657D01*
Y5641893D01*
X29678582Y5592511D01*
Y5197455D01*
X29629200Y5148073D01*
Y5098691D01*
X29579818Y5049309D01*
X29530436Y4999927D01*
Y4950545D01*
X29481054Y4901163D01*
X29431672Y4851781D01*
X29382290D01*
X29332908Y4802399D01*
X29283526Y4753017D01*
X29234144D01*
X29184762Y4703635D01*
X29085998D01*
X29036616Y4654253D01*
X28641560D01*
X28592178Y4703635D01*
X28493414D01*
X28444032Y4753017D01*
X28394650Y4802399D01*
X28345268D01*
X28295886Y4851781D01*
Y4901163D01*
X28246504Y4950545D01*
X28197122Y4999927D01*
Y5049309D01*
X28147740Y5098691D01*
X28098358Y5148073D01*
Y5345601D01*
X28048976Y5394983D01*
Y5543129D01*
X28098358Y5592511D01*
Y5740657D01*
X28147740Y5790039D01*
X28197122Y5839421D01*
Y5888803D01*
X28246504Y5938185D01*
X28295886Y5987567D01*
X28345268Y6036949D01*
X28394650Y6086331D01*
X28444032D01*
X28493414Y6135713D01*
X28592178Y6185095D01*
G37*
%LPC*%
G36*
X28592178Y4160433D02*
X29135380D01*
X29184762Y4111051D01*
X29234144D01*
X29283526Y4061669D01*
X29332908D01*
X29382290Y4012287D01*
X29431672D01*
X29481054Y3962905D01*
X29530436Y3913523D01*
X29579818Y3864141D01*
X29629200Y3814759D01*
X29678582Y3765377D01*
X29727964Y3715995D01*
Y3666613D01*
X29777346Y3617231D01*
Y3567849D01*
X29826728Y3518467D01*
Y3469085D01*
X29876110Y3419703D01*
Y2876501D01*
X29826728Y2827119D01*
Y2777737D01*
X29777346Y2728355D01*
Y2678973D01*
X29727964Y2629591D01*
Y2580209D01*
X29678582Y2530827D01*
X29629200Y2481445D01*
X29579818Y2432063D01*
X29530436Y2382681D01*
X29481054Y2333299D01*
X29431672Y2283917D01*
X29382290D01*
X29332908Y2234535D01*
X29184762D01*
X29135380Y2185153D01*
X28987234D01*
X28937852Y2135771D01*
X28839088D01*
X28789706Y2185153D01*
X28542796D01*
X28493414Y2234535D01*
X28444032D01*
X28394650Y2283917D01*
X28345268D01*
X28295886Y2333299D01*
X28246504Y2382681D01*
X28197122D01*
X28147740Y2432063D01*
X28098358Y2481445D01*
Y2530827D01*
X28048976Y2580209D01*
X27999594Y2629591D01*
Y2728355D01*
X27950212Y2777737D01*
X27900830Y2827119D01*
Y3024647D01*
X27851448Y3074029D01*
Y3271557D01*
X27900830Y3320939D01*
Y3469085D01*
X27950212Y3518467D01*
Y3617231D01*
X27999594Y3666613D01*
Y3715995D01*
X28048976Y3765377D01*
X28098358Y3814759D01*
X28147740Y3864141D01*
X28197122Y3913523D01*
X28246504Y3962905D01*
X28295886Y4012287D01*
X28345268D01*
X28394650Y4061669D01*
X28444032D01*
X28493414Y4111051D01*
X28592178Y4160433D01*
G37*
%LPD*%
G36*
X32493356Y6728297D02*
X32740266D01*
X32789648Y6678915D01*
X32987176D01*
X33036558Y6629533D01*
X33184704D01*
X33234086Y6580151D01*
X33332850D01*
X33382232Y6530769D01*
X33431614Y6481387D01*
X33480996D01*
X33530378Y6432005D01*
X33579760D01*
X33629142Y6382623D01*
X33678524Y6333241D01*
X33727906Y6283859D01*
X33777288Y6234477D01*
X33826670Y6185095D01*
X33876052Y6135713D01*
X33925434Y6086331D01*
X33974816Y6036949D01*
Y5987567D01*
X34024198Y5938185D01*
X34073580Y5888803D01*
Y5839421D01*
X34122962Y5790039D01*
Y5740657D01*
X34172344Y5691275D01*
Y5592511D01*
X34221726Y5543129D01*
Y5444365D01*
X34271108Y5394983D01*
Y5296219D01*
X34320490Y5246837D01*
Y4555489D01*
X34369872Y4506107D01*
Y4160433D01*
X34320490Y4111051D01*
Y3469085D01*
X34271108Y3419703D01*
Y3320939D01*
X34221726Y3271557D01*
Y2975265D01*
X34172344Y2925883D01*
Y2827119D01*
X34122962Y2777737D01*
Y2728355D01*
X34073580Y2678973D01*
Y2580209D01*
X34024198Y2530827D01*
X33974816Y2481445D01*
Y2432063D01*
X33925434Y2382681D01*
Y2333299D01*
X33876052Y2283917D01*
X33826670Y2234535D01*
X33777288Y2185153D01*
X33727906Y2135771D01*
X33678524Y2086389D01*
X33629142Y2037007D01*
X33579760Y1987625D01*
X33530378Y1938243D01*
X33480996Y1888861D01*
X33431614D01*
X33382232Y1839479D01*
X33332850D01*
X33283468Y1790097D01*
X33234086D01*
X33184704Y1740715D01*
X33036558D01*
X32987176Y1691333D01*
X32740266D01*
X32690884Y1641951D01*
X32493356D01*
X32443974Y1691333D01*
X32246446D01*
X32197064Y1740715D01*
X32048918D01*
X31999536Y1790097D01*
X31950154D01*
X31900772Y1839479D01*
X31851390D01*
X31802008Y1888861D01*
X31752626Y1938243D01*
X31703244D01*
X31653862Y1987625D01*
X31604480D01*
X31555098Y2037007D01*
Y2086389D01*
X31505716Y2135771D01*
X31456334Y2185153D01*
X31406952Y2234535D01*
Y2283917D01*
X31357570Y2333299D01*
Y2382681D01*
X31308188Y2432063D01*
Y2481445D01*
X31258806Y2530827D01*
Y2728355D01*
X31209424Y2777737D01*
Y2876501D01*
X31456334D01*
X31505716Y2925883D01*
X31802008D01*
Y2777737D01*
X31851390Y2728355D01*
Y2629591D01*
X31900772Y2580209D01*
X31950154Y2530827D01*
Y2481445D01*
X31999536Y2432063D01*
X32048918Y2382681D01*
Y2333299D01*
X32098300Y2283917D01*
X32147682D01*
X32197064Y2234535D01*
X32246446Y2185153D01*
X32493356D01*
X32542738Y2135771D01*
X32641502D01*
X32690884Y2185153D01*
X32888412D01*
X32937794Y2234535D01*
X32987176D01*
X33036558Y2283917D01*
X33085940D01*
X33135322Y2333299D01*
X33184704D01*
X33234086Y2382681D01*
X33283468Y2432063D01*
X33332850Y2481445D01*
X33382232Y2530827D01*
X33431614Y2580209D01*
Y2629591D01*
X33480996Y2678973D01*
Y2728355D01*
X33530378Y2777737D01*
X33579760Y2827119D01*
Y2925883D01*
X33629142Y2975265D01*
Y3172793D01*
X33678524Y3222175D01*
Y3370321D01*
X33727906Y3419703D01*
Y3913523D01*
X33678524Y3962905D01*
X33629142Y3913523D01*
X33579760Y3864141D01*
X33530378Y3814759D01*
X33480996Y3765377D01*
X33431614Y3715995D01*
X33382232Y3666613D01*
X33332850Y3617231D01*
X33283468D01*
X33234086Y3567849D01*
X33184704Y3518467D01*
X33036558D01*
X32987176Y3469085D01*
X32888412D01*
X32839030Y3419703D01*
X32295828D01*
X32246446Y3469085D01*
X32147682D01*
X32098300Y3518467D01*
X31999536D01*
X31950154Y3567849D01*
X31900772Y3617231D01*
X31851390D01*
X31802008Y3666613D01*
X31752626D01*
X31703244Y3715995D01*
X31653862Y3765377D01*
X31604480D01*
X31555098Y3814759D01*
X31505716Y3864141D01*
X31456334Y3913523D01*
X31406952Y3962905D01*
Y4012287D01*
X31357570Y4061669D01*
Y4111051D01*
X31308188Y4160433D01*
Y4209815D01*
X31258806Y4259197D01*
Y4308579D01*
X31209424Y4357961D01*
Y4506107D01*
X31160042Y4555489D01*
Y4654253D01*
X31110660Y4703635D01*
Y5394983D01*
X31160042Y5444365D01*
Y5543129D01*
X31209424Y5592511D01*
Y5740657D01*
X31258806Y5790039D01*
Y5839421D01*
X31308188Y5888803D01*
Y5938185D01*
X31357570Y5987567D01*
X31406952Y6036949D01*
X31456334Y6086331D01*
Y6135713D01*
X31505716Y6185095D01*
X31555098Y6234477D01*
X31604480Y6283859D01*
X31653862Y6333241D01*
X31703244Y6382623D01*
X31752626Y6432005D01*
X31802008Y6481387D01*
X31851390Y6530769D01*
X31900772D01*
X31950154Y6580151D01*
X32098300D01*
X32147682Y6629533D01*
X32246446D01*
X32295828Y6678915D01*
X32493356Y6728297D01*
G37*
%LPC*%
G36*
X32493356Y6185095D02*
X32987176D01*
X33036558Y6135713D01*
X33085940D01*
X33135322Y6086331D01*
X33184704D01*
X33234086Y6036949D01*
X33283468Y5987567D01*
X33332850D01*
X33382232Y5938185D01*
X33431614Y5888803D01*
X33480996Y5839421D01*
Y5790039D01*
X33530378Y5740657D01*
Y5691275D01*
X33579760Y5641893D01*
Y5592511D01*
X33629142Y5543129D01*
Y5444365D01*
X33678524Y5394983D01*
Y4703635D01*
X33629142Y4654253D01*
Y4604871D01*
X33579760Y4555489D01*
Y4506107D01*
X33530378Y4456725D01*
Y4407343D01*
X33480996Y4357961D01*
Y4308579D01*
X33431614Y4259197D01*
X33382232Y4209815D01*
X33332850D01*
X33283468Y4160433D01*
X33234086Y4111051D01*
X33184704D01*
X33135322Y4061669D01*
X33085940Y4012287D01*
X33036558D01*
X32987176Y3962905D01*
X32443974D01*
X32394592Y4012287D01*
X32345210D01*
X32295828Y4061669D01*
X32246446D01*
X32197064Y4111051D01*
X32147682D01*
X32098300Y4160433D01*
X32048918Y4209815D01*
X31999536Y4259197D01*
X31950154Y4308579D01*
Y4357961D01*
X31900772Y4407343D01*
X31851390Y4456725D01*
Y4506107D01*
X31802008Y4555489D01*
Y4654253D01*
X31752626Y4703635D01*
Y4901163D01*
X31703244Y4950545D01*
Y5148073D01*
X31752626Y5197455D01*
Y5394983D01*
X31802008Y5444365D01*
Y5543129D01*
X31851390Y5592511D01*
Y5641893D01*
X31900772Y5691275D01*
X31950154Y5740657D01*
Y5790039D01*
X31999536Y5839421D01*
X32048918Y5888803D01*
X32098300Y5938185D01*
X32147682Y5987567D01*
X32197064Y6036949D01*
X32246446Y6086331D01*
X32295828D01*
X32345210Y6135713D01*
X32493356Y6185095D01*
G37*
%LPD*%
G36*
X36443916Y6728297D02*
X36641444D01*
X36690826Y6678915D01*
X36987118D01*
X37036500Y6629533D01*
X37135264D01*
X37184646Y6580151D01*
X37234028D01*
X37283410Y6530769D01*
X37332792Y6481387D01*
X37382174D01*
X37431556Y6432005D01*
X37480938Y6382623D01*
X37530320D01*
X37579702Y6333241D01*
X37629084Y6283859D01*
Y6234477D01*
X37678466Y6185095D01*
X37727848Y6135713D01*
X37777230Y6086331D01*
Y6036949D01*
X37826612Y5987567D01*
Y5938185D01*
X37875994Y5888803D01*
X37925376Y5839421D01*
Y5691275D01*
X37974758Y5641893D01*
Y5592511D01*
X38024140Y5543129D01*
Y5493747D01*
X38073522Y5444365D01*
Y5296219D01*
X38122904Y5246837D01*
Y4999927D01*
X38172286Y4950545D01*
Y3617231D01*
X38122904Y3567849D01*
Y3271557D01*
X38073522Y3222175D01*
Y2925883D01*
X38024140Y2876501D01*
Y2777737D01*
X37974758Y2728355D01*
Y2678973D01*
X37925376Y2629591D01*
Y2530827D01*
X37875994Y2481445D01*
X37826612Y2432063D01*
Y2382681D01*
X37777230Y2333299D01*
Y2283917D01*
X37727848Y2234535D01*
X37678466Y2185153D01*
X37629084Y2135771D01*
Y2086389D01*
X37579702Y2037007D01*
X37530320Y1987625D01*
X37480938Y1938243D01*
X37431556D01*
X37382174Y1888861D01*
X37332792D01*
X37283410Y1839479D01*
X37234028Y1790097D01*
X37184646D01*
X37135264Y1740715D01*
X36987118D01*
X36937736Y1691333D01*
X36740208D01*
X36690826Y1641951D01*
X36443916D01*
X36394534Y1691333D01*
X36147624D01*
X36098242Y1740715D01*
X36048860D01*
X35999478Y1790097D01*
X35900714D01*
X35851332Y1839479D01*
X35801950D01*
X35752568Y1888861D01*
X35703186D01*
X35653804Y1938243D01*
X35604422Y1987625D01*
X35555040Y2037007D01*
X35505658Y2086389D01*
X35456276Y2135771D01*
Y2185153D01*
X35406894Y2234535D01*
Y2283917D01*
X35357512Y2333299D01*
X35308130Y2382681D01*
Y2432063D01*
X35258748Y2481445D01*
X35209366Y2530827D01*
Y2580209D01*
X35159984Y2629591D01*
Y2728355D01*
X35110602Y2777737D01*
Y2876501D01*
X35061220Y2925883D01*
Y3123411D01*
X35011838Y3172793D01*
Y3370321D01*
X34962456Y3419703D01*
Y4753017D01*
X35011838Y4802399D01*
Y5098691D01*
X35061220Y5148073D01*
Y5444365D01*
X35110602Y5493747D01*
Y5592511D01*
X35159984Y5641893D01*
Y5691275D01*
X35209366Y5740657D01*
Y5839421D01*
X35258748Y5888803D01*
X35308130Y5938185D01*
Y5987567D01*
X35357512Y6036949D01*
Y6086331D01*
X35406894Y6135713D01*
X35456276Y6185095D01*
X35505658Y6234477D01*
Y6283859D01*
X35555040Y6333241D01*
X35604422D01*
X35653804Y6382623D01*
X35703186Y6432005D01*
X35752568Y6481387D01*
X35801950D01*
X35851332Y6530769D01*
X35900714Y6580151D01*
X35950096D01*
X35999478Y6629533D01*
X36147624D01*
X36197006Y6678915D01*
X36443916Y6728297D01*
G37*
%LPC*%
G36*
X36295770Y6185095D02*
X36838972D01*
X36888354Y6135713D01*
X36937736D01*
X36987118Y6086331D01*
X37036500Y6036949D01*
X37085882Y5987567D01*
X37135264Y5938185D01*
X37184646Y5888803D01*
X37234028Y5839421D01*
X37283410Y5790039D01*
Y5740657D01*
X37332792Y5691275D01*
Y5641893D01*
X37382174Y5592511D01*
Y5493747D01*
X37431556Y5444365D01*
Y5296219D01*
X37480938Y5246837D01*
Y4999927D01*
X37530320Y4950545D01*
Y4209815D01*
X37579702Y4160433D01*
Y3913523D01*
X37530320Y3864141D01*
Y3419703D01*
X37480938Y3370321D01*
Y3123411D01*
X37431556Y3074029D01*
Y2925883D01*
X37382174Y2876501D01*
Y2728355D01*
X37332792Y2678973D01*
Y2629591D01*
X37283410Y2580209D01*
X37234028Y2530827D01*
X37184646Y2481445D01*
Y2432063D01*
X37135264Y2382681D01*
X37085882Y2333299D01*
X37036500D01*
X36987118Y2283917D01*
X36937736Y2234535D01*
X36888354D01*
X36838972Y2185153D01*
X36690826D01*
X36641444Y2135771D01*
X36493298D01*
X36443916Y2185153D01*
X36295770D01*
X36246388Y2234535D01*
X36197006D01*
X36147624Y2283917D01*
X36098242Y2333299D01*
X36048860D01*
X35999478Y2382681D01*
X35950096Y2432063D01*
Y2481445D01*
X35900714Y2530827D01*
X35851332Y2580209D01*
Y2629591D01*
X35801950Y2678973D01*
Y2728355D01*
X35752568Y2777737D01*
Y2876501D01*
X35703186Y2925883D01*
Y3024647D01*
X35653804Y3074029D01*
Y3370321D01*
X35604422Y3419703D01*
Y3913523D01*
X35555040Y3962905D01*
Y4456725D01*
X35604422Y4506107D01*
Y4950545D01*
X35653804Y4999927D01*
Y5296219D01*
X35703186Y5345601D01*
Y5493747D01*
X35752568Y5543129D01*
Y5592511D01*
X35801950Y5641893D01*
Y5691275D01*
X35851332Y5740657D01*
Y5790039D01*
X35900714Y5839421D01*
X35950096Y5888803D01*
Y5938185D01*
X35999478Y5987567D01*
X36048860Y6036949D01*
X36098242D01*
X36147624Y6086331D01*
X36197006Y6135713D01*
X36295770Y6185095D01*
G37*
%LPD*%
G36*
X39110544Y6678915D02*
X39851274D01*
Y5197455D01*
X39801892Y5148073D01*
Y4308579D01*
X39752510Y4259197D01*
Y3419703D01*
X39703128Y3370321D01*
Y2975265D01*
X39308072D01*
Y3271557D01*
X39258690Y3320939D01*
Y3913523D01*
X39209308Y3962905D01*
Y4604871D01*
X39159926Y4654253D01*
Y5246837D01*
X39110544Y5296219D01*
Y6678915D01*
G37*
%LPD*%
G36*
X39159926Y2432063D02*
X39851274D01*
Y1740715D01*
X39159926D01*
Y2432063D01*
G37*
%LPD*%
G36*
X43900598Y6777679D02*
X44641328D01*
X44690710Y6728297D01*
X44838856D01*
X44888238Y6678915D01*
X45036384D01*
X45085766Y6629533D01*
X45184530D01*
X45233912Y6580151D01*
X45332676D01*
X45382058Y6530769D01*
X45431440D01*
X45480822Y6481387D01*
X45530204D01*
X45579586Y6432005D01*
X45678350D01*
X45727732Y6382623D01*
X45777114D01*
X45826496Y6333241D01*
X45875878Y6283859D01*
X45925260D01*
X45974642Y6234477D01*
X46024024Y6185095D01*
X46073406Y6135713D01*
X46122788D01*
X46172170Y6086331D01*
X46221552Y6036949D01*
X46270934Y5987567D01*
X46320316Y5938185D01*
X46369698Y5888803D01*
X46419080Y5839421D01*
X46468462Y5790039D01*
X46517844Y5740657D01*
X46567226Y5691275D01*
Y5641893D01*
X46616608Y5592511D01*
X46665990Y5543129D01*
Y5493747D01*
X46715372Y5444365D01*
Y5394983D01*
X46764754Y5345601D01*
Y5296219D01*
X46814136Y5246837D01*
Y5197455D01*
X46863518Y5148073D01*
Y5049309D01*
X46912900Y4999927D01*
Y4901163D01*
X46962282Y4851781D01*
Y4703635D01*
X47011664Y4654253D01*
Y4357961D01*
X47061046Y4308579D01*
Y3962905D01*
X47011664Y3913523D01*
Y3617231D01*
X46962282Y3567849D01*
Y3419703D01*
X46912900Y3370321D01*
Y3271557D01*
X46863518Y3222175D01*
X46814136Y3172793D01*
Y3123411D01*
X46764754Y3074029D01*
Y3024647D01*
X46715372Y2975265D01*
Y2925883D01*
X46665990Y2876501D01*
Y2827119D01*
X46616608Y2777737D01*
X46567226Y2728355D01*
Y2678973D01*
X46517844Y2629591D01*
X46468462Y2580209D01*
X46419080Y2530827D01*
Y2481445D01*
X46369698Y2432063D01*
X46320316Y2382681D01*
X46270934Y2333299D01*
X46221552Y2283917D01*
X46172170Y2234535D01*
X46122788Y2185153D01*
X46073406Y2135771D01*
X46024024Y2086389D01*
X45974642Y2037007D01*
X45925260D01*
X45875878Y1987625D01*
X45826496Y1938243D01*
X45777114D01*
X45727732Y1888861D01*
X45628968D01*
X45579586Y1839479D01*
X45480822D01*
X45431440Y1790097D01*
X45382058D01*
X45332676Y1740715D01*
X44740092D01*
X44690710Y1790097D01*
X44641328D01*
X44591946Y1839479D01*
X44542564D01*
X44493182Y1888861D01*
X44443800Y1938243D01*
Y1987625D01*
X44394418Y2037007D01*
Y2234535D01*
X44345036Y2283917D01*
X44295654Y2234535D01*
X44246272Y2185153D01*
X44196890Y2135771D01*
X44147508Y2086389D01*
X44098126Y2037007D01*
X44048744Y1987625D01*
X43999362D01*
X43949980Y1938243D01*
X43900598Y1888861D01*
X43851216D01*
X43801834Y1839479D01*
X43752452D01*
X43703070Y1790097D01*
X43604306D01*
X43554924Y1740715D01*
X43159868D01*
X43110486Y1790097D01*
X43011722D01*
X42962340Y1839479D01*
X42863576D01*
X42814194Y1888861D01*
X42764812D01*
X42715430Y1938243D01*
X42666048Y1987625D01*
X42616666D01*
X42567284Y2037007D01*
X42517902Y2086389D01*
X42468520Y2135771D01*
X42419138Y2185153D01*
Y2234535D01*
X42369756Y2283917D01*
X42320374Y2333299D01*
Y2382681D01*
X42270992Y2432063D01*
Y2530827D01*
X42221610Y2580209D01*
Y2629591D01*
X42172228Y2678973D01*
Y2827119D01*
X42122846Y2876501D01*
Y3617231D01*
X42172228Y3666613D01*
Y3814759D01*
X42221610Y3864141D01*
Y3913523D01*
X42270992Y3962905D01*
Y4111051D01*
X42320374Y4160433D01*
Y4209815D01*
X42369756Y4259197D01*
Y4308579D01*
X42419138Y4357961D01*
X42468520Y4407343D01*
Y4456725D01*
X42517902Y4506107D01*
Y4555489D01*
X42567284Y4604871D01*
X42616666Y4654253D01*
Y4703635D01*
X42666048Y4753017D01*
X42715430Y4802399D01*
X42764812Y4851781D01*
X42814194Y4901163D01*
X42863576Y4950545D01*
X42912958Y4999927D01*
X42962340Y5049309D01*
X43011722Y5098691D01*
X43061104Y5148073D01*
X43110486D01*
X43159868Y5197455D01*
X43209250D01*
X43258632Y5246837D01*
X43308014D01*
X43357396Y5296219D01*
X43406778D01*
X43456160Y5345601D01*
X43554924D01*
X43604306Y5394983D01*
X44098126D01*
X44147508Y5345601D01*
X44246272D01*
X44295654Y5296219D01*
X44345036Y5246837D01*
X44443800D01*
X44493182Y5197455D01*
X44542564Y5148073D01*
X44591946Y5098691D01*
X44641328Y5049309D01*
X44690710D01*
X44740092Y4999927D01*
Y4950545D01*
X44789474Y4901163D01*
X44838856Y4851781D01*
X44888238Y4901163D01*
X44937620Y4950545D01*
Y5148073D01*
X44987002Y5197455D01*
Y5296219D01*
X45579586D01*
Y5197455D01*
X45530204Y5148073D01*
Y4950545D01*
X45480822Y4901163D01*
Y4703635D01*
X45431440Y4654253D01*
Y4456725D01*
X45382058Y4407343D01*
Y4209815D01*
X45332676Y4160433D01*
Y3962905D01*
X45283294Y3913523D01*
Y3715995D01*
X45233912Y3666613D01*
Y3469085D01*
X45184530Y3419703D01*
Y3222175D01*
X45135148Y3172793D01*
Y3074029D01*
X45085766Y3024647D01*
Y2777737D01*
X45036384Y2728355D01*
Y2580209D01*
X44987002Y2530827D01*
Y2481445D01*
X45036384Y2432063D01*
Y2382681D01*
X45085766Y2333299D01*
X45135148D01*
X45184530Y2283917D01*
X45332676D01*
X45382058Y2333299D01*
X45480822D01*
X45530204Y2382681D01*
X45579586Y2432063D01*
X45628968Y2481445D01*
X45678350D01*
X45727732Y2530827D01*
X45777114Y2580209D01*
X45826496D01*
X45875878Y2629591D01*
X45925260Y2678973D01*
X45974642Y2728355D01*
X46024024Y2777737D01*
X46073406Y2827119D01*
X46122788Y2876501D01*
Y2925883D01*
X46172170Y2975265D01*
X46221552Y3024647D01*
X46270934Y3074029D01*
Y3123411D01*
X46320316Y3172793D01*
Y3271557D01*
X46369698Y3320939D01*
Y3370321D01*
X46419080Y3419703D01*
Y3518467D01*
X46468462Y3567849D01*
Y3666613D01*
X46517844Y3715995D01*
Y4012287D01*
X46567226Y4061669D01*
Y4259197D01*
X46517844Y4308579D01*
Y4506107D01*
X46468462Y4555489D01*
Y4753017D01*
X46419080Y4802399D01*
Y4851781D01*
X46369698Y4901163D01*
Y4999927D01*
X46320316Y5049309D01*
Y5098691D01*
X46270934Y5148073D01*
Y5197455D01*
X46221552Y5246837D01*
X46172170Y5296219D01*
Y5345601D01*
X46122788Y5394983D01*
X46073406Y5444365D01*
X46024024Y5493747D01*
X45974642Y5543129D01*
Y5592511D01*
X45925260Y5641893D01*
X45875878Y5691275D01*
X45826496Y5740657D01*
X45777114Y5790039D01*
X45727732D01*
X45678350Y5839421D01*
X45628968Y5888803D01*
X45579586D01*
X45530204Y5938185D01*
X45480822D01*
X45431440Y5987567D01*
X45332676D01*
X45283294Y6036949D01*
X45233912D01*
X45184530Y6086331D01*
X45135148D01*
X45085766Y6135713D01*
X44987002D01*
X44937620Y6185095D01*
X44838856D01*
X44789474Y6234477D01*
X44690710D01*
X44641328Y6283859D01*
X43752452D01*
X43703070Y6234477D01*
X43604306D01*
X43554924Y6185095D01*
X43308014D01*
X43258632Y6135713D01*
X43159868D01*
X43110486Y6086331D01*
X43011722D01*
X42962340Y6036949D01*
X42912958D01*
X42863576Y5987567D01*
X42814194D01*
X42764812Y5938185D01*
X42715430D01*
X42666048Y5888803D01*
X42616666Y5839421D01*
X42567284D01*
X42517902Y5790039D01*
X42468520D01*
X42419138Y5740657D01*
X42369756Y5691275D01*
X42320374Y5641893D01*
X42270992Y5592511D01*
X42221610D01*
X42172228Y5543129D01*
X42122846Y5493747D01*
X42073464Y5444365D01*
X42024082Y5394983D01*
X41974700Y5345601D01*
Y5296219D01*
X41925318Y5246837D01*
X41875936Y5197455D01*
Y5148073D01*
X41826554Y5098691D01*
Y5049309D01*
X41777172Y4999927D01*
X41727790Y4950545D01*
Y4901163D01*
X41678408Y4851781D01*
Y4802399D01*
X41629026Y4753017D01*
Y4703635D01*
X41579644Y4654253D01*
Y4604871D01*
X41530262Y4555489D01*
Y4456725D01*
X41480880Y4407343D01*
Y4259197D01*
X41431498Y4209815D01*
Y4160433D01*
X41382116Y4111051D01*
Y4012287D01*
X41332734Y3962905D01*
Y2827119D01*
X41382116Y2777737D01*
Y2629591D01*
X41431498Y2580209D01*
Y2530827D01*
X41480880Y2481445D01*
Y2382681D01*
X41530262Y2333299D01*
Y2234535D01*
X41579644Y2185153D01*
Y2135771D01*
X41629026Y2086389D01*
Y2037007D01*
X41678408Y1987625D01*
Y1938243D01*
X41727790Y1888861D01*
X41777172Y1839479D01*
Y1790097D01*
X41826554Y1740715D01*
X41875936Y1691333D01*
X41925318Y1641951D01*
X41974700Y1592569D01*
X42024082Y1543187D01*
X42073464Y1493805D01*
X42122846Y1444423D01*
X42172228Y1395041D01*
X42221610Y1345659D01*
X42270992D01*
X42320374Y1296277D01*
X42369756Y1246895D01*
X42419138Y1197513D01*
X42468520Y1148131D01*
X42517902D01*
X42567284Y1098749D01*
X42616666D01*
X42666048Y1049367D01*
X42814194D01*
X42863576Y999985D01*
X42962340D01*
X43011722Y950603D01*
X43159868D01*
X43209250Y901221D01*
X43308014D01*
X43357396Y851839D01*
X43604306D01*
X43653688Y802457D01*
X44838856D01*
X44888238Y851839D01*
X45135148D01*
X45184530Y901221D01*
X45283294D01*
X45332676Y950603D01*
X45480822D01*
X45530204Y999985D01*
X45579586D01*
X45628968Y1049367D01*
X45678350D01*
X45727732Y1098749D01*
X45777114Y1148131D01*
X45826496D01*
X45875878Y1197513D01*
X45925260D01*
X45974642Y1246895D01*
X46024024Y1296277D01*
X46073406D01*
X46122788Y1345659D01*
X46172170D01*
X46221552Y1395041D01*
X46270934Y1444423D01*
X46320316Y1493805D01*
X46369698Y1543187D01*
X46419080Y1592569D01*
X46468462Y1641951D01*
X46517844Y1691333D01*
Y1740715D01*
X46567226Y1790097D01*
X47209192D01*
X47159810Y1740715D01*
Y1691333D01*
X47110428Y1641951D01*
X47061046Y1592569D01*
Y1543187D01*
X47011664Y1493805D01*
X46962282Y1444423D01*
X46912900Y1395041D01*
Y1345659D01*
X46863518Y1296277D01*
X46814136Y1246895D01*
X46764754Y1197513D01*
X46715372Y1148131D01*
X46665990D01*
X46616608Y1098749D01*
X46567226Y1049367D01*
X46517844Y999985D01*
X46468462Y950603D01*
X46419080Y901221D01*
X46369698D01*
X46320316Y851839D01*
X46270934Y802457D01*
X46221552D01*
X46172170Y753075D01*
X46122788D01*
X46073406Y703693D01*
X46024024Y654311D01*
X45974642D01*
X45925260Y604929D01*
X45826496D01*
X45777114Y555547D01*
X45727732D01*
X45678350Y506165D01*
X45530204D01*
X45480822Y456783D01*
X45431440D01*
X45382058Y407401D01*
X45184530D01*
X45135148Y358019D01*
X44838856D01*
X44789474Y308637D01*
X43554924D01*
X43505542Y358019D01*
X43406778D01*
X43357396Y407401D01*
X43061104D01*
X43011722Y456783D01*
X42863576D01*
X42814194Y506165D01*
X42715430D01*
X42666048Y555547D01*
X42567284D01*
X42517902Y604929D01*
X42468520D01*
X42419138Y654311D01*
X42369756D01*
X42320374Y703693D01*
X42270992D01*
X42221610Y753075D01*
X42172228Y802457D01*
X42122846D01*
X42073464Y851839D01*
X42024082D01*
X41974700Y901221D01*
X41925318Y950603D01*
X41875936Y999985D01*
X41826554D01*
X41777172Y1049367D01*
X41727790Y1098749D01*
X41678408Y1148131D01*
X41629026Y1197513D01*
X41579644Y1246895D01*
X41530262Y1296277D01*
X41480880Y1345659D01*
Y1395041D01*
X41431498Y1444423D01*
X41382116Y1493805D01*
X41332734Y1543187D01*
X41283352Y1592569D01*
Y1641951D01*
X41233970Y1691333D01*
X41184588Y1740715D01*
X41135206Y1790097D01*
Y1839479D01*
X41085824Y1888861D01*
Y2037007D01*
X41036442Y2086389D01*
Y2135771D01*
X40987060Y2185153D01*
Y2333299D01*
X40937678Y2382681D01*
Y2481445D01*
X40888296Y2530827D01*
Y2728355D01*
X40838914Y2777737D01*
Y3913523D01*
X40888296Y3962905D01*
Y4209815D01*
X40937678Y4259197D01*
Y4407343D01*
X40987060Y4456725D01*
Y4506107D01*
X41036442Y4555489D01*
Y4604871D01*
X41085824Y4654253D01*
Y4753017D01*
X41135206Y4802399D01*
Y4851781D01*
X41184588Y4901163D01*
Y4950545D01*
X41233970Y4999927D01*
Y5049309D01*
X41283352Y5098691D01*
Y5148073D01*
X41332734Y5197455D01*
Y5246837D01*
X41382116Y5296219D01*
Y5345601D01*
X41431498Y5394983D01*
Y5444365D01*
X41480880Y5493747D01*
X41530262Y5543129D01*
X41579644Y5592511D01*
Y5641893D01*
X41629026Y5691275D01*
X41678408Y5740657D01*
X41727790Y5790039D01*
X41777172Y5839421D01*
X41826554Y5888803D01*
X41875936Y5938185D01*
X41925318Y5987567D01*
X41974700Y6036949D01*
X42024082Y6086331D01*
X42073464D01*
X42122846Y6135713D01*
X42172228Y6185095D01*
X42221610Y6234477D01*
X42270992D01*
X42320374Y6283859D01*
X42369756Y6333241D01*
X42419138D01*
X42468520Y6382623D01*
X42517902D01*
X42567284Y6432005D01*
X42616666D01*
X42666048Y6481387D01*
X42715430D01*
X42764812Y6530769D01*
X42814194D01*
X42863576Y6580151D01*
X42912958D01*
X42962340Y6629533D01*
X43061104D01*
X43110486Y6678915D01*
X43357396D01*
X43406778Y6728297D01*
X43900598Y6777679D01*
G37*
%LPC*%
G36*
X43752452Y4901163D02*
X44048744D01*
X44098126Y4851781D01*
X44196890D01*
X44246272Y4802399D01*
X44295654D01*
X44345036Y4753017D01*
X44394418Y4703635D01*
X44443800Y4654253D01*
X44493182Y4604871D01*
Y4555489D01*
X44542564Y4506107D01*
X44591946Y4456725D01*
Y4407343D01*
X44641328Y4357961D01*
Y4259197D01*
X44690710Y4209815D01*
Y3666613D01*
X44641328Y3617231D01*
Y3518467D01*
X44591946Y3469085D01*
Y3271557D01*
X44542564Y3222175D01*
Y3172793D01*
X44493182Y3123411D01*
Y3024647D01*
X44443800Y2975265D01*
Y2925883D01*
X44394418Y2876501D01*
X44345036Y2827119D01*
Y2777737D01*
X44295654Y2728355D01*
X44246272Y2678973D01*
X44196890Y2629591D01*
X44147508Y2580209D01*
X44098126Y2530827D01*
X44048744Y2481445D01*
X43999362Y2432063D01*
X43949980Y2382681D01*
X43900598D01*
X43851216Y2333299D01*
X43801834D01*
X43752452Y2283917D01*
X43653688D01*
X43604306Y2234535D01*
X43258632D01*
X43209250Y2283917D01*
X43159868Y2333299D01*
X43110486D01*
X43061104Y2382681D01*
X43011722Y2432063D01*
X42962340Y2481445D01*
X42912958Y2530827D01*
Y2580209D01*
X42863576Y2629591D01*
Y2678973D01*
X42814194Y2728355D01*
Y2777737D01*
X42764812Y2827119D01*
Y3074029D01*
X42715430Y3123411D01*
Y3419703D01*
X42764812Y3469085D01*
Y3666613D01*
X42814194Y3715995D01*
Y3814759D01*
X42863576Y3864141D01*
Y3962905D01*
X42912958Y4012287D01*
Y4061669D01*
X42962340Y4111051D01*
Y4160433D01*
X43011722Y4209815D01*
Y4259197D01*
X43061104Y4308579D01*
Y4357961D01*
X43110486Y4407343D01*
X43159868Y4456725D01*
Y4506107D01*
X43209250Y4555489D01*
X43258632Y4604871D01*
X43308014Y4654253D01*
X43357396Y4703635D01*
X43406778Y4753017D01*
X43456160D01*
X43505542Y4802399D01*
X43554924D01*
X43604306Y4851781D01*
X43752452Y4901163D01*
G37*
%LPD*%
G36*
X48838798Y6777679D02*
X49332618D01*
Y6629533D01*
X49283236Y6580151D01*
Y6432005D01*
X49233854Y6382623D01*
Y6185095D01*
X49184472Y6135713D01*
Y5938185D01*
X49135090Y5888803D01*
Y5740657D01*
X49085708Y5691275D01*
Y5493747D01*
X49036326Y5444365D01*
Y5394983D01*
X49085708Y5345601D01*
X50073348D01*
X50122730Y5394983D01*
Y5444365D01*
X50172112Y5493747D01*
Y5641893D01*
X50221494Y5691275D01*
Y5888803D01*
X50270876Y5938185D01*
Y6135713D01*
X50320258Y6185095D01*
Y6333241D01*
X50369640Y6382623D01*
Y6580151D01*
X50419022Y6629533D01*
Y6777679D01*
X50912842D01*
Y6629533D01*
X50863460Y6580151D01*
Y6432005D01*
X50814078Y6382623D01*
Y6185095D01*
X50764696Y6135713D01*
Y5938185D01*
X50715314Y5888803D01*
Y5740657D01*
X50665932Y5691275D01*
Y5493747D01*
X50616550Y5444365D01*
Y5394983D01*
X50665932Y5345601D01*
X51209134D01*
Y4802399D01*
X50567168D01*
X50517786Y4753017D01*
Y4703635D01*
X50468404Y4654253D01*
Y4456725D01*
X50419022Y4407343D01*
Y4259197D01*
X50369640Y4209815D01*
Y4012287D01*
X50320258Y3962905D01*
Y3765377D01*
X50270876Y3715995D01*
Y3666613D01*
X50320258Y3617231D01*
X51209134D01*
Y3074029D01*
X50221494D01*
X50172112Y3024647D01*
Y2975265D01*
X50122730Y2925883D01*
Y2777737D01*
X50073348Y2728355D01*
Y2530827D01*
X50023966Y2481445D01*
Y2283917D01*
X49974584Y2234535D01*
Y2086389D01*
X49925202Y2037007D01*
Y1839479D01*
X49875820Y1790097D01*
Y1641951D01*
X49382000D01*
Y1790097D01*
X49431382Y1839479D01*
Y1987625D01*
X49480764Y2037007D01*
Y2234535D01*
X49530146Y2283917D01*
Y2481445D01*
X49579528Y2530827D01*
Y2678973D01*
X49628910Y2728355D01*
Y2925883D01*
X49678292Y2975265D01*
Y3024647D01*
X49628910Y3074029D01*
X48641270D01*
X48591888Y3024647D01*
Y2975265D01*
X48542506Y2925883D01*
Y2777737D01*
X48493124Y2728355D01*
Y2530827D01*
X48443742Y2481445D01*
Y2283917D01*
X48394360Y2234535D01*
Y2086389D01*
X48344978Y2037007D01*
Y1839479D01*
X48295596Y1790097D01*
Y1641951D01*
X47801776D01*
Y1790097D01*
X47851158Y1839479D01*
Y1987625D01*
X47900540Y2037007D01*
Y2234535D01*
X47949922Y2283917D01*
Y2481445D01*
X47999304Y2530827D01*
Y2678973D01*
X48048686Y2728355D01*
Y2925883D01*
X48098068Y2975265D01*
Y3024647D01*
X48048686Y3074029D01*
X47505484D01*
Y3617231D01*
X48147450D01*
X48196832Y3666613D01*
Y3715995D01*
X48246214Y3765377D01*
Y3962905D01*
X48295596Y4012287D01*
Y4160433D01*
X48344978Y4209815D01*
Y4407343D01*
X48394360Y4456725D01*
Y4654253D01*
X48443742Y4703635D01*
Y4753017D01*
X48394360Y4802399D01*
X47505484D01*
Y5345601D01*
X48493124D01*
X48542506Y5394983D01*
Y5444365D01*
X48591888Y5493747D01*
Y5641893D01*
X48641270Y5691275D01*
Y5888803D01*
X48690652Y5938185D01*
Y6135713D01*
X48740034Y6185095D01*
Y6333241D01*
X48789416Y6382623D01*
Y6580151D01*
X48838798Y6629533D01*
Y6777679D01*
G37*
%LPC*%
G36*
X48937562Y4802399D02*
X50023966D01*
Y4703635D01*
X49974584Y4654253D01*
Y4456725D01*
X49925202Y4407343D01*
Y4209815D01*
X49875820Y4160433D01*
Y4012287D01*
X49826438Y3962905D01*
Y3765377D01*
X49777056Y3715995D01*
Y3617231D01*
X48690652D01*
Y3715995D01*
X48740034Y3765377D01*
Y3962905D01*
X48789416Y4012287D01*
Y4209815D01*
X48838798Y4259197D01*
Y4407343D01*
X48888180Y4456725D01*
Y4654253D01*
X48937562Y4703635D01*
Y4802399D01*
G37*
%LPD*%
G36*
X53036268Y7123353D02*
X53381942D01*
Y6876443D01*
X53431324Y6827061D01*
X53727616D01*
X53776998Y6777679D01*
X53826380D01*
X53875762Y6728297D01*
X53925144D01*
X53974526Y6678915D01*
X54023908D01*
X54073290Y6629533D01*
X54122672Y6580151D01*
X54172054D01*
X54221436Y6530769D01*
X54270818Y6481387D01*
X54320200Y6432005D01*
X54369582Y6382623D01*
X54418964Y6333241D01*
X54468346Y6283859D01*
Y6234477D01*
X54517728Y6185095D01*
X54567110Y6135713D01*
Y6086331D01*
X54616492Y6036949D01*
Y5938185D01*
X54665874Y5888803D01*
Y5790039D01*
X54715256Y5740657D01*
Y5641893D01*
X54567110D01*
X54517728Y5592511D01*
X54270818D01*
X54221436Y5543129D01*
X54073290D01*
Y5691275D01*
X54023908Y5740657D01*
Y5839421D01*
X53974526Y5888803D01*
Y5938185D01*
X53925144Y5987567D01*
X53875762Y6036949D01*
Y6086331D01*
X53826380Y6135713D01*
X53776998Y6185095D01*
X53727616D01*
X53678234Y6234477D01*
X53628852D01*
X53579470Y6283859D01*
X53530088D01*
X53480706Y6333241D01*
X53431324D01*
X53381942Y6283859D01*
Y4604871D01*
X53431324Y4555489D01*
X53579470D01*
X53628852Y4506107D01*
X53776998D01*
X53826380Y4456725D01*
X53925144D01*
X53974526Y4407343D01*
X54023908D01*
X54073290Y4357961D01*
X54122672D01*
X54172054Y4308579D01*
X54221436D01*
X54270818Y4259197D01*
X54320200Y4209815D01*
X54369582D01*
X54418964Y4160433D01*
X54468346Y4111051D01*
X54517728Y4061669D01*
X54567110Y4012287D01*
X54616492Y3962905D01*
Y3913523D01*
X54665874Y3864141D01*
Y3814759D01*
X54715256Y3765377D01*
Y3666613D01*
X54764638Y3617231D01*
Y3518467D01*
X54814020Y3469085D01*
Y2777737D01*
X54764638Y2728355D01*
Y2678973D01*
X54715256Y2629591D01*
Y2530827D01*
X54665874Y2481445D01*
Y2432063D01*
X54616492Y2382681D01*
Y2333299D01*
X54567110Y2283917D01*
X54517728Y2234535D01*
Y2185153D01*
X54468346Y2135771D01*
X54418964Y2086389D01*
X54369582Y2037007D01*
X54320200Y1987625D01*
X54270818D01*
X54221436Y1938243D01*
X54172054Y1888861D01*
X54122672Y1839479D01*
X54073290D01*
X54023908Y1790097D01*
X53974526D01*
X53925144Y1740715D01*
X53875762D01*
X53826380Y1691333D01*
X53579470D01*
X53530088Y1641951D01*
X53431324D01*
X53381942Y1592569D01*
Y1049367D01*
X53036268D01*
Y1592569D01*
X52986886Y1641951D01*
X52838740D01*
X52789358Y1691333D01*
X52641212D01*
X52591830Y1740715D01*
X52542448D01*
X52493066Y1790097D01*
X52394302D01*
X52344920Y1839479D01*
X52295538D01*
X52246156Y1888861D01*
X52196774D01*
X52147392Y1938243D01*
X52098010Y1987625D01*
X52048628D01*
X51999246Y2037007D01*
X51949864Y2086389D01*
Y2135771D01*
X51900482Y2185153D01*
X51851100Y2234535D01*
X51801718Y2283917D01*
Y2333299D01*
X51752336Y2382681D01*
Y2432063D01*
X51702954Y2481445D01*
Y2530827D01*
X51653572Y2580209D01*
Y2728355D01*
X51604190Y2777737D01*
Y2876501D01*
X51554808Y2925883D01*
Y3123411D01*
X51653572D01*
X51702954Y3172793D01*
X51949864D01*
X51999246Y3222175D01*
X52147392D01*
Y3172793D01*
X52196774Y3123411D01*
Y2925883D01*
X52246156Y2876501D01*
Y2827119D01*
X52295538Y2777737D01*
Y2678973D01*
X52344920Y2629591D01*
X52394302Y2580209D01*
Y2530827D01*
X52443684Y2481445D01*
X52493066Y2432063D01*
X52542448Y2382681D01*
X52591830Y2333299D01*
X52641212Y2283917D01*
X52690594D01*
X52739976Y2234535D01*
X52789358Y2185153D01*
X52888122D01*
X52937504Y2135771D01*
X52986886D01*
X53036268Y2185153D01*
Y4061669D01*
X52986886Y4111051D01*
X52789358D01*
X52739976Y4160433D01*
X52690594D01*
X52641212Y4209815D01*
X52591830D01*
X52542448Y4259197D01*
X52443684D01*
X52394302Y4308579D01*
X52344920D01*
X52295538Y4357961D01*
X52246156Y4407343D01*
X52196774Y4456725D01*
X52147392D01*
X52098010Y4506107D01*
X52048628Y4555489D01*
X51999246D01*
X51949864Y4604871D01*
Y4654253D01*
X51900482Y4703635D01*
X51851100Y4753017D01*
Y4802399D01*
X51801718Y4851781D01*
X51752336Y4901163D01*
Y4999927D01*
X51702954Y5049309D01*
Y5197455D01*
X51653572Y5246837D01*
Y5592511D01*
X51702954Y5641893D01*
Y5888803D01*
X51752336Y5938185D01*
Y6036949D01*
X51801718Y6086331D01*
X51851100Y6135713D01*
Y6185095D01*
X51900482Y6234477D01*
Y6283859D01*
X51949864Y6333241D01*
X51999246Y6382623D01*
X52048628Y6432005D01*
X52098010Y6481387D01*
X52147392Y6530769D01*
X52196774Y6580151D01*
X52246156Y6629533D01*
X52295538D01*
X52344920Y6678915D01*
X52394302D01*
X52443684Y6728297D01*
X52493066D01*
X52542448Y6777679D01*
X52591830D01*
X52641212Y6827061D01*
X52986886D01*
X53036268Y6876443D01*
Y7123353D01*
G37*
%LPC*%
G36*
X52888122Y6333241D02*
X53036268D01*
Y4654253D01*
X52986886Y4703635D01*
X52937504D01*
X52888122Y4753017D01*
X52739976D01*
X52690594Y4802399D01*
X52641212Y4851781D01*
X52591830D01*
X52542448Y4901163D01*
X52493066Y4950545D01*
X52443684Y4999927D01*
X52394302Y5049309D01*
Y5098691D01*
X52344920Y5148073D01*
Y5197455D01*
X52295538Y5246837D01*
Y5444365D01*
X52246156Y5493747D01*
Y5592511D01*
X52295538Y5641893D01*
Y5790039D01*
X52344920Y5839421D01*
Y5888803D01*
X52394302Y5938185D01*
Y5987567D01*
X52443684Y6036949D01*
X52493066Y6086331D01*
X52542448Y6135713D01*
X52591830Y6185095D01*
X52641212D01*
X52690594Y6234477D01*
X52739976Y6283859D01*
X52888122Y6333241D01*
G37*
%LPC*%
G36*
X53381942Y4012287D02*
X53431324Y3962905D01*
X53480706D01*
X53530088Y3913523D01*
X53628852D01*
X53678234Y3864141D01*
X53727616D01*
X53776998Y3814759D01*
X53875762D01*
X53925144Y3765377D01*
X53974526Y3715995D01*
X54023908Y3666613D01*
X54073290Y3617231D01*
Y3567849D01*
X54122672Y3518467D01*
Y3469085D01*
X54172054Y3419703D01*
Y3271557D01*
X54221436Y3222175D01*
Y3024647D01*
X54172054Y2975265D01*
Y2777737D01*
X54122672Y2728355D01*
Y2678973D01*
X54073290Y2629591D01*
Y2580209D01*
X54023908Y2530827D01*
X53974526Y2481445D01*
X53925144Y2432063D01*
X53875762Y2382681D01*
X53826380Y2333299D01*
X53776998Y2283917D01*
X53727616Y2234535D01*
X53628852D01*
X53579470Y2185153D01*
X53480706D01*
X53431324Y2135771D01*
X53381942D01*
Y4012287D01*
G37*
%LPD*%
G36*
X56394244Y6777679D02*
X56789300D01*
X56838682Y6728297D01*
X56888064D01*
X56937446Y6678915D01*
X57036210D01*
X57085592Y6629533D01*
X57134974D01*
X57184356Y6580151D01*
X57233738D01*
X57283120Y6530769D01*
X57332502Y6481387D01*
X57381884Y6432005D01*
X57431266Y6382623D01*
Y6333241D01*
X57480648Y6283859D01*
X57530030Y6234477D01*
Y6185095D01*
X57579412Y6135713D01*
Y6036949D01*
X57628794Y5987567D01*
Y5938185D01*
X57678176Y5888803D01*
Y5098691D01*
X57628794Y5049309D01*
Y4950545D01*
X57579412Y4901163D01*
Y4851781D01*
X57530030Y4802399D01*
Y4703635D01*
X57480648Y4654253D01*
X57431266Y4604871D01*
Y4555489D01*
X57381884Y4506107D01*
X57332502Y4456725D01*
X57283120Y4407343D01*
X57233738Y4357961D01*
X57184356D01*
X57134974Y4308579D01*
X57085592D01*
X57036210Y4259197D01*
X56986828Y4209815D01*
X56937446D01*
X56888064Y4160433D01*
X56394244D01*
X56344862Y4209815D01*
X56295480D01*
X56246098Y4259197D01*
X56147334D01*
X56097952Y4308579D01*
X56048570D01*
X55999188Y4357961D01*
X55949806Y4407343D01*
X55900424Y4456725D01*
X55851042Y4506107D01*
X55801660Y4555489D01*
Y4604871D01*
X55752278Y4654253D01*
X55702896Y4703635D01*
Y4753017D01*
X55653514Y4802399D01*
Y4901163D01*
X55604132Y4950545D01*
Y5296219D01*
X55554750Y5345601D01*
Y5740657D01*
X55604132Y5790039D01*
Y5987567D01*
X55653514Y6036949D01*
Y6086331D01*
X55702896Y6135713D01*
Y6185095D01*
X55752278Y6234477D01*
Y6283859D01*
X55801660Y6333241D01*
Y6382623D01*
X55851042Y6432005D01*
X55900424Y6481387D01*
X55949806Y6530769D01*
X55999188Y6580151D01*
X56048570Y6629533D01*
X56097952D01*
X56147334Y6678915D01*
X56246098D01*
X56295480Y6728297D01*
X56394244Y6777679D01*
G37*
%LPD*%
G36*
X59307782Y6777679D02*
X59801602D01*
Y6728297D01*
X59752220Y6678915D01*
Y6629533D01*
X59702838Y6580151D01*
Y6530769D01*
X59653456Y6481387D01*
Y6432005D01*
X59604074Y6382623D01*
Y6333241D01*
X59554692Y6283859D01*
Y6234477D01*
X59505310Y6185095D01*
Y6135713D01*
X59455928Y6086331D01*
Y6036949D01*
X59406546Y5987567D01*
Y5938185D01*
X59357164Y5888803D01*
Y5839421D01*
X59307782Y5790039D01*
Y5740657D01*
X59258400Y5691275D01*
Y5641893D01*
X59209018Y5592511D01*
Y5543129D01*
X59159636Y5493747D01*
X59110254Y5444365D01*
Y5394983D01*
X59060872Y5345601D01*
Y5296219D01*
X59011490Y5246837D01*
Y5197455D01*
X58962108Y5148073D01*
Y5098691D01*
X58912726Y5049309D01*
Y4999927D01*
X58863344Y4950545D01*
Y4901163D01*
X58813962Y4851781D01*
Y4802399D01*
X58764580Y4753017D01*
Y4703635D01*
X58715198Y4654253D01*
Y4604871D01*
X58665816Y4555489D01*
Y4506107D01*
X58616434Y4456725D01*
Y4407343D01*
X58567052Y4357961D01*
Y4308579D01*
X58517670Y4259197D01*
Y4209815D01*
X58468288Y4160433D01*
X58418906Y4111051D01*
Y4061669D01*
X58369524Y4012287D01*
Y3962905D01*
X58320142Y3913523D01*
Y3864141D01*
X58270760Y3814759D01*
Y3765377D01*
X58221378Y3715995D01*
Y3666613D01*
X58171996Y3617231D01*
Y3567849D01*
X58122614Y3518467D01*
Y3469085D01*
X58073232Y3419703D01*
Y3370321D01*
X58023850Y3320939D01*
Y3271557D01*
X57974468Y3222175D01*
Y3172793D01*
X57925086Y3123411D01*
Y3074029D01*
X57875704Y3024647D01*
Y2975265D01*
X57826322Y2925883D01*
X57776940Y2876501D01*
Y2827119D01*
X57727558Y2777737D01*
Y2728355D01*
X57678176Y2678973D01*
Y2629591D01*
X57628794Y2580209D01*
Y2530827D01*
X57579412Y2481445D01*
Y2432063D01*
X57530030Y2382681D01*
Y2333299D01*
X57480648Y2283917D01*
Y2234535D01*
X57431266Y2185153D01*
Y2135771D01*
X57381884Y2086389D01*
Y2037007D01*
X57332502Y1987625D01*
Y1938243D01*
X57283120Y1888861D01*
Y1839479D01*
X57233738Y1790097D01*
Y1740715D01*
X57184356Y1691333D01*
Y1641951D01*
X57134974Y1592569D01*
Y1543187D01*
X56641154D01*
Y1592569D01*
X56690536Y1641951D01*
Y1691333D01*
X56739918Y1740715D01*
Y1790097D01*
X56789300Y1839479D01*
Y1888861D01*
X56838682Y1938243D01*
Y1987625D01*
X56888064Y2037007D01*
Y2086389D01*
X56937446Y2135771D01*
Y2185153D01*
X56986828Y2234535D01*
Y2283917D01*
X57036210Y2333299D01*
Y2382681D01*
X57085592Y2432063D01*
Y2481445D01*
X57134974Y2530827D01*
Y2580209D01*
X57184356Y2629591D01*
Y2678973D01*
X57233738Y2728355D01*
Y2777737D01*
X57283120Y2827119D01*
X57332502Y2876501D01*
Y2925883D01*
X57381884Y2975265D01*
Y3024647D01*
X57431266Y3074029D01*
Y3123411D01*
X57480648Y3172793D01*
Y3222175D01*
X57530030Y3271557D01*
Y3320939D01*
X57579412Y3370321D01*
Y3419703D01*
X57628794Y3469085D01*
Y3518467D01*
X57678176Y3567849D01*
Y3617231D01*
X57727558Y3666613D01*
Y3715995D01*
X57776940Y3765377D01*
Y3814759D01*
X57826322Y3864141D01*
Y3913523D01*
X57875704Y3962905D01*
Y4012287D01*
X57925086Y4061669D01*
Y4111051D01*
X57974468Y4160433D01*
X58023850Y4209815D01*
Y4259197D01*
X58073232Y4308579D01*
Y4357961D01*
X58122614Y4407343D01*
Y4456725D01*
X58171996Y4506107D01*
Y4555489D01*
X58221378Y4604871D01*
Y4654253D01*
X58270760Y4703635D01*
Y4753017D01*
X58320142Y4802399D01*
Y4851781D01*
X58369524Y4901163D01*
Y4950545D01*
X58418906Y4999927D01*
Y5049309D01*
X58468288Y5098691D01*
Y5148073D01*
X58517670Y5197455D01*
Y5246837D01*
X58567052Y5296219D01*
Y5345601D01*
X58616434Y5394983D01*
X58665816Y5444365D01*
Y5493747D01*
X58715198Y5543129D01*
Y5592511D01*
X58764580Y5641893D01*
Y5691275D01*
X58813962Y5740657D01*
Y5790039D01*
X58863344Y5839421D01*
Y5888803D01*
X58912726Y5938185D01*
Y5987567D01*
X58962108Y6036949D01*
Y6086331D01*
X59011490Y6135713D01*
Y6185095D01*
X59060872Y6234477D01*
Y6283859D01*
X59110254Y6333241D01*
Y6382623D01*
X59159636Y6432005D01*
Y6481387D01*
X59209018Y6530769D01*
Y6580151D01*
X59258400Y6629533D01*
Y6678915D01*
X59307782Y6728297D01*
Y6777679D01*
G37*
%LPC*%
G36*
X56443626Y6333241D02*
X56789300D01*
X56838682Y6283859D01*
X56888064D01*
X56937446Y6234477D01*
X56986828Y6185095D01*
Y6135713D01*
X57036210Y6086331D01*
X57085592Y6036949D01*
Y5938185D01*
X57134974Y5888803D01*
Y5049309D01*
X57085592Y4999927D01*
Y4901163D01*
X57036210Y4851781D01*
Y4802399D01*
X56986828Y4753017D01*
X56937446Y4703635D01*
X56888064Y4654253D01*
X56838682D01*
X56789300Y4604871D01*
X56690536D01*
X56641154Y4555489D01*
X56591772D01*
X56542390Y4604871D01*
X56443626D01*
X56394244Y4654253D01*
X56344862D01*
X56295480Y4703635D01*
X56246098Y4753017D01*
Y4802399D01*
X56196716Y4851781D01*
X56147334Y4901163D01*
Y5098691D01*
X56097952Y5148073D01*
Y5740657D01*
X56147334Y5790039D01*
Y5938185D01*
X56196716Y5987567D01*
Y6086331D01*
X56246098Y6135713D01*
Y6185095D01*
X56295480Y6234477D01*
X56344862Y6283859D01*
X56443626Y6333241D01*
G37*
%LPD*%
G36*
X59505310Y4160433D02*
X60097894D01*
X60147276Y4111051D01*
X60196658D01*
X60246040Y4061669D01*
X60295422D01*
X60344804Y4012287D01*
X60394186D01*
X60443568Y3962905D01*
X60492950Y3913523D01*
X60542332Y3864141D01*
X60591714Y3814759D01*
X60641096Y3765377D01*
Y3715995D01*
X60690478Y3666613D01*
X60739860Y3617231D01*
Y3567849D01*
X60789242Y3518467D01*
Y3320939D01*
X60838624Y3271557D01*
Y3172793D01*
X60888006Y3123411D01*
Y2728355D01*
X60838624Y2678973D01*
Y2481445D01*
X60789242Y2432063D01*
Y2283917D01*
X60739860Y2234535D01*
Y2185153D01*
X60690478Y2135771D01*
Y2037007D01*
X60641096Y1987625D01*
X60591714Y1938243D01*
X60542332Y1888861D01*
X60492950Y1839479D01*
X60443568Y1790097D01*
X60394186Y1740715D01*
X60344804Y1691333D01*
X60295422D01*
X60246040Y1641951D01*
X60196658D01*
X60147276Y1592569D01*
X59949748D01*
X59900366Y1543187D01*
X59752220D01*
X59702838Y1592569D01*
X59505310D01*
X59455928Y1641951D01*
X59357164D01*
X59307782Y1691333D01*
X59258400D01*
X59209018Y1740715D01*
X59159636Y1790097D01*
X59110254Y1839479D01*
X59060872Y1888861D01*
X59011490Y1938243D01*
X58962108Y1987625D01*
Y2037007D01*
X58912726Y2086389D01*
Y2135771D01*
X58863344Y2185153D01*
Y2283917D01*
X58813962Y2333299D01*
Y2432063D01*
X58764580Y2481445D01*
Y3222175D01*
X58813962Y3271557D01*
Y3419703D01*
X58863344Y3469085D01*
Y3518467D01*
X58912726Y3567849D01*
Y3617231D01*
X58962108Y3666613D01*
Y3715995D01*
X59011490Y3765377D01*
X59060872Y3814759D01*
X59110254Y3864141D01*
Y3913523D01*
X59159636Y3962905D01*
X59209018D01*
X59258400Y4012287D01*
X59307782Y4061669D01*
X59357164D01*
X59406546Y4111051D01*
X59505310Y4160433D01*
G37*
%LPC*%
G36*
X59752220Y3765377D02*
X59900366D01*
X59949748Y3715995D01*
X60048512D01*
X60097894Y3666613D01*
X60147276Y3617231D01*
X60196658Y3567849D01*
X60246040Y3518467D01*
Y3469085D01*
X60295422Y3419703D01*
Y3222175D01*
X60344804Y3172793D01*
Y2580209D01*
X60295422Y2530827D01*
Y2333299D01*
X60246040Y2283917D01*
Y2234535D01*
X60196658Y2185153D01*
X60147276Y2135771D01*
X60097894Y2086389D01*
X60048512Y2037007D01*
X59999130D01*
X59949748Y1987625D01*
X59653456D01*
X59604074Y2037007D01*
X59554692D01*
X59505310Y2086389D01*
X59455928Y2135771D01*
Y2185153D01*
X59406546Y2234535D01*
X59357164Y2283917D01*
Y2382681D01*
X59307782Y2432063D01*
Y3271557D01*
X59357164Y3320939D01*
Y3419703D01*
X59406546Y3469085D01*
Y3518467D01*
X59455928Y3567849D01*
X59505310Y3617231D01*
X59554692Y3666613D01*
X59604074Y3715995D01*
X59752220Y3765377D01*
G37*
%LPD*%
G36*
X62665758Y6777679D02*
X63159578D01*
Y6678915D01*
X63208960Y6629533D01*
Y6580151D01*
X63258342Y6530769D01*
Y6481387D01*
X63307724Y6432005D01*
Y6382623D01*
X63357106Y6333241D01*
Y6234477D01*
X63406488Y6185095D01*
Y6135713D01*
X63455870Y6086331D01*
Y6036949D01*
X63505252Y5987567D01*
Y5938185D01*
X63554634Y5888803D01*
Y5790039D01*
X63604016Y5740657D01*
Y5691275D01*
X63653398Y5641893D01*
Y5592511D01*
X63702780Y5543129D01*
Y5493747D01*
X63752162Y5444365D01*
Y5345601D01*
X63801544Y5296219D01*
Y5246837D01*
X63850926Y5197455D01*
Y5148073D01*
X63900308Y5098691D01*
Y4999927D01*
X63949690Y4950545D01*
Y4901163D01*
X63999072Y4851781D01*
Y4802399D01*
X64048454Y4753017D01*
Y4703635D01*
X64097836Y4654253D01*
Y4555489D01*
X64147218Y4506107D01*
Y4456725D01*
X64196600Y4407343D01*
Y4357961D01*
X64245982Y4308579D01*
Y4259197D01*
X64295364Y4209815D01*
Y4061669D01*
X63752162D01*
X63702780Y4111051D01*
Y4160433D01*
X63653398Y4209815D01*
Y4259197D01*
X63604016Y4308579D01*
Y4407343D01*
X63554634Y4456725D01*
Y4506107D01*
X63505252Y4555489D01*
Y4604871D01*
X63455870Y4654253D01*
Y4753017D01*
X63406488Y4802399D01*
Y4851781D01*
X63357106Y4901163D01*
Y4999927D01*
X63307724Y5049309D01*
Y5098691D01*
X63258342Y5148073D01*
Y5246837D01*
X63208960Y5296219D01*
Y5345601D01*
X63159578Y5394983D01*
Y5493747D01*
X63110196Y5543129D01*
Y5592511D01*
X63060814Y5641893D01*
Y5691275D01*
X63011432Y5740657D01*
Y5839421D01*
X62962050Y5888803D01*
Y5938185D01*
X62912668Y5987567D01*
X62863286D01*
X62813904Y5938185D01*
Y5888803D01*
X62764522Y5839421D01*
Y5740657D01*
X62715140Y5691275D01*
Y5592511D01*
X62665758Y5543129D01*
Y5493747D01*
X62616376Y5444365D01*
Y5345601D01*
X62566994Y5296219D01*
Y5246837D01*
X62517612Y5197455D01*
Y5098691D01*
X62468230Y5049309D01*
Y4950545D01*
X62418848Y4901163D01*
Y4851781D01*
X62369466Y4802399D01*
Y4703635D01*
X62320084Y4654253D01*
Y4604871D01*
X62270702Y4555489D01*
Y4456725D01*
X62221320Y4407343D01*
Y4308579D01*
X62171938Y4259197D01*
Y4209815D01*
X62122556Y4160433D01*
Y4111051D01*
X62073174Y4061669D01*
X61480590D01*
Y4160433D01*
X61529972Y4209815D01*
Y4259197D01*
X61579354Y4308579D01*
Y4357961D01*
X61628736Y4407343D01*
Y4506107D01*
X61678118Y4555489D01*
Y4604871D01*
X61727500Y4654253D01*
Y4703635D01*
X61776882Y4753017D01*
Y4802399D01*
X61826264Y4851781D01*
Y4950545D01*
X61875646Y4999927D01*
Y5049309D01*
X61925028Y5098691D01*
Y5148073D01*
X61974410Y5197455D01*
Y5296219D01*
X62023792Y5345601D01*
Y5394983D01*
X62073174Y5444365D01*
Y5493747D01*
X62122556Y5543129D01*
Y5641893D01*
X62171938Y5691275D01*
Y5740657D01*
X62221320Y5790039D01*
Y5839421D01*
X62270702Y5888803D01*
Y5987567D01*
X62320084Y6036949D01*
Y6086331D01*
X62369466Y6135713D01*
Y6185095D01*
X62418848Y6234477D01*
Y6283859D01*
X62468230Y6333241D01*
Y6432005D01*
X62517612Y6481387D01*
Y6530769D01*
X62566994Y6580151D01*
Y6629533D01*
X62616376Y6678915D01*
X62665758Y6777679D01*
G37*
%LPD*%
G36*
X66270644Y6777679D02*
X66715082D01*
X66764464Y6728297D01*
X66912610D01*
X66961992Y6678915D01*
X67011374D01*
X67060756Y6629533D01*
X67110138D01*
X67159520Y6580151D01*
X67208902Y6530769D01*
X67258284D01*
X67307666Y6481387D01*
X67357048Y6432005D01*
X67406430Y6382623D01*
Y6333241D01*
X67455812Y6283859D01*
X67505194Y6234477D01*
Y6185095D01*
X67554576Y6135713D01*
Y6036949D01*
X67603958Y5987567D01*
Y5839421D01*
X67653340Y5790039D01*
Y5592511D01*
X67603958Y5543129D01*
Y5394983D01*
X67554576Y5345601D01*
X67505194Y5296219D01*
Y5246837D01*
X67455812Y5197455D01*
Y5148073D01*
X67406430Y5098691D01*
Y5049309D01*
X67357048Y4999927D01*
X67307666Y4950545D01*
X67258284Y4901163D01*
X67208902Y4851781D01*
X67159520Y4802399D01*
X67110138Y4753017D01*
X67060756Y4703635D01*
X67011374D01*
X66961992Y4654253D01*
X66912610Y4604871D01*
X66863228D01*
X66813846Y4555489D01*
X66764464D01*
X66715082Y4506107D01*
X66764464Y4456725D01*
X66813846Y4407343D01*
Y4357961D01*
X66863228Y4308579D01*
X66912610Y4259197D01*
X66961992Y4209815D01*
Y4160433D01*
X67011374Y4111051D01*
X67060756Y4061669D01*
X67110138Y4012287D01*
X67159520Y3962905D01*
Y3913523D01*
X67208902Y3864141D01*
X67258284Y3814759D01*
X67307666Y3765377D01*
Y3715995D01*
X67357048Y3666613D01*
X67406430Y3617231D01*
X67455812Y3567849D01*
Y3518467D01*
X67505194Y3469085D01*
X67554576Y3419703D01*
X67603958D01*
X67653340Y3469085D01*
Y3518467D01*
X67702722Y3567849D01*
Y3666613D01*
X67752104Y3715995D01*
Y3765377D01*
X67801486Y3814759D01*
Y3962905D01*
X67850868Y4012287D01*
Y4061669D01*
X67949632D01*
X67999014Y4012287D01*
X68245924D01*
X68295306Y3962905D01*
X68443452D01*
Y3814759D01*
X68394070Y3765377D01*
Y3567849D01*
X68344688Y3518467D01*
Y3469085D01*
X68295306Y3419703D01*
Y3370321D01*
X68245924Y3320939D01*
X68196542Y3271557D01*
Y3222175D01*
X68147160Y3172793D01*
Y3074029D01*
X68097778Y3024647D01*
Y2975265D01*
X68048396Y2925883D01*
Y2827119D01*
X68097778Y2777737D01*
X68147160Y2728355D01*
X68196542Y2678973D01*
Y2629591D01*
X68245924Y2580209D01*
X68295306Y2530827D01*
X68344688Y2481445D01*
X68394070Y2432063D01*
X68443452Y2382681D01*
X68492834Y2333299D01*
X68542216D01*
X68591598Y2283917D01*
X68640980Y2234535D01*
X68690362Y2185153D01*
X68739744D01*
X68789126Y2135771D01*
Y2086389D01*
X68739744Y2037007D01*
X68690362Y1987625D01*
X68640980Y1938243D01*
X68591598Y1888861D01*
Y1839479D01*
X68542216Y1790097D01*
X68492834Y1740715D01*
X68443452Y1691333D01*
X68394070Y1641951D01*
X68344688D01*
X68295306Y1691333D01*
X68245924Y1740715D01*
X68196542D01*
X68147160Y1790097D01*
X68097778Y1839479D01*
X68048396Y1888861D01*
X67999014Y1938243D01*
X67949632Y1987625D01*
X67900250Y2037007D01*
X67850868Y2086389D01*
X67801486Y2135771D01*
X67752104Y2185153D01*
X67702722Y2234535D01*
X67653340Y2283917D01*
X67603958D01*
X67554576Y2234535D01*
X67505194Y2185153D01*
X67455812Y2135771D01*
X67406430Y2086389D01*
X67357048D01*
X67307666Y2037007D01*
X67258284Y1987625D01*
X67208902D01*
X67159520Y1938243D01*
X67110138Y1888861D01*
X67060756Y1839479D01*
X66961992D01*
X66912610Y1790097D01*
X66863228D01*
X66813846Y1740715D01*
X66715082D01*
X66665700Y1691333D01*
X66418790D01*
X66369408Y1641951D01*
X66073116D01*
X66023734Y1691333D01*
X65776824D01*
X65727442Y1740715D01*
X65628678D01*
X65579296Y1790097D01*
X65529914D01*
X65480532Y1839479D01*
X65431150D01*
X65381768Y1888861D01*
X65332386D01*
X65283004Y1938243D01*
X65233622D01*
X65184240Y1987625D01*
X65134858Y2037007D01*
X65085476Y2086389D01*
X65036094Y2135771D01*
X64986712Y2185153D01*
X64937330Y2234535D01*
X64887948Y2283917D01*
Y2333299D01*
X64838566Y2382681D01*
X64789184Y2432063D01*
Y2481445D01*
X64739802Y2530827D01*
Y2678973D01*
X64690420Y2728355D01*
Y2827119D01*
X64641038Y2876501D01*
Y3320939D01*
X64690420Y3370321D01*
Y3518467D01*
X64739802Y3567849D01*
Y3617231D01*
X64789184Y3666613D01*
Y3715995D01*
X64838566Y3765377D01*
X64887948Y3814759D01*
Y3864141D01*
X64937330Y3913523D01*
X64986712Y3962905D01*
X65036094Y4012287D01*
Y4061669D01*
X65085476Y4111051D01*
X65134858Y4160433D01*
X65184240Y4209815D01*
X65233622D01*
X65283004Y4259197D01*
X65332386Y4308579D01*
X65381768Y4357961D01*
X65431150D01*
X65480532Y4407343D01*
X65529914D01*
X65579296Y4456725D01*
X65628678Y4506107D01*
X65678060D01*
X65727442Y4555489D01*
X65776824D01*
X65826206Y4604871D01*
X65776824Y4654253D01*
X65727442Y4703635D01*
X65678060Y4753017D01*
X65628678Y4802399D01*
X65579296Y4851781D01*
Y4901163D01*
X65529914Y4950545D01*
X65480532Y4999927D01*
Y5049309D01*
X65431150Y5098691D01*
X65381768Y5148073D01*
Y5246837D01*
X65332386Y5296219D01*
Y5345601D01*
X65283004Y5394983D01*
Y5938185D01*
X65332386Y5987567D01*
Y6086331D01*
X65381768Y6135713D01*
X65431150Y6185095D01*
Y6234477D01*
X65480532Y6283859D01*
X65529914Y6333241D01*
Y6382623D01*
X65579296Y6432005D01*
X65628678Y6481387D01*
X65678060Y6530769D01*
X65727442D01*
X65776824Y6580151D01*
X65826206D01*
X65875588Y6629533D01*
X65924970D01*
X65974352Y6678915D01*
X66073116D01*
X66122498Y6728297D01*
X66270644Y6777679D01*
G37*
%LPC*%
G36*
X66369408Y6283859D02*
X66566936D01*
X66616318Y6234477D01*
X66715082D01*
X66764464Y6185095D01*
X66813846Y6135713D01*
X66863228D01*
Y6086331D01*
X66912610Y6036949D01*
X66961992Y5987567D01*
Y5938185D01*
X67011374Y5888803D01*
Y5444365D01*
X66961992Y5394983D01*
X66912610Y5345601D01*
Y5296219D01*
X66863228Y5246837D01*
X66813846Y5197455D01*
X66764464Y5148073D01*
X66715082Y5098691D01*
X66665700D01*
X66616318Y5049309D01*
X66566936Y4999927D01*
X66517554Y4950545D01*
X66468172D01*
X66418790Y4901163D01*
X66369408Y4950545D01*
X66320026Y4999927D01*
X66270644Y5049309D01*
X66221262Y5098691D01*
X66171880Y5148073D01*
X66122498Y5197455D01*
Y5246837D01*
X66073116Y5296219D01*
X66023734Y5345601D01*
X65974352Y5394983D01*
Y5444365D01*
X65924970Y5493747D01*
Y5592511D01*
X65875588Y5641893D01*
Y5888803D01*
X65924970Y5938185D01*
X65974352Y5987567D01*
Y6036949D01*
X66023734Y6086331D01*
X66073116Y6135713D01*
X66122498Y6185095D01*
X66171880D01*
X66221262Y6234477D01*
X66369408Y6283859D01*
G37*
%LPC*%
G36*
X66122498Y4160433D02*
X66171880D01*
X66221262Y4111051D01*
X66270644Y4061669D01*
Y4012287D01*
X66320026Y3962905D01*
X66369408Y3913523D01*
X66418790Y3864141D01*
Y3814759D01*
X66468172Y3765377D01*
X66517554Y3715995D01*
X66566936Y3666613D01*
X66616318Y3617231D01*
Y3567849D01*
X66665700Y3518467D01*
X66715082Y3469085D01*
X66764464Y3419703D01*
Y3370321D01*
X66813846Y3320939D01*
X66863228Y3271557D01*
X66912610Y3222175D01*
X66961992Y3172793D01*
Y3123411D01*
X67011374Y3074029D01*
X67060756Y3024647D01*
X67110138Y2975265D01*
Y2925883D01*
X67159520Y2876501D01*
X67208902Y2827119D01*
Y2728355D01*
X67159520Y2678973D01*
X67110138Y2629591D01*
X67060756Y2580209D01*
X67011374Y2530827D01*
X66961992Y2481445D01*
X66912610Y2432063D01*
X66863228D01*
X66813846Y2382681D01*
X66764464Y2333299D01*
X66715082D01*
X66665700Y2283917D01*
X66566936D01*
X66517554Y2234535D01*
X66418790D01*
X66369408Y2185153D01*
X66122498D01*
X66073116Y2234535D01*
X65924970D01*
X65875588Y2283917D01*
X65826206D01*
X65776824Y2333299D01*
X65727442D01*
X65678060Y2382681D01*
X65628678Y2432063D01*
X65579296Y2481445D01*
X65529914Y2530827D01*
Y2580209D01*
X65480532Y2629591D01*
X65431150Y2678973D01*
Y2728355D01*
X65381768Y2777737D01*
Y2827119D01*
X65332386Y2876501D01*
Y3074029D01*
X65283004Y3123411D01*
Y3222175D01*
X65332386Y3271557D01*
Y3419703D01*
X65381768Y3469085D01*
Y3567849D01*
X65431150Y3617231D01*
X65480532Y3666613D01*
X65529914Y3715995D01*
X65579296Y3765377D01*
X65628678Y3814759D01*
X65678060Y3864141D01*
X65727442Y3913523D01*
X65776824Y3962905D01*
X65826206D01*
X65875588Y4012287D01*
X65924970Y4061669D01*
X65974352D01*
X66023734Y4111051D01*
X66122498Y4160433D01*
G37*
%LPD*%
G36*
X70023676Y6777679D02*
X70517496D01*
Y6530769D01*
X70468114Y6481387D01*
Y6086331D01*
X70418732Y6036949D01*
Y5987567D01*
X70468114Y5938185D01*
X70517496Y5987567D01*
X70566878D01*
X70616260Y6036949D01*
X70665642D01*
X70715024Y6086331D01*
X70813788D01*
X70863170Y6135713D01*
X70912552D01*
X70961934Y6185095D01*
X71060698D01*
X71110080Y6234477D01*
X71258226D01*
Y6185095D01*
X71307608Y6135713D01*
Y6036949D01*
X71356990Y5987567D01*
Y5888803D01*
X71406372Y5839421D01*
Y5790039D01*
X71307608D01*
X71258226Y5740657D01*
X71208844D01*
X71159462Y5691275D01*
X71110080D01*
X71060698Y5641893D01*
X70764406D01*
X70715024Y5592511D01*
X70665642D01*
X70616260Y5543129D01*
X70665642Y5493747D01*
X70715024Y5444365D01*
X70764406Y5394983D01*
X70813788Y5345601D01*
Y5296219D01*
X70863170Y5246837D01*
X70912552Y5197455D01*
X70961934Y5148073D01*
X71011316Y5098691D01*
X71060698Y5049309D01*
Y4999927D01*
X71110080Y4950545D01*
X71060698Y4901163D01*
X71011316D01*
X70961934Y4851781D01*
X70912552Y4802399D01*
X70863170Y4753017D01*
X70813788D01*
X70764406Y4703635D01*
X70715024Y4654253D01*
X70665642Y4703635D01*
Y4753017D01*
X70616260Y4802399D01*
X70566878Y4851781D01*
Y4901163D01*
X70517496Y4950545D01*
Y4999927D01*
X70468114Y5049309D01*
Y5098691D01*
X70418732Y5148073D01*
X70369350Y5197455D01*
X70319968Y5246837D01*
Y5296219D01*
X70270586Y5345601D01*
X70221204Y5296219D01*
X70171822Y5246837D01*
Y5197455D01*
X70122440Y5148073D01*
X70073058Y5098691D01*
Y5049309D01*
X70023676Y4999927D01*
Y4950545D01*
X69974294Y4901163D01*
Y4851781D01*
X69924912Y4802399D01*
X69875530Y4753017D01*
Y4703635D01*
X69826148Y4654253D01*
X69776766Y4703635D01*
X69727384Y4753017D01*
X69678002D01*
X69628620Y4802399D01*
X69579238Y4851781D01*
X69529856Y4901163D01*
X69480474D01*
X69431092Y4950545D01*
X69480474Y4999927D01*
X69529856Y5049309D01*
Y5098691D01*
X69579238Y5148073D01*
X69628620Y5197455D01*
X69678002Y5246837D01*
Y5296219D01*
X69727384Y5345601D01*
X69776766Y5394983D01*
X69826148Y5444365D01*
X69875530Y5493747D01*
X69924912Y5543129D01*
Y5592511D01*
X69875530Y5641893D01*
X69678002D01*
X69628620Y5691275D01*
X69480474D01*
X69431092Y5740657D01*
X69282946D01*
X69233564Y5790039D01*
X69134800D01*
Y5839421D01*
X69184182Y5888803D01*
Y5987567D01*
X69233564Y6036949D01*
Y6135713D01*
X69282946Y6185095D01*
Y6234477D01*
X69381710D01*
X69431092Y6185095D01*
X69579238D01*
X69628620Y6135713D01*
X69678002D01*
X69727384Y6086331D01*
X69826148D01*
X69875530Y6036949D01*
X69924912D01*
X69974294Y5987567D01*
X70023676Y5938185D01*
X70073058Y5987567D01*
Y6283859D01*
X70023676Y6333241D01*
Y6777679D01*
G37*
%LPD*%
G36*
X73233506Y6777679D02*
X73677944D01*
X73628562Y6728297D01*
X73579180Y6678915D01*
Y6629533D01*
X73529798Y6580151D01*
Y6530769D01*
X73480416Y6481387D01*
Y6432005D01*
X73431034Y6382623D01*
Y6333241D01*
X73381652Y6283859D01*
Y6234477D01*
X73332270Y6185095D01*
X73282888Y6135713D01*
Y6086331D01*
X73233506Y6036949D01*
Y5987567D01*
X73184124Y5938185D01*
Y5888803D01*
X73134742Y5839421D01*
Y5790039D01*
X73085360Y5740657D01*
Y5691275D01*
X73035978Y5641893D01*
Y5543129D01*
X72986596Y5493747D01*
Y5444365D01*
X72937214Y5394983D01*
Y5197455D01*
X72887832Y5148073D01*
Y5098691D01*
X72838450Y5049309D01*
Y4950545D01*
X72789068Y4901163D01*
Y4703635D01*
X72739686Y4654253D01*
Y4357961D01*
X72690304Y4308579D01*
Y4061669D01*
X72640922Y4012287D01*
Y3172793D01*
X72690304Y3123411D01*
Y2728355D01*
X72739686Y2678973D01*
Y2580209D01*
X72789068Y2530827D01*
Y2333299D01*
X72838450Y2283917D01*
Y2086389D01*
X72887832Y2037007D01*
Y1839479D01*
X72937214Y1790097D01*
Y1740715D01*
X72986596Y1691333D01*
Y1641951D01*
X73035978Y1592569D01*
Y1543187D01*
X73085360Y1493805D01*
Y1395041D01*
X73134742Y1345659D01*
Y1296277D01*
X73184124Y1246895D01*
Y1197513D01*
X73233506Y1148131D01*
Y1049367D01*
X73282888Y999985D01*
Y950603D01*
X73332270Y901221D01*
Y851839D01*
X73381652Y802457D01*
Y753075D01*
X73431034Y703693D01*
Y654311D01*
X73480416Y604929D01*
Y555547D01*
X73529798Y506165D01*
Y456783D01*
X73579180Y407401D01*
Y358019D01*
X73628562Y308637D01*
X73184124D01*
X73134742Y358019D01*
Y407401D01*
X73085360Y456783D01*
X73035978Y506165D01*
Y555547D01*
X72986596Y604929D01*
X72937214Y654311D01*
X72887832Y703693D01*
Y753075D01*
X72838450Y802457D01*
Y851839D01*
X72789068Y901221D01*
Y950603D01*
X72739686Y999985D01*
X72690304Y1049367D01*
Y1098749D01*
X72640922Y1148131D01*
Y1197513D01*
X72591540Y1246895D01*
Y1296277D01*
X72542158Y1345659D01*
Y1444423D01*
X72492776Y1493805D01*
Y1543187D01*
X72443394Y1592569D01*
Y1641951D01*
X72394012Y1691333D01*
Y1740715D01*
X72344630Y1790097D01*
Y1839479D01*
X72295248Y1888861D01*
Y2037007D01*
X72245866Y2086389D01*
Y2185153D01*
X72196484Y2234535D01*
Y2283917D01*
X72147102Y2333299D01*
Y2481445D01*
X72097720Y2530827D01*
Y2827119D01*
X72048338Y2876501D01*
Y3271557D01*
X71998956Y3320939D01*
Y3518467D01*
X72048338Y3567849D01*
Y4111051D01*
X72097720Y4160433D01*
Y4456725D01*
X72147102Y4506107D01*
Y4753017D01*
X72196484Y4802399D01*
Y4851781D01*
X72245866Y4901163D01*
Y4950545D01*
X72295248Y4999927D01*
Y5148073D01*
X72344630Y5197455D01*
Y5246837D01*
X72394012Y5296219D01*
Y5394983D01*
X72443394Y5444365D01*
Y5493747D01*
X72492776Y5543129D01*
Y5592511D01*
X72542158Y5641893D01*
Y5691275D01*
X72591540Y5740657D01*
Y5790039D01*
X72640922Y5839421D01*
Y5888803D01*
X72690304Y5938185D01*
X72739686Y5987567D01*
Y6036949D01*
X72789068Y6086331D01*
X72838450Y6135713D01*
Y6185095D01*
X72887832Y6234477D01*
Y6283859D01*
X72937214Y6333241D01*
Y6382623D01*
X72986596Y6432005D01*
Y6481387D01*
X73035978Y6530769D01*
X73085360Y6580151D01*
X73134742Y6629533D01*
Y6678915D01*
X73184124Y6728297D01*
X73233506Y6777679D01*
G37*
%LPD*%
G36*
X74369292Y6777679D02*
X74764348D01*
X74813730Y6728297D01*
X74863112Y6678915D01*
Y6629533D01*
X74912494Y6580151D01*
X74961876Y6530769D01*
X75011258Y6481387D01*
Y6432005D01*
X75060640Y6382623D01*
X75110022Y6333241D01*
X75159404Y6283859D01*
Y6234477D01*
X75208786Y6185095D01*
Y6135713D01*
X75258168Y6086331D01*
Y6036949D01*
X75307550Y5987567D01*
Y5938185D01*
X75356932Y5888803D01*
Y5839421D01*
X75406314Y5790039D01*
Y5740657D01*
X75455696Y5691275D01*
Y5641893D01*
X75505078Y5592511D01*
Y5543129D01*
X75554460Y5493747D01*
Y5444365D01*
X75603842Y5394983D01*
Y5345601D01*
X75653224Y5296219D01*
Y5197455D01*
X75702606Y5148073D01*
Y4999927D01*
X75751988Y4950545D01*
Y4901163D01*
X75801370Y4851781D01*
Y4802399D01*
X75850752Y4753017D01*
Y4555489D01*
X75900134Y4506107D01*
Y4160433D01*
X75949516Y4111051D01*
Y3765377D01*
X75998898Y3715995D01*
Y3370321D01*
X75949516Y3320939D01*
Y2925883D01*
X75900134Y2876501D01*
Y2580209D01*
X75850752Y2530827D01*
Y2382681D01*
X75801370Y2333299D01*
Y2234535D01*
X75751988Y2185153D01*
Y2135771D01*
X75702606Y2086389D01*
Y1938243D01*
X75653224Y1888861D01*
Y1790097D01*
X75603842Y1740715D01*
Y1691333D01*
X75554460Y1641951D01*
Y1592569D01*
X75505078Y1543187D01*
Y1493805D01*
X75455696Y1444423D01*
Y1345659D01*
X75406314Y1296277D01*
Y1246895D01*
X75356932Y1197513D01*
Y1148131D01*
X75307550Y1098749D01*
Y1049367D01*
X75258168Y999985D01*
X75208786Y950603D01*
X75159404Y901221D01*
Y851839D01*
X75110022Y802457D01*
Y753075D01*
X75060640Y703693D01*
Y654311D01*
X75011258Y604929D01*
X74961876Y555547D01*
Y506165D01*
X74912494Y456783D01*
X74863112Y407401D01*
Y358019D01*
X74813730Y308637D01*
X74369292D01*
X74418674Y358019D01*
Y407401D01*
X74468056Y456783D01*
Y506165D01*
X74517438Y555547D01*
Y604929D01*
X74566820Y654311D01*
Y703693D01*
X74616202Y753075D01*
Y802457D01*
X74665584Y851839D01*
Y901221D01*
X74714966Y950603D01*
Y999985D01*
X74764348Y1049367D01*
Y1148131D01*
X74813730Y1197513D01*
Y1246895D01*
X74863112Y1296277D01*
Y1345659D01*
X74912494Y1395041D01*
Y1444423D01*
X74961876Y1493805D01*
Y1592569D01*
X75011258Y1641951D01*
Y1691333D01*
X75060640Y1740715D01*
Y1790097D01*
X75110022Y1839479D01*
Y2037007D01*
X75159404Y2086389D01*
Y2283917D01*
X75208786Y2333299D01*
Y2530827D01*
X75258168Y2580209D01*
Y2678973D01*
X75307550Y2728355D01*
Y3074029D01*
X75356932Y3123411D01*
Y3962905D01*
X75307550Y4012287D01*
Y4308579D01*
X75258168Y4357961D01*
Y4604871D01*
X75208786Y4654253D01*
Y4851781D01*
X75159404Y4901163D01*
Y5049309D01*
X75110022Y5098691D01*
Y5148073D01*
X75060640Y5197455D01*
Y5345601D01*
X75011258Y5394983D01*
Y5493747D01*
X74961876Y5543129D01*
Y5592511D01*
X74912494Y5641893D01*
Y5740657D01*
X74863112Y5790039D01*
Y5839421D01*
X74813730Y5888803D01*
Y5938185D01*
X74764348Y5987567D01*
Y6036949D01*
X74714966Y6086331D01*
Y6135713D01*
X74665584Y6185095D01*
X74616202Y6234477D01*
Y6283859D01*
X74566820Y6333241D01*
Y6382623D01*
X74517438Y6432005D01*
Y6481387D01*
X74468056Y6530769D01*
Y6580151D01*
X74418674Y6629533D01*
Y6678915D01*
X74369292Y6728297D01*
Y6777679D01*
G37*
%LPD*%
G36*
X76245808Y802457D02*
X80048222D01*
Y358019D01*
X76245808D01*
Y802457D01*
G37*
%LPD*%
G36*
X81825974Y5790039D02*
X82418558D01*
Y4506107D01*
X82467940Y4456725D01*
X83751872D01*
Y3913523D01*
X82467940D01*
X82418558Y3864141D01*
Y2530827D01*
X81825974D01*
Y3864141D01*
X81776592Y3913523D01*
X80492660D01*
Y4456725D01*
X81776592D01*
X81825974Y4506107D01*
Y5790039D01*
G37*
M02*
