G04TESTA*
%FSLAX26Y26*%
%MOMM*%
%TF.CreationDate,2025-02-27T16:01:04+08*%
G01*
G75*
%LNA*%
%LPD*%
G36*
X617280Y8333312D02*
X1481472D01*
Y2962976D01*
X1543200Y2901248D01*
X4506144D01*
Y2160512D01*
X617280D01*
Y8333312D01*
G37*
%LPD*%
G36*
X6666624Y6728384D02*
X7839456D01*
X7901184Y6666656D01*
X8086368D01*
X8148096Y6604928D01*
X8209824D01*
X8271552Y6543200D01*
X8395008D01*
X8456736Y6481472D01*
X8518464D01*
X8580192Y6419744D01*
X8641920Y6358016D01*
X8703648Y6296288D01*
X8765376Y6234560D01*
X8827104Y6172832D01*
Y6111104D01*
X8888832Y6049376D01*
X8950560Y5987648D01*
Y5740736D01*
X9012288Y5679008D01*
Y2901248D01*
X9074016Y2839520D01*
Y2530880D01*
X9135744Y2469152D01*
Y2345696D01*
X9197472Y2283968D01*
X9259200Y2222240D01*
Y2160512D01*
X8456736D01*
Y2222240D01*
X8395008Y2283968D01*
Y2407424D01*
X8333280Y2469152D01*
Y2592608D01*
X8271552Y2654336D01*
X8209824Y2592608D01*
X8148096D01*
X8086368Y2530880D01*
X8024640Y2469152D01*
X7962912D01*
X7901184Y2407424D01*
X7839456Y2345696D01*
X7777728Y2283968D01*
X7654272D01*
X7592544Y2222240D01*
X7469088D01*
X7407360Y2160512D01*
X7222176D01*
X7160448Y2098784D01*
X6913536D01*
X6851808Y2037056D01*
X6543168D01*
X6481440Y2098784D01*
X6234528D01*
X6172800Y2160512D01*
X5925888D01*
X5864160Y2222240D01*
X5802432D01*
X5740704Y2283968D01*
X5678976Y2345696D01*
X5617248D01*
X5555520Y2407424D01*
X5493792Y2469152D01*
X5432064Y2530880D01*
X5370336Y2592608D01*
X5308608Y2654336D01*
X5246880Y2716064D01*
Y2901248D01*
X5185152Y2962976D01*
Y3024704D01*
X5123424Y3086432D01*
Y3518528D01*
X5185152Y3580256D01*
Y3765440D01*
X5246880Y3827168D01*
Y3888896D01*
X5308608Y3950624D01*
Y4012352D01*
X5370336Y4074080D01*
X5432064Y4135808D01*
Y4197536D01*
X5493792Y4259264D01*
X5555520Y4320992D01*
X5617248D01*
X5678976Y4382720D01*
X5740704Y4444448D01*
X5802432D01*
X5864160Y4506176D01*
X5925888D01*
X5987616Y4567904D01*
X6111072D01*
X6172800Y4629632D01*
X6296256D01*
X6357984Y4691360D01*
X6728352D01*
X6790080Y4753088D01*
X7036992D01*
X7098720Y4814816D01*
X7469088D01*
X7530816Y4876544D01*
X7777728D01*
X7839456Y4938272D01*
X8086368D01*
X8148096Y5000000D01*
X8209824D01*
X8271552Y5061728D01*
Y5246912D01*
X8209824Y5308640D01*
Y5617280D01*
X8148096Y5679008D01*
Y5740736D01*
X8086368Y5802464D01*
X8024640Y5864192D01*
X7962912Y5925920D01*
X7901184D01*
X7839456Y5987648D01*
X7777728D01*
X7716000Y6049376D01*
X7592544D01*
X7530816Y6111104D01*
X6851808D01*
X6790080Y6049376D01*
X6666624D01*
X6604896Y5987648D01*
X6481440D01*
X6419712Y5925920D01*
X6357984D01*
X6296256Y5864192D01*
X6234528Y5802464D01*
X6172800Y5740736D01*
Y5679008D01*
X6111072Y5617280D01*
X6049344Y5555552D01*
Y5432096D01*
X5987616Y5370368D01*
Y5246912D01*
X5864160D01*
X5802432Y5308640D01*
X5493792D01*
X5432064Y5370368D01*
X5246880D01*
Y5432096D01*
X5308608Y5493824D01*
Y5617280D01*
X5370336Y5679008D01*
Y5802464D01*
X5432064Y5864192D01*
Y5925920D01*
X5493792Y5987648D01*
X5555520Y6049376D01*
Y6111104D01*
X5617248Y6172832D01*
X5678976Y6234560D01*
X5740704Y6296288D01*
X5802432Y6358016D01*
X5864160D01*
X5925888Y6419744D01*
X5987616Y6481472D01*
X6049344D01*
X6111072Y6543200D01*
X6234528D01*
X6296256Y6604928D01*
X6357984D01*
X6419712Y6666656D01*
X6666624Y6728384D01*
G37*
%LPC*%
G36*
X8148096Y4382720D02*
X8271552D01*
Y4012352D01*
X8209824Y3950624D01*
Y3580256D01*
X8148096Y3518528D01*
Y3395072D01*
X8086368Y3333344D01*
Y3271616D01*
X8024640Y3209888D01*
X7962912Y3148160D01*
X7901184Y3086432D01*
X7839456Y3024704D01*
X7777728Y2962976D01*
X7716000Y2901248D01*
X7654272Y2839520D01*
X7530816D01*
X7469088Y2777792D01*
X7345632D01*
X7283904Y2716064D01*
X7160448D01*
X7098720Y2654336D01*
X6543168D01*
X6481440Y2716064D01*
X6357984D01*
X6296256Y2777792D01*
X6234528D01*
X6172800Y2839520D01*
X6111072Y2901248D01*
X6049344Y2962976D01*
Y3024704D01*
X5987616Y3086432D01*
Y3148160D01*
X5925888Y3209888D01*
Y3518528D01*
X5987616Y3580256D01*
Y3641984D01*
X6049344Y3703712D01*
Y3765440D01*
X6111072Y3827168D01*
X6172800Y3888896D01*
X6234528D01*
X6296256Y3950624D01*
X6357984D01*
X6419712Y4012352D01*
X6543168D01*
X6604896Y4074080D01*
X6851808D01*
X6913536Y4135808D01*
X7160448D01*
X7222176Y4197536D01*
X7530816D01*
X7592544Y4259264D01*
X7839456D01*
X7901184Y4320992D01*
X8148096Y4382720D01*
G37*
%LPD*%
G36*
X9753024Y6666656D02*
X10617216D01*
Y6543200D01*
X10678944Y6481472D01*
Y6358016D01*
X10740672Y6296288D01*
Y6172832D01*
X10802400Y6111104D01*
Y5987648D01*
X10864128Y5925920D01*
Y5802464D01*
X10925856Y5740736D01*
Y5617280D01*
X10987584Y5555552D01*
Y5432096D01*
X11049312Y5370368D01*
Y5308640D01*
X11111040Y5246912D01*
Y5123456D01*
X11172768Y5061728D01*
Y4938272D01*
X11234496Y4876544D01*
Y4753088D01*
X11296224Y4691360D01*
Y4567904D01*
X11357952Y4506176D01*
Y4382720D01*
X11419680Y4320992D01*
Y4197536D01*
X11481408Y4135808D01*
Y4074080D01*
X11543136Y4012352D01*
Y3950624D01*
X11604864Y3888896D01*
Y3703712D01*
X11666592Y3641984D01*
Y3580256D01*
X11728320Y3518528D01*
Y3333344D01*
X11790048Y3271616D01*
Y3209888D01*
X11851776Y3148160D01*
X11913504Y3209888D01*
Y3333344D01*
X11975232Y3395072D01*
Y3518528D01*
X12036960Y3580256D01*
Y3765440D01*
X12098688Y3827168D01*
Y3888896D01*
X12160416Y3950624D01*
Y4074080D01*
X12222144Y4135808D01*
Y4259264D01*
X12283872Y4320992D01*
Y4382720D01*
X12345600Y4444448D01*
Y4567904D01*
X12407328Y4629632D01*
Y4753088D01*
X12469056Y4814816D01*
Y4938272D01*
X12530784Y5000000D01*
Y5123456D01*
X12592512Y5185184D01*
Y5246912D01*
X12654240Y5308640D01*
Y5432096D01*
X12715968Y5493824D01*
Y5617280D01*
X12777696Y5679008D01*
Y5802464D01*
X12839424Y5864192D01*
Y5987648D01*
X12901152Y6049376D01*
Y6111104D01*
X12962880Y6172832D01*
Y6296288D01*
X13024608Y6358016D01*
Y6481472D01*
X13086336Y6543200D01*
Y6666656D01*
X13703616D01*
Y6172832D01*
X13641888Y6111104D01*
Y5987648D01*
X13580160Y5925920D01*
Y5864192D01*
X13518432Y5802464D01*
Y5679008D01*
X13456704Y5617280D01*
Y5493824D01*
X13394976Y5432096D01*
Y5370368D01*
X13333248Y5308640D01*
Y5185184D01*
X13271520Y5123456D01*
Y5000000D01*
X13209792Y4938272D01*
Y4876544D01*
X13148064Y4814816D01*
Y4691360D01*
X13086336Y4629632D01*
Y4506176D01*
X13024608Y4444448D01*
Y4382720D01*
X12962880Y4320992D01*
Y4197536D01*
X12901152Y4135808D01*
Y4012352D01*
X12839424Y3950624D01*
Y3888896D01*
X12777696Y3827168D01*
Y3703712D01*
X12715968Y3641984D01*
Y3518528D01*
X12654240Y3456800D01*
Y3395072D01*
X12592512Y3333344D01*
Y3209888D01*
X12530784Y3148160D01*
Y3024704D01*
X12469056Y2962976D01*
Y2901248D01*
X12407328Y2839520D01*
Y2716064D01*
X12345600Y2654336D01*
Y2530880D01*
X12283872Y2469152D01*
Y2407424D01*
X12222144Y2345696D01*
Y2222240D01*
X12160416Y2160512D01*
Y2037056D01*
X12098688Y1975328D01*
Y1913600D01*
X12036960Y1851872D01*
Y1728416D01*
X11975232Y1666688D01*
Y1604960D01*
X11913504Y1543232D01*
Y1419776D01*
X11851776Y1358048D01*
Y1234592D01*
X11790048Y1172864D01*
Y1111136D01*
X11728320Y1049408D01*
X11666592Y987680D01*
Y925952D01*
X11604864Y864224D01*
X11543136Y802496D01*
Y740768D01*
X11481408Y679040D01*
X11419680Y617312D01*
X11357952Y555584D01*
X11296224D01*
X11234496Y493856D01*
X11172768Y432128D01*
X11049312D01*
X10987584Y370400D01*
X10308576D01*
X10246848Y432128D01*
X10185120D01*
Y617312D01*
X10123392Y679040D01*
Y925952D01*
X10061664Y987680D01*
Y1111136D01*
X10864128D01*
X10925856Y1172864D01*
X10987584Y1234592D01*
X11049312D01*
X11111040Y1296320D01*
Y1358048D01*
X11172768Y1419776D01*
X11234496Y1481504D01*
Y1543232D01*
X11296224Y1604960D01*
Y1728416D01*
X11357952Y1790144D01*
Y1913600D01*
X11419680Y1975328D01*
Y2098784D01*
X11481408Y2160512D01*
Y2222240D01*
X11419680Y2283968D01*
Y2345696D01*
X11357952Y2407424D01*
Y2530880D01*
X11296224Y2592608D01*
Y2654336D01*
X11234496Y2716064D01*
Y2839520D01*
X11172768Y2901248D01*
Y3024704D01*
X11111040Y3086432D01*
Y3148160D01*
X11049312Y3209888D01*
Y3333344D01*
X10987584Y3395072D01*
Y3456800D01*
X10925856Y3518528D01*
Y3641984D01*
X10864128Y3703712D01*
Y3765440D01*
X10802400Y3827168D01*
Y3950624D01*
X10740672Y4012352D01*
Y4135808D01*
X10678944Y4197536D01*
Y4259264D01*
X10617216Y4320992D01*
Y4444448D01*
X10555488Y4506176D01*
Y4567904D01*
X10493760Y4629632D01*
Y4753088D01*
X10432032Y4814816D01*
Y4876544D01*
X10370304Y4938272D01*
Y5061728D01*
X10308576Y5123456D01*
Y5246912D01*
X10246848Y5308640D01*
Y5370368D01*
X10185120Y5432096D01*
Y5555552D01*
X10123392Y5617280D01*
Y5679008D01*
X10061664Y5740736D01*
Y5864192D01*
X9999936Y5925920D01*
Y5987648D01*
X9938208Y6049376D01*
Y6172832D01*
X9876480Y6234560D01*
Y6358016D01*
X9814752Y6419744D01*
Y6481472D01*
X9753024Y6543200D01*
Y6666656D01*
G37*
%LPD*%
G36*
X15740640Y6728384D02*
X16666560D01*
X16728288Y6666656D01*
X16851744D01*
X16913472Y6604928D01*
X16975200D01*
X17036928Y6543200D01*
X17098656Y6481472D01*
X17160384D01*
X17222112Y6419744D01*
X17345568D01*
X17407296Y6358016D01*
X17469024Y6296288D01*
X17530752Y6234560D01*
X17592480Y6172832D01*
X17654208Y6111104D01*
X17715936Y6049376D01*
X17777664Y5987648D01*
Y5925920D01*
X17839392Y5864192D01*
X17901120Y5802464D01*
Y5740736D01*
X17962848Y5679008D01*
Y5555552D01*
X18024576Y5493824D01*
Y5432096D01*
X18086304Y5370368D01*
Y5185184D01*
X18148032Y5123456D01*
Y4938272D01*
X18209760Y4876544D01*
Y4197536D01*
X14938176D01*
X14876448Y4135808D01*
Y3888896D01*
X14938176Y3827168D01*
Y3765440D01*
X14999904Y3703712D01*
Y3518528D01*
X15061632Y3456800D01*
Y3395072D01*
X15123360Y3333344D01*
Y3271616D01*
X15185088Y3209888D01*
Y3148160D01*
X15246816Y3086432D01*
X15308544Y3024704D01*
X15370272Y2962976D01*
X15432000D01*
X15493728Y2901248D01*
X15555456Y2839520D01*
X15617184D01*
X15678912Y2777792D01*
X15802368D01*
X15864096Y2716064D01*
X16172736D01*
X16234464Y2654336D01*
X16296192D01*
X16357920Y2716064D01*
X16604832D01*
X16666560Y2777792D01*
X16728288D01*
X16790016Y2839520D01*
X16851744Y2901248D01*
X16913472D01*
X16975200Y2962976D01*
X17036928Y3024704D01*
X17098656Y3086432D01*
X17160384Y3148160D01*
X17222112Y3209888D01*
X17283840Y3271616D01*
Y3333344D01*
X17345568Y3395072D01*
Y3456800D01*
X17407296Y3518528D01*
Y3580256D01*
X17715936D01*
X17777664Y3518528D01*
X18148032D01*
Y3395072D01*
X18086304Y3333344D01*
Y3148160D01*
X18024576Y3086432D01*
X17962848Y3024704D01*
Y2962976D01*
X17901120Y2901248D01*
Y2839520D01*
X17839392Y2777792D01*
X17777664Y2716064D01*
X17715936Y2654336D01*
X17654208Y2592608D01*
X17592480Y2530880D01*
X17530752Y2469152D01*
X17469024Y2407424D01*
X17407296Y2345696D01*
X17345568D01*
X17283840Y2283968D01*
X17160384D01*
X17098656Y2222240D01*
X17036928D01*
X16975200Y2160512D01*
X16790016D01*
X16728288Y2098784D01*
X16419648D01*
X16357920Y2037056D01*
X16049280D01*
X15987552Y2098784D01*
X15678912D01*
X15617184Y2160512D01*
X15493728D01*
X15432000Y2222240D01*
X15308544D01*
X15246816Y2283968D01*
X15185088D01*
X15123360Y2345696D01*
X15061632D01*
X14999904Y2407424D01*
X14938176D01*
X14876448Y2469152D01*
X14814720Y2530880D01*
X14752992Y2592608D01*
X14691264Y2654336D01*
X14629536Y2716064D01*
X14567808Y2777792D01*
X14506080Y2839520D01*
Y2901248D01*
X14444352Y2962976D01*
X14382624Y3024704D01*
Y3086432D01*
X14320896Y3148160D01*
Y3209888D01*
X14259168Y3271616D01*
Y3333344D01*
X14197440Y3395072D01*
Y3580256D01*
X14135712Y3641984D01*
Y4074080D01*
X14073984Y4135808D01*
Y4567904D01*
X14135712Y4629632D01*
Y5061728D01*
X14197440Y5123456D01*
Y5308640D01*
X14259168Y5370368D01*
Y5432096D01*
X14320896Y5493824D01*
Y5617280D01*
X14382624Y5679008D01*
Y5740736D01*
X14444352Y5802464D01*
X14506080Y5864192D01*
Y5925920D01*
X14567808Y5987648D01*
Y6049376D01*
X14629536Y6111104D01*
X14691264D01*
X14752992Y6172832D01*
X14814720Y6234560D01*
X14876448Y6296288D01*
X14938176Y6358016D01*
X14999904Y6419744D01*
X15061632D01*
X15123360Y6481472D01*
X15185088D01*
X15246816Y6543200D01*
X15308544D01*
X15370272Y6604928D01*
X15493728D01*
X15555456Y6666656D01*
X15740640Y6728384D01*
G37*
%LPC*%
G36*
X15864096Y6111104D02*
X16543104D01*
X16604832Y6049376D01*
X16666560D01*
X16728288Y5987648D01*
X16790016Y5925920D01*
X16851744D01*
X16913472Y5864192D01*
X16975200Y5802464D01*
X17036928Y5740736D01*
X17098656Y5679008D01*
X17160384Y5617280D01*
X17222112Y5555552D01*
Y5432096D01*
X17283840Y5370368D01*
X17345568Y5308640D01*
Y5123456D01*
X17407296Y5061728D01*
Y4814816D01*
X14938176D01*
Y5185184D01*
X14999904Y5246912D01*
Y5308640D01*
X15061632Y5370368D01*
Y5432096D01*
X15123360Y5493824D01*
Y5555552D01*
X15185088Y5617280D01*
X15246816Y5679008D01*
X15308544Y5740736D01*
Y5802464D01*
X15370272D01*
X15432000Y5864192D01*
X15493728Y5925920D01*
X15555456Y5987648D01*
X15617184D01*
X15678912Y6049376D01*
X15864096Y6111104D01*
G37*
%LPD*%
G36*
X20555424Y6728384D02*
X21049248D01*
X21110976Y6666656D01*
X21234432D01*
X21296160Y6604928D01*
X21419616D01*
Y6049376D01*
X21357888Y5987648D01*
Y5925920D01*
X21296160Y5864192D01*
Y5802464D01*
X21234432Y5864192D01*
X21172704D01*
X21110976Y5925920D01*
X20802336D01*
X20740608Y5987648D01*
X20678880Y5925920D01*
X20493696D01*
X20431968Y5864192D01*
X20370240D01*
X20308512Y5802464D01*
X20246784Y5740736D01*
X20185056Y5679008D01*
X20123328Y5617280D01*
Y5555552D01*
X20061600Y5493824D01*
Y5432096D01*
X19999872Y5370368D01*
Y5123456D01*
X19938144Y5061728D01*
Y4753088D01*
X19876416Y4691360D01*
Y2160512D01*
X19135680D01*
Y6666656D01*
X19814688D01*
Y6172832D01*
X19876416Y6111104D01*
X19938144Y6172832D01*
X19999872Y6234560D01*
X20061600Y6296288D01*
Y6358016D01*
X20123328Y6419744D01*
X20185056Y6481472D01*
X20246784Y6543200D01*
X20308512Y6604928D01*
X20370240D01*
X20431968Y6666656D01*
X20555424Y6728384D01*
G37*
%LPD*%
G36*
X26234400Y8333312D02*
X27160320D01*
Y8271584D01*
X27222048Y8209856D01*
Y8148128D01*
X27283776Y8086400D01*
Y7962944D01*
X27345504Y7901216D01*
Y7839488D01*
X27407232Y7777760D01*
Y7654304D01*
X27468960Y7592576D01*
Y7530848D01*
X27530688Y7469120D01*
Y7345664D01*
X27592416Y7283936D01*
Y7222208D01*
X27654144Y7160480D01*
Y7037024D01*
X27715872Y6975296D01*
Y6913568D01*
X27777600Y6851840D01*
Y6728384D01*
X27839328Y6666656D01*
Y6604928D01*
X27901056Y6543200D01*
Y6419744D01*
X27962784Y6358016D01*
Y6296288D01*
X28024512Y6234560D01*
Y6111104D01*
X28086240Y6049376D01*
Y5987648D01*
X28147968Y5925920D01*
Y5802464D01*
X28209696Y5740736D01*
Y5679008D01*
X28271424Y5617280D01*
Y5493824D01*
X28333152Y5432096D01*
Y5370368D01*
X28394880Y5308640D01*
Y5246912D01*
X28456608Y5185184D01*
Y5061728D01*
X28518336Y5000000D01*
Y4938272D01*
X28580064Y4876544D01*
Y4753088D01*
X28641792Y4691360D01*
Y4629632D01*
X28703520Y4567904D01*
Y4444448D01*
X28765248Y4382720D01*
Y4320992D01*
X28826976Y4259264D01*
Y4135808D01*
X28888704Y4074080D01*
Y4012352D01*
X28950432Y3950624D01*
Y3827168D01*
X29012160Y3765440D01*
Y3703712D01*
X29073888Y3641984D01*
Y3518528D01*
X29135616Y3456800D01*
Y3395072D01*
X29197344Y3333344D01*
Y3209888D01*
X29259072Y3148160D01*
Y3086432D01*
X29320800Y3024704D01*
Y2901248D01*
X29382528Y2839520D01*
Y2777792D01*
X29444256Y2716064D01*
Y2592608D01*
X29505984Y2530880D01*
Y2469152D01*
X29567712Y2407424D01*
Y2160512D01*
X28703520D01*
Y2222240D01*
X28641792Y2283968D01*
Y2407424D01*
X28580064Y2469152D01*
Y2530880D01*
X28518336Y2592608D01*
Y2716064D01*
X28456608Y2777792D01*
Y2901248D01*
X28394880Y2962976D01*
Y3024704D01*
X28333152Y3086432D01*
Y3209888D01*
X28271424Y3271616D01*
Y3395072D01*
X28209696Y3456800D01*
Y3580256D01*
X28147968Y3641984D01*
Y3703712D01*
X28086240Y3765440D01*
Y3888896D01*
X28024512Y3950624D01*
X27962784Y4012352D01*
X25493664D01*
X25431936Y3950624D01*
X25370208Y3888896D01*
Y3765440D01*
X25308480Y3703712D01*
Y3641984D01*
X25246752Y3580256D01*
Y3456800D01*
X25185024Y3395072D01*
Y3271616D01*
X25123296Y3209888D01*
Y3148160D01*
X25061568Y3086432D01*
Y2962976D01*
X24999840Y2901248D01*
Y2777792D01*
X24938112Y2716064D01*
Y2592608D01*
X24876384Y2530880D01*
Y2469152D01*
X24814656Y2407424D01*
Y2283968D01*
X24752928Y2222240D01*
Y2160512D01*
X23888736D01*
Y2222240D01*
X23950464Y2283968D01*
Y2345696D01*
X24012192Y2407424D01*
Y2530880D01*
X24073920Y2592608D01*
Y2716064D01*
X24135648Y2777792D01*
Y2839520D01*
X24197376Y2901248D01*
Y3024704D01*
X24259104Y3086432D01*
Y3209888D01*
X24320832Y3271616D01*
Y3333344D01*
X24382560Y3395072D01*
Y3518528D01*
X24444288Y3580256D01*
Y3641984D01*
X24506016Y3703712D01*
Y3827168D01*
X24567744Y3888896D01*
Y4012352D01*
X24629472Y4074080D01*
Y4135808D01*
X24691200Y4197536D01*
Y4320992D01*
X24752928Y4382720D01*
Y4506176D01*
X24814656Y4567904D01*
Y4629632D01*
X24876384Y4691360D01*
Y4814816D01*
X24938112Y4876544D01*
Y5000000D01*
X24999840Y5061728D01*
Y5123456D01*
X25061568Y5185184D01*
Y5308640D01*
X25123296Y5370368D01*
Y5432096D01*
X25185024Y5493824D01*
Y5617280D01*
X25246752Y5679008D01*
Y5802464D01*
X25308480Y5864192D01*
Y5925920D01*
X25370208Y5987648D01*
Y6111104D01*
X25431936Y6172832D01*
Y6296288D01*
X25493664Y6358016D01*
Y6419744D01*
X25555392Y6481472D01*
Y6604928D01*
X25617120Y6666656D01*
Y6728384D01*
X25678848Y6790112D01*
Y6913568D01*
X25740576Y6975296D01*
Y7098752D01*
X25802304Y7160480D01*
Y7222208D01*
X25864032Y7283936D01*
Y7407392D01*
X25925760Y7469120D01*
Y7592576D01*
X25987488Y7654304D01*
Y7716032D01*
X26049216Y7777760D01*
Y7901216D01*
X26110944Y7962944D01*
Y8086400D01*
X26172672Y8148128D01*
Y8209856D01*
X26234400Y8271584D01*
Y8333312D01*
G37*
%LPC*%
G36*
X26666496Y7654304D02*
Y7592576D01*
X26728224Y7530848D01*
Y7469120D01*
X26789952Y7407392D01*
Y7283936D01*
X26851680Y7222208D01*
Y7037024D01*
X26913408Y6975296D01*
Y6913568D01*
X26975136Y6851840D01*
Y6728384D01*
X27036864Y6666656D01*
Y6543200D01*
X27098592Y6481472D01*
Y6419744D01*
X27160320Y6358016D01*
Y6296288D01*
X27222048Y6234560D01*
Y6111104D01*
X27283776Y6049376D01*
Y5925920D01*
X27345504Y5864192D01*
Y5740736D01*
X27407232Y5679008D01*
Y5555552D01*
X27468960Y5493824D01*
Y5432096D01*
X27530688Y5370368D01*
Y5246912D01*
X27592416Y5185184D01*
Y5061728D01*
X27654144Y5000000D01*
Y4876544D01*
X27715872Y4814816D01*
Y4753088D01*
X27777600Y4691360D01*
X25678848D01*
Y4814816D01*
X25740576Y4876544D01*
Y4938272D01*
X25802304Y5000000D01*
Y5123456D01*
X25864032Y5185184D01*
Y5246912D01*
X25925760Y5308640D01*
Y5432096D01*
X25987488Y5493824D01*
Y5617280D01*
X26049216Y5679008D01*
Y5740736D01*
X26110944Y5802464D01*
Y5925920D01*
X26172672Y5987648D01*
Y6049376D01*
X26234400Y6111104D01*
Y6234560D01*
X26296128Y6296288D01*
Y6358016D01*
X26357856Y6419744D01*
Y6666656D01*
X26419584Y6728384D01*
Y6790112D01*
X26481312Y6851840D01*
Y6975296D01*
X26543040Y7037024D01*
Y7283936D01*
X26604768Y7345664D01*
X26666496Y7654304D01*
G37*
%LNB*%
%LPD*%
G36*
X617280Y28333312D02*
X1481472D01*
Y22962976D01*
X1543200Y22901248D01*
X4506144D01*
Y22160512D01*
X617280D01*
Y28333312D01*
G37*
%LPD*%
G36*
X6666624Y26728384D02*
X7839456D01*
X7901184Y26666656D01*
X8086368D01*
X8148096Y26604928D01*
X8209824D01*
X8271552Y26543200D01*
X8395008D01*
X8456736Y26481472D01*
X8518464D01*
X8580192Y26419744D01*
X8641920Y26358016D01*
X8703648Y26296288D01*
X8765376Y26234560D01*
X8827104Y26172832D01*
Y26111104D01*
X8888832Y26049376D01*
X8950560Y25987648D01*
Y25740736D01*
X9012288Y25679008D01*
Y22901248D01*
X9074016Y22839520D01*
Y22530880D01*
X9135744Y22469152D01*
Y22345696D01*
X9197472Y22283968D01*
X9259200Y22222240D01*
Y22160512D01*
X8456736D01*
Y22222240D01*
X8395008Y22283968D01*
Y22407424D01*
X8333280Y22469152D01*
Y22592608D01*
X8271552Y22654336D01*
X8209824Y22592608D01*
X8148096D01*
X8086368Y22530880D01*
X8024640Y22469152D01*
X7962912D01*
X7901184Y22407424D01*
X7839456Y22345696D01*
X7777728Y22283968D01*
X7654272D01*
X7592544Y22222240D01*
X7469088D01*
X7407360Y22160512D01*
X7222176D01*
X7160448Y22098784D01*
X6913536D01*
X6851808Y22037056D01*
X6543168D01*
X6481440Y22098784D01*
X6234528D01*
X6172800Y22160512D01*
X5925888D01*
X5864160Y22222240D01*
X5802432D01*
X5740704Y22283968D01*
X5678976Y22345696D01*
X5617248D01*
X5555520Y22407424D01*
X5493792Y22469152D01*
X5432064Y22530880D01*
X5370336Y22592608D01*
X5308608Y22654336D01*
X5246880Y22716064D01*
Y22901248D01*
X5185152Y22962976D01*
Y23024704D01*
X5123424Y23086432D01*
Y23518528D01*
X5185152Y23580256D01*
Y23765440D01*
X5246880Y23827168D01*
Y23888896D01*
X5308608Y23950624D01*
Y24012352D01*
X5370336Y24074080D01*
X5432064Y24135808D01*
Y24197536D01*
X5493792Y24259264D01*
X5555520Y24320992D01*
X5617248D01*
X5678976Y24382720D01*
X5740704Y24444448D01*
X5802432D01*
X5864160Y24506176D01*
X5925888D01*
X5987616Y24567904D01*
X6111072D01*
X6172800Y24629632D01*
X6296256D01*
X6357984Y24691360D01*
X6728352D01*
X6790080Y24753088D01*
X7036992D01*
X7098720Y24814816D01*
X7469088D01*
X7530816Y24876544D01*
X7777728D01*
X7839456Y24938272D01*
X8086368D01*
X8148096Y25000000D01*
X8209824D01*
X8271552Y25061728D01*
Y25246912D01*
X8209824Y25308640D01*
Y25617280D01*
X8148096Y25679008D01*
Y25740736D01*
X8086368Y25802464D01*
X8024640Y25864192D01*
X7962912Y25925920D01*
X7901184D01*
X7839456Y25987648D01*
X7777728D01*
X7716000Y26049376D01*
X7592544D01*
X7530816Y26111104D01*
X6851808D01*
X6790080Y26049376D01*
X6666624D01*
X6604896Y25987648D01*
X6481440D01*
X6419712Y25925920D01*
X6357984D01*
X6296256Y25864192D01*
X6234528Y25802464D01*
X6172800Y25740736D01*
Y25679008D01*
X6111072Y25617280D01*
X6049344Y25555552D01*
Y25432096D01*
X5987616Y25370368D01*
Y25246912D01*
X5864160D01*
X5802432Y25308640D01*
X5493792D01*
X5432064Y25370368D01*
X5246880D01*
Y25432096D01*
X5308608Y25493824D01*
Y25617280D01*
X5370336Y25679008D01*
Y25802464D01*
X5432064Y25864192D01*
Y25925920D01*
X5493792Y25987648D01*
X5555520Y26049376D01*
Y26111104D01*
X5617248Y26172832D01*
X5678976Y26234560D01*
X5740704Y26296288D01*
X5802432Y26358016D01*
X5864160D01*
X5925888Y26419744D01*
X5987616Y26481472D01*
X6049344D01*
X6111072Y26543200D01*
X6234528D01*
X6296256Y26604928D01*
X6357984D01*
X6419712Y26666656D01*
X6666624Y26728384D01*
G37*
%LPC*%
G36*
X8148096Y24382720D02*
X8271552D01*
Y24012352D01*
X8209824Y23950624D01*
Y23580256D01*
X8148096Y23518528D01*
Y23395072D01*
X8086368Y23333344D01*
Y23271616D01*
X8024640Y23209888D01*
X7962912Y23148160D01*
X7901184Y23086432D01*
X7839456Y23024704D01*
X7777728Y22962976D01*
X7716000Y22901248D01*
X7654272Y22839520D01*
X7530816D01*
X7469088Y22777792D01*
X7345632D01*
X7283904Y22716064D01*
X7160448D01*
X7098720Y22654336D01*
X6543168D01*
X6481440Y22716064D01*
X6357984D01*
X6296256Y22777792D01*
X6234528D01*
X6172800Y22839520D01*
X6111072Y22901248D01*
X6049344Y22962976D01*
Y23024704D01*
X5987616Y23086432D01*
Y23148160D01*
X5925888Y23209888D01*
Y23518528D01*
X5987616Y23580256D01*
Y23641984D01*
X6049344Y23703712D01*
Y23765440D01*
X6111072Y23827168D01*
X6172800Y23888896D01*
X6234528D01*
X6296256Y23950624D01*
X6357984D01*
X6419712Y24012352D01*
X6543168D01*
X6604896Y24074080D01*
X6851808D01*
X6913536Y24135808D01*
X7160448D01*
X7222176Y24197536D01*
X7530816D01*
X7592544Y24259264D01*
X7839456D01*
X7901184Y24320992D01*
X8148096Y24382720D01*
G37*
%LPD*%
G36*
X9753024Y26666656D02*
X10617216D01*
Y26543200D01*
X10678944Y26481472D01*
Y26358016D01*
X10740672Y26296288D01*
Y26172832D01*
X10802400Y26111104D01*
Y25987648D01*
X10864128Y25925920D01*
Y25802464D01*
X10925856Y25740736D01*
Y25617280D01*
X10987584Y25555552D01*
Y25432096D01*
X11049312Y25370368D01*
Y25308640D01*
X11111040Y25246912D01*
Y25123456D01*
X11172768Y25061728D01*
Y24938272D01*
X11234496Y24876544D01*
Y24753088D01*
X11296224Y24691360D01*
Y24567904D01*
X11357952Y24506176D01*
Y24382720D01*
X11419680Y24320992D01*
Y24197536D01*
X11481408Y24135808D01*
Y24074080D01*
X11543136Y24012352D01*
Y23950624D01*
X11604864Y23888896D01*
Y23703712D01*
X11666592Y23641984D01*
Y23580256D01*
X11728320Y23518528D01*
Y23333344D01*
X11790048Y23271616D01*
Y23209888D01*
X11851776Y23148160D01*
X11913504Y23209888D01*
Y23333344D01*
X11975232Y23395072D01*
Y23518528D01*
X12036960Y23580256D01*
Y23765440D01*
X12098688Y23827168D01*
Y23888896D01*
X12160416Y23950624D01*
Y24074080D01*
X12222144Y24135808D01*
Y24259264D01*
X12283872Y24320992D01*
Y24382720D01*
X12345600Y24444448D01*
Y24567904D01*
X12407328Y24629632D01*
Y24753088D01*
X12469056Y24814816D01*
Y24938272D01*
X12530784Y25000000D01*
Y25123456D01*
X12592512Y25185184D01*
Y25246912D01*
X12654240Y25308640D01*
Y25432096D01*
X12715968Y25493824D01*
Y25617280D01*
X12777696Y25679008D01*
Y25802464D01*
X12839424Y25864192D01*
Y25987648D01*
X12901152Y26049376D01*
Y26111104D01*
X12962880Y26172832D01*
Y26296288D01*
X13024608Y26358016D01*
Y26481472D01*
X13086336Y26543200D01*
Y26666656D01*
X13703616D01*
Y26172832D01*
X13641888Y26111104D01*
Y25987648D01*
X13580160Y25925920D01*
Y25864192D01*
X13518432Y25802464D01*
Y25679008D01*
X13456704Y25617280D01*
Y25493824D01*
X13394976Y25432096D01*
Y25370368D01*
X13333248Y25308640D01*
Y25185184D01*
X13271520Y25123456D01*
Y25000000D01*
X13209792Y24938272D01*
Y24876544D01*
X13148064Y24814816D01*
Y24691360D01*
X13086336Y24629632D01*
Y24506176D01*
X13024608Y24444448D01*
Y24382720D01*
X12962880Y24320992D01*
Y24197536D01*
X12901152Y24135808D01*
Y24012352D01*
X12839424Y23950624D01*
Y23888896D01*
X12777696Y23827168D01*
Y23703712D01*
X12715968Y23641984D01*
Y23518528D01*
X12654240Y23456800D01*
Y23395072D01*
X12592512Y23333344D01*
Y23209888D01*
X12530784Y23148160D01*
Y23024704D01*
X12469056Y22962976D01*
Y22901248D01*
X12407328Y22839520D01*
Y22716064D01*
X12345600Y22654336D01*
Y22530880D01*
X12283872Y22469152D01*
Y22407424D01*
X12222144Y22345696D01*
Y22222240D01*
X12160416Y22160512D01*
Y22037056D01*
X12098688Y21975328D01*
Y21913600D01*
X12036960Y21851872D01*
Y21728416D01*
X11975232Y21666688D01*
Y21604960D01*
X11913504Y21543232D01*
Y21419776D01*
X11851776Y21358048D01*
Y21234592D01*
X11790048Y21172864D01*
Y21111136D01*
X11728320Y21049408D01*
X11666592Y20987680D01*
Y20925952D01*
X11604864Y20864224D01*
X11543136Y20802496D01*
Y20740768D01*
X11481408Y20679040D01*
X11419680Y20617312D01*
X11357952Y20555584D01*
X11296224D01*
X11234496Y20493856D01*
X11172768Y20432128D01*
X11049312D01*
X10987584Y20370400D01*
X10308576D01*
X10246848Y20432128D01*
X10185120D01*
Y20617312D01*
X10123392Y20679040D01*
Y20925952D01*
X10061664Y20987680D01*
Y21111136D01*
X10864128D01*
X10925856Y21172864D01*
X10987584Y21234592D01*
X11049312D01*
X11111040Y21296320D01*
Y21358048D01*
X11172768Y21419776D01*
X11234496Y21481504D01*
Y21543232D01*
X11296224Y21604960D01*
Y21728416D01*
X11357952Y21790144D01*
Y21913600D01*
X11419680Y21975328D01*
Y22098784D01*
X11481408Y22160512D01*
Y22222240D01*
X11419680Y22283968D01*
Y22345696D01*
X11357952Y22407424D01*
Y22530880D01*
X11296224Y22592608D01*
Y22654336D01*
X11234496Y22716064D01*
Y22839520D01*
X11172768Y22901248D01*
Y23024704D01*
X11111040Y23086432D01*
Y23148160D01*
X11049312Y23209888D01*
Y23333344D01*
X10987584Y23395072D01*
Y23456800D01*
X10925856Y23518528D01*
Y23641984D01*
X10864128Y23703712D01*
Y23765440D01*
X10802400Y23827168D01*
Y23950624D01*
X10740672Y24012352D01*
Y24135808D01*
X10678944Y24197536D01*
Y24259264D01*
X10617216Y24320992D01*
Y24444448D01*
X10555488Y24506176D01*
Y24567904D01*
X10493760Y24629632D01*
Y24753088D01*
X10432032Y24814816D01*
Y24876544D01*
X10370304Y24938272D01*
Y25061728D01*
X10308576Y25123456D01*
Y25246912D01*
X10246848Y25308640D01*
Y25370368D01*
X10185120Y25432096D01*
Y25555552D01*
X10123392Y25617280D01*
Y25679008D01*
X10061664Y25740736D01*
Y25864192D01*
X9999936Y25925920D01*
Y25987648D01*
X9938208Y26049376D01*
Y26172832D01*
X9876480Y26234560D01*
Y26358016D01*
X9814752Y26419744D01*
Y26481472D01*
X9753024Y26543200D01*
Y26666656D01*
G37*
%LPD*%
G36*
X15740640Y26728384D02*
X16666560D01*
X16728288Y26666656D01*
X16851744D01*
X16913472Y26604928D01*
X16975200D01*
X17036928Y26543200D01*
X17098656Y26481472D01*
X17160384D01*
X17222112Y26419744D01*
X17345568D01*
X17407296Y26358016D01*
X17469024Y26296288D01*
X17530752Y26234560D01*
X17592480Y26172832D01*
X17654208Y26111104D01*
X17715936Y26049376D01*
X17777664Y25987648D01*
Y25925920D01*
X17839392Y25864192D01*
X17901120Y25802464D01*
Y25740736D01*
X17962848Y25679008D01*
Y25555552D01*
X18024576Y25493824D01*
Y25432096D01*
X18086304Y25370368D01*
Y25185184D01*
X18148032Y25123456D01*
Y24938272D01*
X18209760Y24876544D01*
Y24197536D01*
X14938176D01*
X14876448Y24135808D01*
Y23888896D01*
X14938176Y23827168D01*
Y23765440D01*
X14999904Y23703712D01*
Y23518528D01*
X15061632Y23456800D01*
Y23395072D01*
X15123360Y23333344D01*
Y23271616D01*
X15185088Y23209888D01*
Y23148160D01*
X15246816Y23086432D01*
X15308544Y23024704D01*
X15370272Y22962976D01*
X15432000D01*
X15493728Y22901248D01*
X15555456Y22839520D01*
X15617184D01*
X15678912Y22777792D01*
X15802368D01*
X15864096Y22716064D01*
X16172736D01*
X16234464Y22654336D01*
X16296192D01*
X16357920Y22716064D01*
X16604832D01*
X16666560Y22777792D01*
X16728288D01*
X16790016Y22839520D01*
X16851744Y22901248D01*
X16913472D01*
X16975200Y22962976D01*
X17036928Y23024704D01*
X17098656Y23086432D01*
X17160384Y23148160D01*
X17222112Y23209888D01*
X17283840Y23271616D01*
Y23333344D01*
X17345568Y23395072D01*
Y23456800D01*
X17407296Y23518528D01*
Y23580256D01*
X17715936D01*
X17777664Y23518528D01*
X18148032D01*
Y23395072D01*
X18086304Y23333344D01*
Y23148160D01*
X18024576Y23086432D01*
X17962848Y23024704D01*
Y22962976D01*
X17901120Y22901248D01*
Y22839520D01*
X17839392Y22777792D01*
X17777664Y22716064D01*
X17715936Y22654336D01*
X17654208Y22592608D01*
X17592480Y22530880D01*
X17530752Y22469152D01*
X17469024Y22407424D01*
X17407296Y22345696D01*
X17345568D01*
X17283840Y22283968D01*
X17160384D01*
X17098656Y22222240D01*
X17036928D01*
X16975200Y22160512D01*
X16790016D01*
X16728288Y22098784D01*
X16419648D01*
X16357920Y22037056D01*
X16049280D01*
X15987552Y22098784D01*
X15678912D01*
X15617184Y22160512D01*
X15493728D01*
X15432000Y22222240D01*
X15308544D01*
X15246816Y22283968D01*
X15185088D01*
X15123360Y22345696D01*
X15061632D01*
X14999904Y22407424D01*
X14938176D01*
X14876448Y22469152D01*
X14814720Y22530880D01*
X14752992Y22592608D01*
X14691264Y22654336D01*
X14629536Y22716064D01*
X14567808Y22777792D01*
X14506080Y22839520D01*
Y22901248D01*
X14444352Y22962976D01*
X14382624Y23024704D01*
Y23086432D01*
X14320896Y23148160D01*
Y23209888D01*
X14259168Y23271616D01*
Y23333344D01*
X14197440Y23395072D01*
Y23580256D01*
X14135712Y23641984D01*
Y24074080D01*
X14073984Y24135808D01*
Y24567904D01*
X14135712Y24629632D01*
Y25061728D01*
X14197440Y25123456D01*
Y25308640D01*
X14259168Y25370368D01*
Y25432096D01*
X14320896Y25493824D01*
Y25617280D01*
X14382624Y25679008D01*
Y25740736D01*
X14444352Y25802464D01*
X14506080Y25864192D01*
Y25925920D01*
X14567808Y25987648D01*
Y26049376D01*
X14629536Y26111104D01*
X14691264D01*
X14752992Y26172832D01*
X14814720Y26234560D01*
X14876448Y26296288D01*
X14938176Y26358016D01*
X14999904Y26419744D01*
X15061632D01*
X15123360Y26481472D01*
X15185088D01*
X15246816Y26543200D01*
X15308544D01*
X15370272Y26604928D01*
X15493728D01*
X15555456Y26666656D01*
X15740640Y26728384D01*
G37*
%LPC*%
G36*
X15864096Y26111104D02*
X16543104D01*
X16604832Y26049376D01*
X16666560D01*
X16728288Y25987648D01*
X16790016Y25925920D01*
X16851744D01*
X16913472Y25864192D01*
X16975200Y25802464D01*
X17036928Y25740736D01*
X17098656Y25679008D01*
X17160384Y25617280D01*
X17222112Y25555552D01*
Y25432096D01*
X17283840Y25370368D01*
X17345568Y25308640D01*
Y25123456D01*
X17407296Y25061728D01*
Y24814816D01*
X14938176D01*
Y25185184D01*
X14999904Y25246912D01*
Y25308640D01*
X15061632Y25370368D01*
Y25432096D01*
X15123360Y25493824D01*
Y25555552D01*
X15185088Y25617280D01*
X15246816Y25679008D01*
X15308544Y25740736D01*
Y25802464D01*
X15370272D01*
X15432000Y25864192D01*
X15493728Y25925920D01*
X15555456Y25987648D01*
X15617184D01*
X15678912Y26049376D01*
X15864096Y26111104D01*
G37*
%LPD*%
G36*
X20555424Y26728384D02*
X21049248D01*
X21110976Y26666656D01*
X21234432D01*
X21296160Y26604928D01*
X21419616D01*
Y26049376D01*
X21357888Y25987648D01*
Y25925920D01*
X21296160Y25864192D01*
Y25802464D01*
X21234432Y25864192D01*
X21172704D01*
X21110976Y25925920D01*
X20802336D01*
X20740608Y25987648D01*
X20678880Y25925920D01*
X20493696D01*
X20431968Y25864192D01*
X20370240D01*
X20308512Y25802464D01*
X20246784Y25740736D01*
X20185056Y25679008D01*
X20123328Y25617280D01*
Y25555552D01*
X20061600Y25493824D01*
Y25432096D01*
X19999872Y25370368D01*
Y25123456D01*
X19938144Y25061728D01*
Y24753088D01*
X19876416Y24691360D01*
Y22160512D01*
X19135680D01*
Y26666656D01*
X19814688D01*
Y26172832D01*
X19876416Y26111104D01*
X19938144Y26172832D01*
X19999872Y26234560D01*
X20061600Y26296288D01*
Y26358016D01*
X20123328Y26419744D01*
X20185056Y26481472D01*
X20246784Y26543200D01*
X20308512Y26604928D01*
X20370240D01*
X20431968Y26666656D01*
X20555424Y26728384D01*
G37*
%LPD*%
G36*
X24506016Y28333312D02*
X27283776D01*
X27345504Y28271584D01*
X27715872D01*
X27777600Y28209856D01*
X27839328D01*
X27901056Y28148128D01*
X28024512D01*
X28086240Y28086400D01*
X28147968D01*
X28209696Y28024672D01*
X28271424Y27962944D01*
X28333152D01*
X28394880Y27901216D01*
X28456608Y27839488D01*
X28518336Y27777760D01*
X28580064Y27716032D01*
Y27654304D01*
X28641792Y27592576D01*
X28703520Y27530848D01*
X28765248Y27469120D01*
Y27345664D01*
X28826976Y27283936D01*
Y27098752D01*
X28888704Y27037024D01*
Y26543200D01*
X28826976Y26481472D01*
Y26358016D01*
X28765248Y26296288D01*
Y26172832D01*
X28703520Y26111104D01*
Y26049376D01*
X28641792Y25987648D01*
X28580064Y25925920D01*
Y25864192D01*
X28518336Y25802464D01*
X28456608Y25740736D01*
X28394880Y25679008D01*
X28333152Y25617280D01*
X28271424D01*
X28209696Y25555552D01*
X28147968Y25493824D01*
Y25432096D01*
X28209696Y25370368D01*
X28271424D01*
X28333152Y25308640D01*
X28394880D01*
X28456608Y25246912D01*
X28518336D01*
X28580064Y25185184D01*
X28641792Y25123456D01*
X28703520Y25061728D01*
X28765248D01*
X28826976Y25000000D01*
Y24938272D01*
X28888704Y24876544D01*
X28950432Y24814816D01*
Y24753088D01*
X29012160Y24691360D01*
X29073888Y24629632D01*
Y24506176D01*
X29135616Y24444448D01*
Y24259264D01*
X29197344Y24197536D01*
Y23703712D01*
X29135616Y23641984D01*
Y23395072D01*
X29073888Y23333344D01*
Y23271616D01*
X29012160Y23209888D01*
Y23148160D01*
X28950432Y23086432D01*
Y23024704D01*
X28888704Y22962976D01*
X28826976Y22901248D01*
Y22839520D01*
X28765248Y22777792D01*
X28703520Y22716064D01*
X28641792Y22654336D01*
X28580064Y22592608D01*
X28518336Y22530880D01*
X28456608D01*
X28394880Y22469152D01*
X28333152Y22407424D01*
X28271424D01*
X28209696Y22345696D01*
X28086240D01*
X28024512Y22283968D01*
X27777600D01*
X27715872Y22222240D01*
X27468960D01*
X27407232Y22160512D01*
X24506016D01*
Y28333312D01*
G37*
%LPC*%
G36*
X25370208Y27592576D02*
X27345504D01*
X27407232Y27530848D01*
X27530688D01*
X27592416Y27469120D01*
X27715872D01*
X27777600Y27407392D01*
X27839328Y27345664D01*
X27901056Y27283936D01*
Y27222208D01*
X27962784Y27160480D01*
X28024512Y27098752D01*
Y26975296D01*
X28086240Y26913568D01*
Y26419744D01*
X28024512Y26358016D01*
Y26234560D01*
X27962784Y26172832D01*
X27901056Y26111104D01*
X27839328Y26049376D01*
X27777600Y25987648D01*
X27715872Y25925920D01*
X27654144D01*
X27592416Y25864192D01*
X27530688D01*
X27468960Y25802464D01*
X27222048D01*
X27160320Y25740736D01*
X25370208D01*
Y27592576D01*
G37*
%LPC*%
G36*
X25370208Y25000000D02*
X27407232D01*
X27468960Y24938272D01*
X27654144D01*
X27715872Y24876544D01*
X27777600D01*
X27839328Y24814816D01*
X27901056D01*
X27962784Y24753088D01*
X28024512Y24691360D01*
X28086240Y24629632D01*
X28147968Y24567904D01*
X28209696Y24506176D01*
Y24444448D01*
X28271424Y24382720D01*
Y24320992D01*
X28333152Y24259264D01*
Y23641984D01*
X28271424Y23580256D01*
Y23518528D01*
X28209696Y23456800D01*
Y23395072D01*
X28147968Y23333344D01*
Y23271616D01*
X28086240Y23209888D01*
X28024512Y23148160D01*
X27962784D01*
X27901056Y23086432D01*
X27839328Y23024704D01*
X27715872D01*
X27654144Y22962976D01*
X27530688D01*
X27468960Y22901248D01*
X25370208D01*
Y25000000D01*
G37*
M02*
